<?xml version="1.0" encoding="utf-8"?>
<!-- Generator: Adobe Illustrator 24.1.3, SVG Export Plug-In . SVG Version: 6.00 Build 0)  -->
<svg version="1.1" xmlns="http://www.w3.org/2000/svg" xmlns:xlink="http://www.w3.org/1999/xlink" x="0px" y="0px"
	 viewBox="0 0 360 360" enable-background="new 0 0 360 360" xml:space="preserve">
<g id="languages">
	<g id="XMLID_1_">
		<g>
			<rect x="1.7" y="334.6" fill="#4D2F4A" width="356.8" height="24.1"/>
			<rect x="15.1" y="314.8" fill="#4D2F4A" width="329.8" height="19.1"/>
			<rect x="15.1" y="80.5" fill="#4D2F4A" width="329.8" height="11.4"/>
			<path fill="#4D2F4A" d="M256,239.3c0,23.7-0.6,46.4-1.8,67.5h-61.6c-1.2-21.1-1.8-43.9-1.8-67.5c0-54.9,3.5-104.7,9.1-141.4h47.2
				C252.5,134.6,256,184.4,256,239.3z"/>
			<path fill="#4D2F4A" d="M342.7,239.3c0,23.7-0.6,46.4-1.8,67.5h-61.6c-1.2-21.1-1.8-43.9-1.8-67.5c0-54.9,3.5-104.7,9.1-141.4
				h47.2C339.2,134.6,342.7,184.4,342.7,239.3z"/>
			<path fill="#4D2F4A" d="M168.4,239.3c0,23.7-0.6,46.4-1.8,67.5h-61.6c-1.2-21.1-1.8-43.9-1.8-67.5c0-54.9,3.5-104.7,9.1-141.4
				h47.2C164.9,134.6,168.4,184.4,168.4,239.3z"/>
			<path fill="#4D2F4A" d="M345.9,75.7c2.5,1.1,1.7,4.8-1,4.8h0H15.1c-2.7,0-3.5-3.7-1-4.8L91.6,41L179,1.9c0.7-0.3,1.4-0.3,2.1,0
				L268.4,41L345.9,75.7z"/>
			<path fill="#4D2F4A" d="M81.7,239.3c0,23.7-0.6,46.4-1.8,67.5H18.2c-1.2-21.1-1.8-43.9-1.8-67.5c0-54.9,3.5-104.7,9.1-141.4h47.2
				C78.2,134.6,81.7,184.4,81.7,239.3z"/>
		</g>
		<g>
		</g>
	</g>
</g>
<g id="tools" display="none">
	<g id="XMLID_2_" display="inline">
		<g>
			<path fill="#4D2F4A" d="M114.8,51.1c2.4,1.7,4,4.3,4.3,7.2l4.6,39.5l56.4,52.6c11-2,23,1.2,32.2,9.5c0,0,0.1,0.1,0.1,0.1
				c0.5,0.5,1,0.9,1.5,1.4l140.4,142.5c3.3,3.3,3.4,8.5,0.2,11.6l-39.3,38.7c-3.1,3.1-8.3,2.9-11.6-0.4L163.1,211.3
				c-0.5-0.5-1-1.1-1.5-1.6c0,0,0,0,0,0c-8.2-9.3-11.2-21.4-9-32.5L102,120.3L61.5,115c-2.9-0.4-5.5-2-7.1-4.4l-44-64.9
				c-2.6-3.9-2.2-9,0.9-12.1L38.5,6.9c3.2-3.1,8.3-3.5,12.1-0.7L114.8,51.1z"/>
		</g>
		<g>
			<path fill="none" stroke="#4D2F4A" stroke-width="0.9922" stroke-miterlimit="10" d="M213.8,161.4l140.4,142.5
				c3.3,3.3,3.4,8.5,0.2,11.6l-39.3,38.7c-3.1,3.1-8.3,2.9-11.6-0.4L163.1,211.3l-0.9-0.9c-0.2-0.2-0.5-0.5-0.7-0.8"/>
			<path fill="none" stroke="#4D2F4A" stroke-width="0.9066" stroke-miterlimit="10" d="M212.3,159.9c0.2,0.2,0.4,0.4,0.6,0.6
				l0.9,0.9"/>
			<path fill="none" stroke="#4D2F4A" stroke-width="0.9066" stroke-miterlimit="10" d="M180,150.3c11-2,23,1.2,32.2,9.5
				c0,0,0.1,0.1,0.1,0.1c0.5,0.5,1,0.9,1.5,1.4"/>
			<path fill="none" stroke="#4D2F4A" stroke-width="0.9066" stroke-miterlimit="10" d="M161.6,209.6c-8.2-9.3-11.2-21.4-9-32.5"/>
			<path fill="none" stroke="#4D2F4A" stroke-width="0.9922" stroke-miterlimit="10" d="M161.6,209.7
				C161.6,209.7,161.6,209.6,161.6,209.7"/>
			<path fill="none" stroke="#4D2F4A" stroke-width="0.9066" stroke-miterlimit="10" d="M163.1,211.3c-0.5-0.5-1-1.1-1.5-1.6"/>
			<line fill="none" stroke="#4D2F4A" stroke-width="0.9922" stroke-miterlimit="10" x1="152.6" y1="177.2" x2="102" y2="120.3"/>
			<line fill="none" stroke="#4D2F4A" stroke-width="0.9922" stroke-miterlimit="10" x1="123.6" y1="97.7" x2="180" y2="150.3"/>
			<path fill="none" stroke="#4D2F4A" stroke-width="1.0892" stroke-miterlimit="10" d="M123.6,97.7l-4.6-39.5
				c-0.3-2.9-1.9-5.5-4.3-7.2L50.6,6.2c-3.9-2.7-8.9-2.4-12.1,0.7L11.3,33.6c-3.2,3.1-3.6,8.2-0.9,12.1l44,64.9
				c1.6,2.4,4.2,4,7.1,4.4l40.6,5.3"/>
		</g>
	</g>
	<g id="XMLID_3_" display="inline">
		<g>
			<path fill="#4D2F4A" d="M220.8,162c-11.7-9.9-24-18.7-37.8-16.2l-14-13.1l50.2-52.2c-3.6-20.5,2.6-42.6,18.4-59.1
				c20.3-21.1,50.6-26.7,75.2-16l-24.5,25.5l-18.5,19.3l6.8,25.1l25.4,5.9l18.5-19.3l24.5-25.5c11.6,24.3,7.2,54.7-13.1,75.8
				c-15.9,16.5-37.7,23.5-58.3,20.7l-39.8,41.5l-0.4,0.4L220.8,162C220.8,162,220.8,162,220.8,162z"/>
			<path fill="#4D2F4A" d="M164,220.6l12.9,12.9l-2,2L67.5,347.3c0,0-0.1,0.1-0.1,0.1c-0.1,0.1-0.1,0.1-0.2,0.2
				c-15,15.6-39.3,16.5-54.4,2c-15-14.5-15.1-38.8-0.1-54.4c0.1-0.1,0.1-0.1,0.2-0.2c0,0,0.1-0.1,0.1-0.1l123.8-128.7l11.8,13.3
				C145.6,194.1,152.3,208.7,164,220.6z M44.6,330.2c3.8-3.9,3.7-10,0-13.7c-3.8-3.6-9.9-3.4-13.6,0.5s-3.8,10,0,13.7
				C34.8,334.3,40.9,334.1,44.6,330.2z"/>
		</g>
		<g>
			<line fill="none" stroke="#4D2F4A" stroke-width="1.2511" stroke-miterlimit="10" x1="169" y1="132.7" x2="219.2" y2="80.5"/>
			<line fill="none" stroke="#4D2F4A" stroke-width="1.2511" stroke-miterlimit="10" x1="13" y1="294.9" x2="136.8" y2="166.1"/>
			<line fill="none" stroke="#4D2F4A" stroke-width="1.2511" stroke-miterlimit="10" x1="174.9" y1="235.5" x2="67.5" y2="347.3"/>
			<line fill="none" stroke="#4D2F4A" stroke-width="1.2511" stroke-miterlimit="10" x1="273.6" y1="132.9" x2="233.9" y2="174.4"/>
			<path fill="none" stroke="#4D2F4A" stroke-width="0.9544" stroke-miterlimit="10" d="M67.5,347.3c0,0-0.1,0.1-0.1,0.1
				c-0.1,0.1-0.1,0.1-0.2,0.2c-15,15.6-39.3,16.5-54.4,2c-15-14.5-15.1-38.8-0.1-54.4c0.1-0.1,0.1-0.1,0.2-0.2c0,0,0.1-0.1,0.1-0.1"
				/>
			<path fill="none" stroke="#4D2F4A" stroke-width="1.6532" stroke-miterlimit="10" d="M219.2,80.5c-3.6-20.5,2.6-42.6,18.4-59.1
				c20.3-21.1,50.6-26.7,75.2-16"/>
			<path fill="none" stroke="#4D2F4A" stroke-width="1.6532" stroke-miterlimit="10" d="M345.1,36.4c11.6,24.3,7.2,54.7-13.1,75.8
				c-15.9,16.5-37.7,23.5-58.3,20.7"/>
			<polyline fill="none" stroke="#4D2F4A" stroke-width="2.4082" stroke-miterlimit="10" points="288.3,30.9 269.8,50.2 276.6,75.3 
				302,81.2 320.5,61.9 			"/>
			<line fill="none" stroke="#4D2F4A" stroke-width="2.4082" stroke-miterlimit="10" x1="288.3" y1="30.9" x2="312.8" y2="5.4"/>
			<line fill="none" stroke="#4D2F4A" stroke-width="2.4082" stroke-miterlimit="10" x1="320.5" y1="61.9" x2="345.1" y2="36.4"/>
			<path fill="none" stroke="#4D2F4A" stroke-width="2.4082" stroke-miterlimit="10" d="M44.6,330.2c-3.8,3.9-9.9,4.1-13.7,0.5
				c-3.8-3.6-3.8-9.8,0-13.7s9.9-4.1,13.6-0.5C48.4,320.2,48.4,326.3,44.6,330.2z"/>
			<path fill="none" stroke="#4D2F4A" stroke-width="1.2441" stroke-miterlimit="10" d="M177.1,233.7l-0.2-0.2L164,220.6l-1.8-1.8
				c-0.3-0.3-2.1,1.7-2.3,1.3"/>
			<path fill="none" stroke="#4D2F4A" stroke-width="1.1367" stroke-miterlimit="10" d="M222.6,158.7c0.3,0.3-1.8,2.8-1.8,3.3
				c0,0,0,0.1,0,0.1l12.6,12.7l0.4,0.4"/>
			<path fill="none" stroke="#4D2F4A" stroke-width="1.1367" stroke-miterlimit="10" d="M183,145.8c13.8-2.5,26.1,6.3,37.8,16.2
				c0.7,0.6,1.4,1.2,2.1,1.8"/>
			<path fill="none" stroke="#4D2F4A" stroke-width="1.2441" stroke-miterlimit="10" d="M164,220.6c-11.7-11.9-18.4-26.5-15.4-41.2"
				/>
			<line fill="none" stroke="#4D2F4A" stroke-width="1.2441" stroke-miterlimit="10" x1="148.6" y1="179.4" x2="136.8" y2="166.1"/>
			<line fill="none" stroke="#4D2F4A" stroke-width="1.2441" stroke-miterlimit="10" x1="169" y1="132.7" x2="183" y2="145.8"/>
		</g>
	</g>
	
		<line display="inline" fill="none" stroke="#4D2F4A" stroke-width="1.2441" stroke-miterlimit="10" x1="174.8" y1="235.8" x2="177.4" y2="233.1"/>
</g>
<g id="design" display="none">
	<line fill="none" stroke="#FC0000" stroke-width="1.1367" stroke-miterlimit="10" x1="170.8" y1="36.3" x2="170.8" y2="349.3"/>
	<g id="XMLID_4_" display="inline">
		<g>
			<path fill="#4D2F4A" d="M295.4,220.3c0,0,12.9,19.4,0,32.7c-12.9,13.2-60.5,61.8-60.5,61.8H180h-54.9c0,0-47.6-48.6-60.5-61.8
				c-12.9-13.2,0-32.7,0-32.7l93.2-161.5h14.3v119.5c-17.8,3.6-31.3,19.4-31.3,38.3c0,21.6,17.5,39.1,39.1,39.1s39.1-17.5,39.1-39.1
				c0-18.9-13.4-34.6-31.1-38.3V58.8h14.2L295.4,220.3z"/>
		</g>
		<g>
			<line fill="none" stroke="#4D2F4A" stroke-width="1.1528" stroke-miterlimit="10" x1="188" y1="58.8" x2="188" y2="178.4"/>
			<line fill="none" stroke="#4D2F4A" stroke-width="1.1528" stroke-miterlimit="10" x1="172.2" y1="58.8" x2="172.2" y2="178.3"/>
			<path fill="none" stroke="#4D2F4A" stroke-width="1.1528" stroke-miterlimit="10" d="M172.2,58.8h-14.3L64.6,220.3
				c0,0-12.9,19.4,0,32.7c12.9,13.2,60.5,61.8,60.5,61.8H180"/>
			<path fill="none" stroke="#4D2F4A" stroke-width="1.1528" stroke-miterlimit="10" d="M188,58.8h14.2l93.2,161.5
				c0,0,12.9,19.4,0,32.7c-12.9,13.2-60.5,61.8-60.5,61.8H180"/>
			<path fill="none" stroke="#4D2F4A" stroke-width="1.4568" stroke-miterlimit="10" d="M188,178.4c17.8,3.7,31.1,19.4,31.1,38.3
				c0,21.6-17.5,39.1-39.1,39.1s-39.1-17.5-39.1-39.1c0-18.9,13.4-34.7,31.3-38.3"/>
		</g>
	</g>
	<rect x="126" y="318.5" display="inline" fill="#4D2F4A" width="108.7" height="39.9"/>
	<path display="inline" fill="#4D2F4A" d="M198,54.5h-37.6c-3.8,0-6.9-3.1-6.9-6.9V10c0-3.8,3.1-6.9,6.9-6.9H198
		c3.8,0,6.9,3.1,6.9,6.9v37.6C204.9,51.4,201.8,54.5,198,54.5z"/>
	<path display="inline" fill="#4D2F4A" d="M350.8,141.5h-37.6c-3.8,0-6.9-3.1-6.9-6.9V97c0-3.8,3.1-6.9,6.9-6.9h37.6
		c3.8,0,6.9,3.1,6.9,6.9v37.6C357.7,138.4,354.6,141.5,350.8,141.5z"/>
	<path display="inline" fill="#4D2F4A" d="M47,141.5H9.4c-3.8,0-6.9-3.1-6.9-6.9V97c0-3.8,3.1-6.9,6.9-6.9H47c3.8,0,6.9,3.1,6.9,6.9
		v37.6C53.8,138.4,50.8,141.5,47,141.5z"/>
	<path display="inline" fill="none" stroke="#4D2F4A" stroke-width="26" stroke-miterlimit="10" d="M28.2,120.8
		c0,0,141.7-206.4,303.8,0"/>
</g>
</svg>
