<?xml version="1.0" encoding="utf-8"?>
<!-- Generator: Adobe Illustrator 24.1.3, SVG Export Plug-In . SVG Version: 6.00 Build 0)  -->
<svg version="1.1" id="Layer_1" xmlns="http://www.w3.org/2000/svg" xmlns:xlink="http://www.w3.org/1999/xlink" x="0px" y="0px"
	 viewBox="0 0 360 480" enable-background="new 0 0 360 480" xml:space="preserve">
<g id="XMLID_3_">
	<g>
		<path fill="#FF7429" d="M-1441.2,421.3c9.9,0,17.9,8,17.9,17.9V451h-275v-11.6c0-10,8.1-18,18.1-18h23.6h75.5H-1441.2z"/>
		<polygon fill="#FF7429" points="-1425.9,300.9 -1425.9,316.2 -1484.5,316.2 -1523.8,316.2 -1560.6,316.2 -1582.9,316.2 
			-1582.9,315 -1582.9,300.9 -1559.8,300.9 -1556.8,300.9 		"/>
		<path fill="#FF7429" d="M-1449,196.9l1.7,9.1l-1.3,0.3l-68.9,16.8c0,0-1.8-8.1-1.9-8.9l22.9-5.6L-1449,196.9z"/>
		<path fill="#FF7429" d="M-1458.2,221.3l7.7,30.6c0,0-3.7,7.2-4,8.3c-0.2,0.7-7.5,2.2-12.7,3.1l-3.9-6.3l-5.9-31.4L-1458.2,221.3z"
			/>
		<polygon fill="#FF7429" points="-1458.2,221.3 -1477.1,225.7 -1479.3,226.2 -1480.9,217.4 -1459.5,212.4 -1458.5,216.7 
			-1457.4,221.1 		"/>
		<path fill="#FF7429" d="M-1474.6,257.8c0.4,0.2,5.4,5.9,5.4,5.9c-1.7,0.3-2.9,0.5-2.9,0.5l-8.5-4.8c0,0-6.4-27.3-7.2-31.2l4.9-1.1
			v0l2-0.5C-1480.6,228.4-1474.6,257.8-1474.6,257.8z"/>
		<rect x="-1523.8" y="316.2" fill="#FF7429" width="39.3" height="19.5"/>
		<polygon fill="#FF7429" points="-1489.4,225.7 -1490.8,219.7 -1484.6,218.3 -1482.9,227 -1482.9,227 -1487.8,228.2 -1488.8,228.4 
					"/>
		<path fill="#FF7429" d="M-1535.7,190h3.4v27.5l4.5-1.1l-8.7,2.1l-0.1-28c0,0-7.6-0.8-8.4-2.3c-0.1-0.1-0.1-1.9-0.2-4.9
			c-0.5-15.4-1.2-63.6-1.6-87.6c-0.1-8.5-0.2-14-0.2-14l3.5-1.2l-1.1-56.8c0,0,22.1-10.1,44.7-1.4l2,57c0,0,4.4,0,5.1,2.4l0.2,107.1
			c0,0-2.2,0.4-3.9,0.7v0.4h-1.1c0,0-0.1,0-0.2,0.1c0,0,0,0,0,0c-2,0.4-26.5,1.1-29.2,1.2V190v-29.1V79h-7.5V24.3l-5.2,1v54.3h4.1
			V190z"/>
		<polygon fill="#FF7429" points="-1494.6,227.3 -1494.6,235 -1495.3,235 -1516.6,235 -1519,235 -1519,226.1 -1494.6,226.1 		"/>
		<path fill="#FF7429" d="M-1497.6,189.9h1.1v18.7l-22.9,5.6l-6,1.5l-1.7,0.4v-23.5l15.3-0.5l12.3-1c0,0,1.2-0.9,1.6-1.2
			c0,0,0,0,0,0C-1497.8,190-1497.7,190-1497.6,189.9C-1497.7,189.9-1497.6,189.9-1497.6,189.9z"/>
		<path fill="#FF7429" d="M-1537.7,367.6c1.2-5.8,16.2-7.6,33.5-4c17.3,3.6,30.3,11.3,29.1,17.1c0,0,0,0.2-0.1,0.4
			c-0.1,0.2-0.1,0.4-0.2,0.5c-2.6,5-16.9,6.4-33.1,3c-16.3-3.4-28.8-10.4-29.1-16.1C-1537.8,368.2-1537.8,367.9-1537.7,367.6z"/>
		<path fill="#FF7429" d="M-1514.5,274.2l-2.1-6.6V235h21.3l0.7,31.8c0,0-5.2,6.2-5.7,7.3c-0.4,0.8-10.8,0.4-15.6,0.1H-1514.5z"/>
		<path fill="#FF7429" d="M-1520.9,235v32.6l4.9,6.6c-1.5-0.1-2.4-0.1-2.4-0.1l-7.2-6.6c0,0-0.2-31.7,0-32.5h2.8H-1520.9z"/>
		<polygon fill="#FF7429" points="-1522.8,226.1 -1522.8,235 -1525.6,235 -1527.3,235 -1527.3,229 -1527.3,226.1 		"/>
		<polygon fill="#FF7429" points="-1490.8,219.7 -1489.4,225.7 -1494.6,227.3 -1494.6,226.1 -1519,226.1 -1522.8,226.1 
			-1527.3,226.1 -1527.4,225.5 -1523.5,224.6 -1517.5,223.1 -1448.6,206.3 -1456.5,215.8 -1458.5,216.7 -1459.5,212.4 
			-1480.9,217.4 -1484.6,218.3 		"/>
		<path fill="#FF7429" d="M-1527.1,216.1l1.7-0.4c0.1,0.4,1.8,8.8,1.8,8.8l-3.9,0.9l-8.5,2.1l-2-8.8l1.4-0.4l8.7-2.1L-1527.1,216.1z
			"/>
		<polygon fill="#FF7429" points="-1527.3,229 -1535.9,227.6 -1527.4,225.5 -1527.3,226.1 		"/>
		<path fill="#FF7429" d="M-1539.5,374.1c0.8-2.9,1.8-6.5,1.8-6.5c-0.1,0.3-0.1,0.7-0.1,1c-0.2,0.3-0.3,0.6-0.3,1
			c-1.2,5.8,11.8,13.5,29.1,17.1c16.2,3.4,30.4,2,33.1-3c-0.6,2.3-1.4,5.4-1.9,7c-0.2,0.6-0.3,0.9-0.3,1c-2.3,5.2-16.7,6.7-33.2,3.3
			c-14.6-3.1-26.2-9-28.6-14.3c-0.5-1-0.6-1.9-0.4-2.8C-1540.4,377.6-1540,376-1539.5,374.1z"/>
		<path fill="#FF7429" d="M-1559.3,374.1h19.8c-0.5,1.9-0.9,3.5-0.9,3.7c-0.2,0.9,0,1.8,0.4,2.8h-19.2L-1559.3,374.1z"/>
		<path fill="#FF7429" d="M-1561.9,177.7c6.6,0,11.9-5.3,11.9-11.9c0-6.6-5.3-11.9-11.9-11.9c-6.6,0-11.9,5.3-11.9,11.9
			C-1573.8,172.4-1568.5,177.7-1561.9,177.7z M-1584.3,118.3c0,9,7.3,16.3,16.3,16.3c9,0,16.3-7.3,16.3-16.3S-1559,102-1568,102
			C-1577,102-1584.3,109.3-1584.3,118.3z M-1595.2,100.7c0,0,38.6-5.6,48.4-5c0.4,24.1,1.1,72.2,1.6,87.6l-47.4,1.8
			c0,0-38.4,7.4-40.9,54.5c-2.6,47.2,19.2,74.7,50.5,75.3h0.2v1.2h22.3l1.3,57.9l0.2,6.5l0.4,16.3c-0.7-0.4-9-1.5-20.8-5.3
			c-0.6-17.9-1.4-38.6-0.9-48.3c1.1-19.7-0.7-22.9-13.2-25.7c-12.5-2.8-19.7,11.3-19.7,11.3s-8.3,15.5-17.8,33.9
			c-22.3-19.8-41.6-51-44-100.3c-4.5-90.9,62.7-143.4,65.3-146.6C-1607.4,112.8-1595.2,100.7-1595.2,100.7z"/>
		<polygon fill="#FF7429" points="-1555.4,289.6 -1555.4,298.3 -1556.8,298.3 -1559.8,298.3 -1561.3,298.3 -1561.3,289.6 		"/>
		<rect x="-1559.8" y="298.3" fill="#FF7429" width="3" height="2.5"/>
		<path fill="#FF7429" d="M-1568,123.7c-3.4,0-6.2-2.8-6.2-6.2c0-3.4,2.8-6.2,6.2-6.2c3.4,0,6.2,2.8,6.2,6.2
			C-1561.8,120.9-1564.6,123.7-1568,123.7z"/>
		<path fill="#FF7429" d="M-1596.9,345.9c5.6,0,10.2-4.5,10.2-10.1c0-5.6-4.5-10.2-10.2-10.2c-5.6,0-10.1,4.5-10.1,10.2
			C-1607.1,341.3-1602.5,345.9-1596.9,345.9z M-1594.6,320.2c11.8,2.7,12.8,4.7,11.8,23.9c-0.9,16.8,1.1,65.1,1.6,77.1h-75.5
			c7.2-15.4,44.6-90.3,44.6-90.3S-1606.3,317.6-1594.6,320.2z"/>
	</g>
	<g>
		<path fill="none" stroke="#FF7429" stroke-width="1.1022" stroke-miterlimit="10" d="M-1560.6,316.2l1.3,57.9l0.2,6.5l0.4,16.3
			c-0.7-0.4-9-1.5-20.8-5.3"/>
		<path fill="none" stroke="#FF7429" stroke-width="1.1022" stroke-miterlimit="10" d="M-1545.2,183.3l-47.4,1.8
			c0,0-38.4,7.4-40.9,54.5c-2.6,47.2,19.2,74.7,50.5,75.3h0.2"/>
		<path fill="none" stroke="#FF7429" stroke-width="1.1022" stroke-miterlimit="10" d="M-1631.2,362.9c-22.3-19.8-41.6-51-44-100.3
			c-4.5-90.9,62.7-143.4,65.3-146.6c2.6-3.2,14.7-15.4,14.7-15.4s38.6-5.6,48.4-5"/>
		<path fill="none" stroke="#FF7429" stroke-width="1.021" stroke-miterlimit="10" d="M-1551.7,118.3c0,9-7.3,16.3-16.3,16.3
			c-9,0-16.3-7.3-16.3-16.3s7.3-16.3,16.3-16.3C-1559,102-1551.7,109.3-1551.7,118.3z"/>
		<path fill="none" stroke="#FF7429" stroke-width="0.3869" stroke-miterlimit="10" d="M-1561.8,117.5c0,3.4-2.8,6.2-6.2,6.2
			c-3.4,0-6.2-2.8-6.2-6.2c0-3.4,2.8-6.2,6.2-6.2C-1564.6,111.3-1561.8,114.1-1561.8,117.5z"/>
		<circle fill="none" stroke="#FF7429" stroke-width="0.7437" stroke-miterlimit="10" cx="-1561.9" cy="165.8" r="11.9"/>
		<path fill="none" stroke="#FF7429" stroke-width="0.6353" stroke-miterlimit="10" d="M-1596.9,325.6c5.6,0,10.2,4.5,10.2,10.2
			c0,5.6-4.5,10.1-10.2,10.1c-5.6,0-10.1-4.5-10.1-10.1C-1607.1,330.1-1602.5,325.6-1596.9,325.6z"/>
		<path fill="none" stroke="#FF7429" stroke-width="0.3869" stroke-miterlimit="10" d="M-1656.7,421.3c7.2-15.4,44.6-90.3,44.6-90.3
			s5.7-13.5,17.5-10.8c11.8,2.7,12.8,4.7,11.8,23.9c-0.9,16.8,1.1,65.1,1.6,77.1"/>
		<path fill="none" stroke="#FF7429" stroke-width="0.6353" stroke-miterlimit="10" d="M-1536.5,218.5l-0.1-28c0,0-7.6-0.8-8.4-2.3
			c-0.1-0.1-0.1-1.9-0.2-4.9c-0.5-15.4-1.2-63.6-1.6-87.6c-0.1-8.5-0.2-14-0.2-14l3.5-1.2l-1.1-56.8c0,0,22.1-10.1,44.7-1.4l2,57
			c0,0,4.4,0,5.1,2.4l0.2,107.1c0,0-2.2,0.4-3.9,0.7v0.4v18.7"/>
		<polyline fill="none" stroke="#FF7429" stroke-width="0.6353" stroke-miterlimit="10" points="-1527.1,216.1 -1525.4,215.7 
			-1519.4,214.2 -1496.5,208.6 -1449,196.9 -1447.3,206 -1448.6,206.3 -1517.5,223.1 -1523.5,224.6 -1527.4,225.5 -1535.9,227.6 
			-1537.9,218.8 -1536.5,218.5 -1527.8,216.3 		"/>
		<polyline fill="none" stroke="#FF7429" stroke-width="0.6353" stroke-miterlimit="10" points="-1458.5,216.7 -1456.5,215.8 
			-1448.6,206.3 		"/>
		
			<line fill="none" stroke="#FF7429" stroke-width="0.6353" stroke-miterlimit="10" x1="-1494.6" y1="227.3" x2="-1489.4" y2="225.7"/>
		
			<line fill="none" stroke="#FF7429" stroke-width="0.6353" stroke-miterlimit="10" x1="-1535.9" y1="227.6" x2="-1527.3" y2="229"/>
		<polyline fill="none" stroke="#FF7429" stroke-width="0.6628" stroke-miterlimit="10" points="-1519,226.1 -1494.6,226.1 
			-1494.6,227.3 -1494.6,235 -1495.3,235 -1516.6,235 		"/>
		<polyline fill="none" stroke="#FF7429" stroke-width="0.6628" stroke-miterlimit="10" points="-1522.8,235 -1525.6,235 
			-1527.3,235 -1527.3,229 -1527.3,226.1 -1522.8,226.1 		"/>
		<polyline fill="none" stroke="#FF7429" stroke-width="0.6576" stroke-miterlimit="10" points="-1482.9,227 -1487.8,228.2 
			-1488.8,228.4 -1489.4,225.7 -1490.8,219.7 -1484.6,218.3 -1480.9,217.4 -1459.5,212.4 -1458.5,216.7 -1457.4,221.1 
			-1458.2,221.3 -1477.1,225.7 -1479.3,226.2 		"/>
		<polyline fill="none" stroke="#FF7429" stroke-width="0.6576" stroke-miterlimit="10" points="-1479.3,226.2 -1480.9,226.6 
			-1482.9,227 		"/>
		<path fill="none" stroke="#FF7429" stroke-width="0.6353" stroke-miterlimit="10" d="M-1525.6,235c-0.2,0.9,0,32.5,0,32.5l7.2,6.6
			c0,0,1,0.1,2.4,0.1c4.8,0.2,15.2,0.7,15.6-0.1c0.5-1,5.7-7.3,5.7-7.3l-0.7-31.8"/>
		<path fill="none" stroke="#FF7429" stroke-width="0.6353" stroke-miterlimit="10" d="M-1467.2,263.4c5.1-0.9,12.5-2.4,12.7-3.1
			c0.3-1.1,4-8.3,4-8.3l-7.7-30.6l-0.1-0.3"/>
		<path fill="none" stroke="#FF7429" stroke-width="0.6353" stroke-miterlimit="10" d="M-1468.8,263.6c0.2,0,0.4-0.1,0.7-0.1"/>
		<path fill="none" stroke="#FF7429" stroke-width="0.6353" stroke-miterlimit="10" d="M-1487.8,227.7c0,0.1,0,0.2,0.1,0.5
			c0.8,4,7.2,31.2,7.2,31.2l8.5,4.8c0,0,1.2-0.2,2.9-0.5"/>
		<polygon fill="none" stroke="#FF7429" stroke-width="0.6353" stroke-miterlimit="10" points="-1556.8,300.9 -1425.9,300.9 
			-1425.9,316.2 -1484.5,316.2 -1523.8,316.2 -1560.6,316.2 -1582.9,316.2 -1582.9,315 -1582.9,300.9 -1559.8,300.9 		"/>
		<polyline fill="none" stroke="#FF7429" stroke-width="0.6353" stroke-miterlimit="10" points="-1484.5,316.2 -1484.5,335.7 
			-1523.8,335.7 -1523.8,316.2 		"/>
		
			<line fill="none" stroke="#FF7429" stroke-width="0.6353" stroke-miterlimit="10" x1="-1559.8" y1="298.3" x2="-1559.8" y2="300.9"/>
		
			<line fill="none" stroke="#FF7429" stroke-width="0.6353" stroke-miterlimit="10" x1="-1556.8" y1="300.9" x2="-1556.8" y2="298.3"/>
		<polygon fill="none" stroke="#FF7429" stroke-width="0.6353" stroke-miterlimit="10" points="-1559.8,298.3 -1561.3,298.3 
			-1561.3,289.6 -1555.4,289.6 -1555.4,298.3 -1556.8,298.3 		"/>
		<path fill="none" stroke="#FF7429" stroke-width="0.6344" stroke-miterlimit="10" d="M-1475.3,381.1c-0.1,0.2-0.1,0.4-0.2,0.5
			c-2.6,5-16.9,6.4-33.1,3c-16.3-3.4-28.8-10.4-29.1-16.1c0-0.4,0-0.7,0.1-1c1.2-5.8,16.2-7.6,33.5-4c17.3,3.6,30.3,11.3,29.1,17.1"
			/>
		<path fill="none" stroke="#FF7429" stroke-width="0.6344" stroke-miterlimit="10" d="M-1477.8,390.6c0,0.1,0,0.2,0,0.3
			c-0.1,0.3-0.1,0.5-0.3,0.8c-2.3,5.2-16.7,6.7-33.2,3.3c-14.6-3.1-26.2-9-28.6-14.3c-0.5-1-0.6-1.9-0.4-2.8"/>
		<path fill="none" stroke="#FF7429" stroke-width="0.6344" stroke-miterlimit="10" d="M-1475.9,383.6c0.2-0.6,0.3-1.2,0.4-1.7
			c0.1-0.4,0.2-0.7,0.2-0.9c0.1-0.3,0.1-0.4,0.1-0.4"/>
		<path fill="none" stroke="#FF7429" stroke-width="0.6344" stroke-miterlimit="10" d="M-1478.1,391.7c0-0.1,0.1-0.5,0.3-1
			c0.4-1.6,1.2-4.7,1.9-7"/>
		<path fill="none" stroke="#FF7429" stroke-width="0.6344" stroke-miterlimit="10" d="M-1540.4,377.8c0-0.3,0.4-1.9,0.9-3.7
			c0.8-2.9,1.8-6.5,1.8-6.5"/>
		<path fill="none" stroke="#FF7429" stroke-width="0.6344" stroke-miterlimit="10" d="M-1581.2,421.3h139.9c9.9,0,17.9,8,17.9,17.9
			V451h-275v-11.6c0-10,8.1-18,18.1-18h23.6H-1581.2z"/>
		
			<line fill="none" stroke="#FF7429" stroke-width="0.6344" stroke-miterlimit="10" x1="-1539.9" y1="380.6" x2="-1559.1" y2="380.6"/>
		
			<line fill="none" stroke="#FF7429" stroke-width="0.6344" stroke-miterlimit="10" x1="-1559.3" y1="374.1" x2="-1539.5" y2="374.1"/>
		<path fill="none" stroke="#FF7429" stroke-width="0.4025" stroke-miterlimit="10" d="M-1631.2,362.9c9.4-18.4,17.8-33.9,17.8-33.9
			s7.3-14,19.7-11.3c12.5,2.8,14.3,6,13.2,25.7c-0.5,9.7,0.3,30.5,0.9,48.3"/>
		<path fill="none" stroke="#FF7429" stroke-width="0.6344" stroke-miterlimit="10" d="M-1475.5,381.6c0,0.1,0,0.2,0,0.3
			c0,0.2,0,0.5-0.1,0.7c-0.1,0.4-0.2,0.7-0.4,1c0,0,0,0,0,0c-2.7,5-16.9,6.4-33.1,3c-17.3-3.6-30.3-11.3-29.1-17.1
			c0.1-0.3,0.2-0.7,0.3-1"/>
		<polyline fill="none" stroke="#FF7429" stroke-width="0.6353" stroke-miterlimit="10" points="-1535.7,79.6 -1539.8,79.6 
			-1539.8,25.4 -1534.6,24.3 -1534.6,79 		"/>
		<polyline fill="none" stroke="#FF7429" stroke-width="0.6353" stroke-miterlimit="10" points="-1527.1,192.7 -1527.1,216.1 
			-1527.8,216.3 -1532.3,217.4 -1532.3,190 		"/>
		
			<line fill="none" stroke="#FF7429" stroke-width="0.6436" stroke-miterlimit="10" x1="-1527.1" y1="190" x2="-1527.1" y2="191.2"/>
		<polyline fill="none" stroke="#FF7429" stroke-width="0.6436" stroke-miterlimit="10" points="-1535.7,79.6 -1535.7,190 
			-1532.3,190 		"/>
		<polyline fill="none" stroke="#FF7429" stroke-width="0.6436" stroke-miterlimit="10" points="-1527.1,190 -1527.1,160.8 
			-1527.1,79 -1534.6,79 		"/>
		<path fill="none" stroke="#FF7429" stroke-width="0.6353" stroke-miterlimit="10" d="M-1497.8,190c-0.5,0.3-1.6,1.2-1.6,1.2
			l-12.3,1l-15.3,0.5"/>
		<path fill="none" stroke="#FF7429" stroke-width="0.6353" stroke-miterlimit="10" d="M-1497.8,190c0.1,0,0.1,0,0.1,0
			c0.1,0,0.1-0.1,0.1-0.1S-1497.7,189.9-1497.8,190"/>
		<path fill="none" stroke="#FF7429" stroke-width="0.6353" stroke-miterlimit="10" d="M-1497.8,190
			C-1497.8,190-1497.8,190-1497.8,190"/>
		<path fill="none" stroke="#FF7429" stroke-width="0.6353" stroke-miterlimit="10" d="M-1527.1,191.2c2.8-0.1,27.2-0.8,29.2-1.2"/>
		<polyline fill="none" stroke="#FF7429" stroke-width="0.6353" stroke-miterlimit="10" points="-1520.9,235 -1522.8,235 
			-1522.8,226.1 -1519,226.1 -1519,235 		"/>
		<polyline fill="none" stroke="#FF7429" stroke-width="0.6353" stroke-miterlimit="10" points="-1516.6,267.6 -1516.6,235 
			-1519,235 -1520.9,235 -1520.9,267.6 		"/>
		<path fill="none" stroke="#FF7429" stroke-width="0.6353" stroke-miterlimit="10" d="M-1525.4,215.7c0.1,0.4,1.8,8.8,1.8,8.8"/>
		<path fill="none" stroke="#FF7429" stroke-width="0.6353" stroke-miterlimit="10" d="M-1519.4,214.2c0.1,0.7,1.9,8.9,1.9,8.9"/>
		<line fill="none" stroke="#FF7429" stroke-width="0.6576" stroke-miterlimit="10" x1="-1482.9" y1="227" x2="-1482.9" y2="227"/>
		
			<line fill="none" stroke="#FF7429" stroke-width="0.6353" stroke-miterlimit="10" x1="-1484.6" y1="218.3" x2="-1482.9" y2="227"/>
		
			<line fill="none" stroke="#FF7429" stroke-width="0.6576" stroke-miterlimit="10" x1="-1479.3" y1="226.2" x2="-1479.3" y2="226.2"/>
		
			<line fill="none" stroke="#FF7429" stroke-width="0.6353" stroke-miterlimit="10" x1="-1480.9" y1="217.4" x2="-1479.3" y2="226.2"/>
		<polyline fill="none" stroke="#FF7429" stroke-width="0.6353" stroke-miterlimit="10" points="-1520.9,267.6 -1516,274.2 
			-1514.5,274.2 -1516.6,267.6 		"/>
		
			<line fill="none" stroke="#FF7429" stroke-width="0.6353" stroke-miterlimit="10" x1="-1471.1" y1="257.1" x2="-1477.1" y2="225.7"/>
		<path fill="none" stroke="#FF7429" stroke-width="0.6353" stroke-miterlimit="10" d="M-1480.9,226.5
			C-1480.9,226.5-1480.9,226.6-1480.9,226.5c0.3,1.9,6.4,31.3,6.4,31.3"/>
		<path fill="none" stroke="#FF7429" stroke-width="0.6353" stroke-miterlimit="10" d="M-1474.6,257.8c0.4,0.2,5.4,5.9,5.4,5.9
			c0.1,0,0.3-0.1,0.4-0.1l0.7-0.1c0.3-0.1,0.6-0.1,0.9-0.2l-3.9-6.3"/>
	</g>
</g>
<g id="XMLID_1_">
	<g>
		<path fill="#FF7429" d="M-1252.5,162.3c-1.4,0.4-2.7,0.9-4.1,1.3c-1.5,0.5-3.3,0.8-4.8,0.5c1.6,7.4,5.1,14.3,10,20
			c0.7-3.3,0.6-6.8,0.4-10.1C-1251.2,170.1-1251.4,166-1252.5,162.3z M-1346,227.5c-0.1-0.5-0.5-0.9-0.9-0.9
			C-1346.7,227-1346.4,227.3-1346,227.5z M-1043.9,229.7c-0.7,0.5-1.4,1-2,1.5c0.5-0.3,1-0.6,1.6-0.9c0,0,0,0,0,0
			c9.5-5.4,18.9-11.1,27.9-17.2c2-1.4,4.1-2.8,6-4.4c2.2-1.9,4.2-4.1,5.9-6.6c-2-1.8-3.8-3.7-5.5-5.8c-7.6,12.3-18,22.9-30.1,30.8
			C-1041.4,228.1-1042.7,228.8-1043.9,229.7z M-1214.9,144.6c-1.6-0.5-3.1-1.1-4.6-1.8c-1.2,0.5-2.4,0.8-3.7,1
			c-0.4,7.2-1.3,14.4,1.9,20.7C-1218.6,158.2-1216,151.5-1214.9,144.6z M-1242.4,151.9c-0.9,0.9-2,1.6-3.1,2.1
			c1.7,0.8,1.7,3.3,0.6,4.7c-0.9,1.2-2.3,1.8-3.8,2.3c0.4,2.5,1,5,1.9,7.3c1.4,3.9,3.7,7.6,7.1,9.9c3.3-3.9,6.6-7.9,8.5-12.6
			c1.1-2.7,1.8-5.7,2.2-8.6c0.7-4.3,1-8.7,1-13c-1.7-0.2-3.4-0.5-5-1.1c-1.1,1.2-1.8,2.8-1.8,4.4c-0.1-0.8-0.3-1.6-0.8-2.2
			s-1.5-0.9-2.2-0.4c-0.3,0.3-0.5,0.7-0.6,1.2c-0.9,3.4-1.3,7.1-1,10.6c-0.1-1.3-0.2-2.7-1-3.7
			C-1240.8,152.3-1241.7,151.9-1242.4,151.9z M-1080.6,140.5c0.5,1,1.3,1.7,2.3,2.1c0.1,0.6,0.1,1.3-0.2,1.8c0,0.1,0,0.1-0.1,0.2
			c-0.8,1.5-2.4,2.4-4.1,3c-11.8,4.8-25.6,4.4-37.1-1c-6.9,2.8-15.1,2.4-21.8-1.1c-1.6-0.8-3.2-2-4.3-3.4l-0.3,0.2
			c0.5,2.7,2.9,4.6,5.3,5.8c6.7,3.4,14.8,3.8,21.8,1.1c11.5,5.4,25.3,5.8,37.1,1c1.7-0.7,3.4-1.6,4.1-3.2c0.3-0.6,0.3-1.2,0.2-1.8
			c2.4,1.1,5.9,0.5,8.6-0.4c3.6-1.1,7.2-2.3,10.8-3.4c2.7-0.9,5.6-1.9,7.4-4.1c1.4-1.8,1.6-4.6,0.4-6.3c0-0.5-0.1-1-0.3-1.5
			c4.9-2.3,8.3-7.9,7.3-13.3l-0.7,0c-0.3,4.8-3.9,9.4-8.5,11.1c0.9,0.4,1.5,1.2,1.9,2.2c-0.3,0.2-0.7,0.3-1,0.4
			c0.5,0.3,1,0.6,1.3,1.1c0,1.3-0.4,2.7-1.2,3.7c-1.8,2.2-4.7,3.2-7.4,4.1c-3.6,1.1-7.2,2.3-10.8,3.4c-2.7,0.9-6.2,1.5-8.6,0.4
			C-1078.6,141.4-1079.4,140.4-1080.6,140.5z M-1197.2,145c-1.9,5.8-1.4,12.4,1.4,17.9c4.8-6.6,7.8-14.4,8.8-22.5
			c-1,0.1-2,0-2.9-0.4c0.1,0.4,0.1,0.9-0.1,1.3c-0.5,1.2-1.8,1.8-3,2.3C-1194.4,144.2-1195.8,144.7-1197.2,145z M-1305.2,175.2
			c-0.5-2-3.3-2.8-5.1-1.8c-0.8,0.5-1.4,1.2-1.8,2c1.5,0.4,2.9,1.8,3.2,3.4c0.3,1.3-0.2,2.7-1,3.8v0c0.1,0.7,0.3,1.4,0.6,2
			c1.9,4.9,6.7,8,11.4,10.2c3.6,1.7,7.3,3.1,11.1,4.2c1.3-10.6,2.5-21.7-0.4-31.9c-0.4-0.2-0.9-0.4-1.3-0.6c-3.3,1.3-7,1.5-10.4,0.7
			c-0.7,1.2-1.1,2.7-0.9,4.1c-0.5-1.3-2-2-3.3-1.7c-1.3,0.4-2.3,1.7-2.1,3.1C-1305.3,173.5-1304.7,174.4-1305.2,175.2z
			 M-962.9,205.2c0.5-0.3,8.3-5.4,10.4-9c0,0,4.4,9-1,17.6c0,0,4.2,2,10.3-1.5c0,0-20.2,32-51.4,25.2c0,0-1.3,6.9-17.1,10.6
			c0.5-0.3,7.7-4.8,7.7-6.7c0,0-29.5-6.5-42.3,2.5c-12.7,9-14.5,22.8-14.5,22.8s-4.5,50-1.2,56.1c3.3,6.1,9.8,9.2,11.2,22
			c1.4,12.8,10.8,7.1,11.3,21.1c0.1,2.4,0.5,4.7,1,6.8h41.7c-2.2,7.1-23.7,34.2-25.4,34.2h-122.9v0h-156.6
			c-1.8,0-23.2-27.1-25.4-34.2h148.4h22.8l0,0c2-2.1,3.8-4.2,5.2-5.8c2.7-3.2,5.2-8.6,13.1-9c7.8-0.4,19.4,1.1,22.7,0
			c3.3-1.1,8.4-3.1,12.7-9.5c4.3-6.4,7.8-8.2,19.2-9.1c11.4-0.9,8.3-69.6,6.2-77.2c-2.1-7.6-55.3-23-58.3-48.5
			c0.2,1.6,1.5,14.5-13.6,9.7c-16.1-5.1,1.9-4.4,3.7-6.6c1.8-2.2-1-1.9-3.7-3.2c-2.7-1.3,4.7-1.5,5.6-4c0.9-2.5,1.3-9.8-8.1-12.3
			c-9.4-2.5-16.9-8.3-22.2-4c-5.3,4.2-4.5,2.8-6.8,6.8c0,0-0.6-6.1,1.5-9.2c2-3.1-4.3-0.8-8.1,7.5c-3.8,8.3-11.9,1.4-11.9,1.4
			s4.4,11.6-7,4.6s-28.1,4.4-28.1,4.4s-1.1,11.4-13.8,10.6c0,0,4.9-3,4.9-7.8c0,0-15.7-3.8-33.7,12.3c-18,16.1-29.6,5-32.7,1.2
			c0,0-10.8,15.7-20.6,21.3c-9.8,5.7-23.3,5.9-31-8.4c0,0,4,3.3,5.5,2.5c0,0-3.8-4.1-5.9-10.5c-0.7-0.2-1.3-0.5-2-0.8
			c-2.9,1.2-6.3,1-9.1-0.5c-1-0.5-2-1.3-2.2-2.4c-0.2-1.1,0.9-2.5,1.9-2.1c-1-0.7-2.6-0.2-3.4-1.1c-0.9-1,0.1-2.4,1.2-3.2
			c-0.3-0.2-0.6-0.6-0.8-1c-1.1-2.3-1.6-5.2-0.2-7.4c1.3-2.2,5.1-2.7,6.4-0.5c-0.9-2.6,1.8-5.7,4.5-5.1c1.2-2.5,4.6-3.6,7-2.3
			c1.9-1.2,3.8-2.4,6-2.9c1.3-0.3,2.8-0.2,4,0.2c1.6-0.9,3.4-1.5,4.5-3c0.9-1.4,1-3.2,1.4-4.8c-2.6,0.6-5.4,0.3-7.7-0.9
			c-1-0.5-2-1.3-2.3-2.5c-0.2-1.1,0.8-2.5,1.9-2.1c-1-0.7-2.6-0.2-3.4-1.1c-0.8-1,0.1-2.5,1.3-3.2c-0.3-0.2-0.6-0.6-0.8-1
			c-1.1-2.3-1.6-5.2-0.2-7.4c1.3-2.2,5.1-2.7,6.3-0.5c-0.9-2.6,1.9-5.7,4.6-5.1c1.2-2.5,4.6-3.6,7-2.4c1.9-1.2,3.8-2.4,6-2.9
			c2.2-0.4,4.7,0,6.2,1.6c1.5,1.6,1.8,4.5,0.1,6c1.9-0.8,4.1-0.9,6.1-0.4c2.7-4.1,6.6-7.4,11-9.5c-0.2-1.7,1.4-3.6,3-3.1
			c-1.5-1.1-4-0.3-5.2-1.7c-1.3-1.5,0.2-3.7,1.9-4.9c-0.5-0.3-1-0.9-1.2-1.5c-1.6-3.6-2.4-7.9-0.3-11.2c2-3.3,7.8-4.2,9.7-0.8
			c-1.4-4,2.8-8.7,6.9-7.8c1.8-3.8,7-5.5,10.7-3.6c2.8-1.9,5.8-3.7,9.2-4.4c3.3-0.7,7.1,0,9.5,2.4s2.7,6.9,0.1,9.2
			c3.6-1.5,7.9-1.4,11.4,0.3c0,0,0,0,0,0c2.6-1.7,5.6-2.7,8.6-3c-0.7-1.6,0.8-3.7,2.5-4.8c-0.6-0.3-1.1-1-1.4-1.6
			c-1.8-4-2.7-8.8-0.4-12.5c2.3-3.7,8.7-4.7,10.8-0.9c-1.6-4.5,3.2-9.7,7.8-8.7c2-4.2,7.8-6.2,11.9-4c3.2-2.1,6.5-4.1,10.3-4.9
			c3.7-0.8,8-0.1,10.6,2.7c0.1,0.1,0.2,0.2,0.3,0.3c0.2,0.7,0.5,1.4,0.8,2c0.2,0.4,0.5,0.8,0.8,1.2c0.1,0.3,0.1,0.5,0.2,0.8
			c0.1-0.1,0.3-0.2,0.4-0.3c-0.2-0.1-0.4-0.3-0.6-0.5c-0.3-1.2-0.8-2.3-1.6-3.2c-1.2-3.5-1.5-7.4,0.4-10.5c2.3-3.7,8.6-4.6,10.8-0.9
			c-1.5-4.4,3.2-9.7,7.8-8.7c2-4.2,7.8-6.2,11.9-4c3.2-2.1,6.5-4.1,10.2-4.9c3.7-0.8,8-0.1,10.6,2.7c2.6,2.7,3,7.7,0.1,10.2
			c4.1-1.7,8.8-1.6,12.8,0.3c1.2,0.6,2.4,1.3,2.9,2.5c0.6,1.2,0.3,2.9-0.9,3.4c0.7-0.3,1.4-0.4,2.1-0.4c3.7-2.9,9.2-3.7,13.4-1.5
			c4.4-2.9,9.1-5.8,14.3-6.8c5.2-1.1,11.1-0.1,14.8,3.8c3.7,3.8,4.2,10.8,0.1,14.3c5.7-2.3,12.3-2.2,17.8,0.4
			c1.7,0.8,3.3,1.9,4.1,3.5c0.8,1.7,0.4,4-1.3,4.8c0.5-0.2,1.1-0.4,1.6-0.4c2.6-0.9,5.4-1.2,8.4-0.1c9.9,3.6,9.2,9.2,18.2,7.9
			c9-1.4,12.6-6.3,12.6-6.3s1.8,5.6-5,10.8c0,0,5.9,4.5,12.8-1.6c0,0,0.7,4.5-5.2,10.1c0,0,5.5,3,9.6-2.5c0,0-0.9,5.6-9.6,8.3
			c0,0,4.6-0.2,8,4.3c3.4,4.5,7.8,5.8,9.2,5.4c1.4-0.5,5.7-4.7,9.3-4.3c0,0-5.4,2.8-4.9,6.7c0.4,3.9-2.3,6.2,2,8.5
			c4.3,2.3,4.1,5.7,4.1,5.7s-5.7-3.1-8,5.3c-2.4,8.4-6.3,6-6.3,6s7.8,12.2,17,5.1c9.2-7,10-12.8,9.1-14.4c0,0,11.9,6.8,4,22.1
			c0,0-1.5,5.8-11.5,7.1c0,0,2.3,3.9,7.1,2.3l-1.6,2.8c0,0,11.3-2.6,16.4-12.1C-960,182.4-951.5,189.9-962.9,205.2z M-1338.6,197.6
			c-1.6-0.2-3.5,1.3-3.1,2.9c0.2,0.6,0.6,1.1,1.1,1.5c0.6,0.6,1.3,1.1,2,1.6c-1.2-0.6-2.5-1.1-3.8-1.1c-1,0-1.9,0.3-2.8,0.8
			c0.8,1.6,0.7,3.8-0.7,5c2.4-1,5.2-0.9,7.5,0.2c0.7,0.3,1.4,0.8,1.7,1.5c0.3,0.7,0.2,1.7-0.6,2c2.3-0.9,5.1,0.9,5.5,3.3
			c0.3,1.4-0.2,2.8-1.1,4c0.7,0.1,1.4,0.2,2.2,0.3c3.5,0.3,7.5-0.2,9.7-3c0.5-0.7,0.9-1.5,1.2-2.4c2.3-6.3,0.7-13.8-4-18.7
			c-0.7-0.8-1.5-1.4-2.3-2.1c-3.6,1.3-7.6,1.4-11.3,0.5c-0.3,0.8-0.3,1.8,0,2.6c0.3,1,0.9,1.8,1.6,2.5
			C-1336.5,198.3-1337.5,197.7-1338.6,197.6z M-1006.7,232.7c0.9-0.4,1.1-1.7,1-2.7c-0.1-3.8-0.3-7.5-0.4-11.3
			c-6.4,4.8-17.4,12.4-23,14.9c6.9-1.4,14-1.7,21-0.9C-1007.6,232.9-1007.1,232.9-1006.7,232.7z M-1079.9,221.6
			c0.1-7.6,0.9-15.4-1.1-22.7c-0.7,0.9-1.3,1.8-2,2.8c-0.8-0.4-1.3-1.2-1.5-2.1c-0.7,9.2-0.1,18.4,1.8,27.4c0.4,1.9,0.8,3.9,1.2,5.8
			c1.4,3.8,2.5,7.6,3.5,11.5C-1079.4,236.8-1080,229.2-1079.9,221.6z M-1102.7,239.1c7.7,5.2,15.6,10.5,24.2,13.9
			c-17.7-9.6-29.8-27.2-38-45.6c-4.2,3.6-11.3,2.7-14.5-1.8c0,2.4,0.4,4.8,1.2,7.1c3.6,5.3,8.7,11.9,12,15
			C-1113.1,232-1107.9,235.6-1102.7,239.1z M-1078.9,249.7c-9.9-14.5-14-32.1-17.9-49.2c-1.1,0.9-2.4,1.4-3.8,1.4
			c-0.4,1.7-2.7,2.4-4.3,1.7c-1.6-0.7-2.7-2.2-3.6-3.7c0.4,2.5-0.3,5.1-1.8,7.1C-1103.7,223.5-1091.7,237.4-1078.9,249.7z
			 M-1175.2,137c-0.3,0.1-0.6,0.2-0.9,0.3c-1.7,0.5-3.4,1.1-5.1,1.6c-0.2,4,0,8,0.7,11.9C-1177.3,146.8-1175.6,141.9-1175.2,137z
			 M-1270.2,176.7c0.3-2.6,0.3-5.4-0.2-8c-3.8,0.7-7.7,0.7-11.5,0c0,4.3-0.5,8.5-0.4,12.8c0.1,5.8,1.4,12,5.8,15.8
			c0.7-2,1.4-4,2.2-6C-1272.5,186.5-1270.8,181.7-1270.2,176.7z M-1296.9,207.8c0.8,0,1.6,0,2.2-0.6c-2.7-9.5-11.7-16.3-21.5-17.6
			c-1.2,0.4-2.3,0.7-3.5,1.1c-0.5,0.2-1.1,0.3-1.7,0.4c0.2,0.8,0.8,1.5,1.3,2.2C-1314.2,200.7-1306.3,207.5-1296.9,207.8z"/>
	</g>
	<g>
		<path fill="none" stroke="#FF7429" stroke-width="1.2135" stroke-miterlimit="10" d="M-1145.2,406.9L-1145.2,406.9l-156.6,0
			c-1.8,0-23.2-27.1-25.4-34.2h148.4h22.8"/>
		<polyline fill="none" stroke="#FF7429" stroke-width="1.2135" stroke-miterlimit="10" points="-1155.9,372.7 -1178.8,372.7 
			-1178.8,372.7 		"/>
		<path fill="none" stroke="#FF7429" stroke-width="1.2135" stroke-miterlimit="10" d="M-1145.2,406.9h122.9
			c1.8,0,23.3-27.1,25.4-34.2h-41.7"/>
		<path fill="none" stroke="#FF7429" stroke-width="0.75" stroke-miterlimit="10" d="M-1011.7,248.1c0.5-0.3,7.7-4.8,7.7-6.7
			c0,0-29.5-6.5-42.3,2.5c-12.7,9-14.5,22.8-14.5,22.8s-4.5,50-1.2,56.1c3.3,6.1,9.8,9.2,11.2,22c1.4,12.8,10.8,7.1,11.3,21.1
			c0.1,2.4,0.5,4.7,1,6.8"/>
		<path fill="none" stroke="#FF7429" stroke-width="0.75" stroke-miterlimit="10" d="M-962.9,205.2
			C-962.9,205.2-962.9,205.2-962.9,205.2c0.5-0.3,8.3-5.4,10.4-9.1c0,0,4.4,9-1,17.6c0,0,4.2,2,10.3-1.5c0,0-20.2,32-51.4,25.2
			c0,0-1.3,6.9-17.1,10.6c0,0,0,0,0,0"/>
		<path fill="none" stroke="#FF7429" stroke-width="0.75" stroke-miterlimit="10" d="M-1067,114.2c0.4-0.9,5.2-6.8,11.4-9
			c2.6-0.9,5.4-1.2,8.4-0.1c9.9,3.6,9.2,9.2,18.2,7.9c9-1.4,12.6-6.3,12.6-6.3s1.8,5.6-5,10.8c0,0,5.9,4.5,12.8-1.6
			c0,0,0.7,4.5-5.2,10.1c0,0,5.5,3,9.6-2.5c0,0-0.9,5.6-9.6,8.3c0,0,4.6-0.2,8,4.3c3.4,4.5,7.8,5.8,9.2,5.4c1.4-0.5,5.7-4.7,9.3-4.3
			c0,0-5.4,2.8-4.9,6.7c0.4,3.9-2.3,6.2,2,8.5c4.3,2.3,4.1,5.7,4.1,5.7s-5.7-3.1-8,5.3c-2.4,8.4-6.3,6-6.3,6s7.8,12.2,17,5.1
			c9.2-7,10-12.8,9.1-14.4c0,0,11.9,6.8,4,22.1c0,0-1.5,5.8-11.5,7.1c0,0,2.3,3.9,7.1,2.3l-1.6,2.8c0,0,11.3-2.6,16.4-12.1
			c0,0,8.5,7.5-2.8,22.8"/>
		<path fill="none" stroke="#FF7429" stroke-width="0.75" stroke-miterlimit="10" d="M-1135.3,213.4
			C-1135.3,213.4-1135.3,213.5-1135.3,213.4c0,0.1,0,0.1,0,0.2c0.2,1.6,1.5,14.5-13.6,9.7c-16.1-5.1,1.9-4.4,3.7-6.6
			c1.8-2.2-1-1.9-3.7-3.2c-2.7-1.3,4.7-1.5,5.6-4c0.9-2.5,1.3-9.8-8.1-12.3c-9.4-2.5-16.9-8.3-22.2-4c-5.3,4.2-4.5,2.8-6.8,6.8
			c0,0-0.6-6.1,1.5-9.2c2-3.1-4.3-0.8-8.1,7.5c-3.8,8.3-11.9,1.4-11.9,1.4s4.4,11.6-7,4.6s-28.1,4.4-28.1,4.4s-1.1,11.4-13.8,10.6
			c0,0,4.9-3,4.9-7.8c0,0-15.7-3.8-33.7,12.3c-18,16.1-29.6,5-32.7,1.2c0,0-10.8,15.7-20.6,21.3c-9.8,5.7-23.3,5.9-31-8.4
			c0,0,4,3.3,5.5,2.5c0,0-3.8-4.1-5.9-10.5"/>
		<path fill="none" stroke="#FF7429" stroke-width="0.75" stroke-miterlimit="10" d="M-1156,372.7L-1156,372.7
			c2-2.1,3.8-4.2,5.2-5.8c2.7-3.2,5.2-8.6,13.1-9c7.8-0.4,19.4,1.1,22.7,0c3.3-1.1,8.4-3.1,12.7-9.5c4.3-6.4,7.8-8.2,19.2-9.1
			c11.4-0.9,8.3-69.6,6.2-77.2c-2.1-7.6-55.3-23-58.3-48.5"/>
		<path fill="none" stroke="#FF7429" stroke-width="0.75" stroke-miterlimit="10" d="M-1187.6,101.4c0.1-0.1,0.3-0.2,0.4-0.3"/>
		<path fill="none" stroke="#FF7429" stroke-width="0.75" stroke-miterlimit="10" d="M-1185.8,101.2c-0.4,0.3-0.9,0.3-1.4,0
			c-0.2-0.1-0.4-0.3-0.6-0.5c-0.3-0.3-0.6-0.8-0.8-1.2c-0.3-0.7-0.6-1.3-0.8-2c-1.2-3.5-1.5-7.4,0.4-10.5c2.3-3.7,8.6-4.6,10.8-0.9
			c-1.5-4.4,3.2-9.7,7.8-8.7c2-4.2,7.8-6.2,11.9-4c3.2-2.1,6.5-4.1,10.2-4.9c3.7-0.8,8-0.1,10.6,2.7c2.6,2.7,3,7.7,0.1,10.2
			c4.1-1.7,8.8-1.6,12.8,0.3c1.2,0.6,2.4,1.3,2.9,2.5c0.6,1.2,0.3,2.9-0.9,3.4c0.7-0.3,1.4-0.4,2.1-0.4"/>
		<path fill="none" stroke="#FF7429" stroke-width="1.0483" stroke-miterlimit="10" d="M-1078.3,142.6c0.1,0.6,0.1,1.3-0.2,1.8
			c0,0.1,0,0.1-0.1,0.2c-0.8,1.5-2.4,2.4-4.1,3c-11.8,4.8-25.6,4.4-37.1-1c-6.9,2.8-15.1,2.4-21.8-1.1c-1.6-0.8-3.2-2-4.3-3.4"/>
		<path fill="none" stroke="#FF7429" stroke-width="1.0483" stroke-miterlimit="10" d="M-1078.3,142.6c-1-0.4-1.8-1.1-2.3-2.1
			C-1079.4,140.4-1078.6,141.4-1078.3,142.6z"/>
		<path fill="none" stroke="#FF7429" stroke-width="1.0483" stroke-miterlimit="10" d="M-1120.6,87.3c3.7-2.9,9.2-3.7,13.4-1.5
			c4.4-2.9,9.1-5.8,14.3-6.8c5.2-1.1,11.1-0.1,14.8,3.8c3.7,3.8,4.2,10.8,0.1,14.3c5.7-2.3,12.3-2.2,17.8,0.4
			c1.7,0.8,3.3,1.9,4.1,3.5c0.8,1.7,0.4,4-1.3,4.8c0.5-0.2,1.1-0.4,1.6-0.4c5-0.8,10.5,3.2,11.5,8.3c0.2,0.9,0.2,1.7,0.1,2.6
			c-0.3,4.8-3.9,9.4-8.5,11.1c0.9,0.4,1.5,1.2,1.9,2.2c0.2,0.5,0.3,1,0.3,1.5c0,1.3-0.4,2.7-1.2,3.7c-1.8,2.2-4.7,3.2-7.4,4.1
			c-3.6,1.1-7.2,2.3-10.8,3.4c-2.7,0.9-6.2,1.5-8.6,0.4"/>
		<path fill="none" stroke="#FF7429" stroke-width="0.75" stroke-miterlimit="10" d="M-1241.8,131.9c-0.7-1.6,0.8-3.7,2.5-4.8"/>
		<path fill="none" stroke="#FF7429" stroke-width="0.75" stroke-miterlimit="10" d="M-1228,144.1c-1.7-0.2-3.4-0.5-5-1.1"/>
		<path fill="none" stroke="#FF7429" stroke-width="0.75" stroke-miterlimit="10" d="M-1207.9,145.9c-2.3-0.2-4.7-0.6-6.9-1.3
			c-1.6-0.5-3.1-1.1-4.6-1.8c-1.2,0.5-2.4,0.8-3.7,1"/>
		<path fill="none" stroke="#FF7429" stroke-width="0.75" stroke-miterlimit="10" d="M-1189.9,140c0.1,0.4,0.1,0.9-0.1,1.3
			c-0.5,1.2-1.8,1.8-3,2.3c-1.4,0.6-2.8,1-4.3,1.4c-1.3,0.3-2.5,0.6-3.8,0.7"/>
		<path fill="none" stroke="#FF7429" stroke-width="0.75" stroke-miterlimit="10" d="M-1187,140.4c-1,0.1-2,0-2.9-0.4"/>
		<path fill="none" stroke="#FF7429" stroke-width="0.75" stroke-miterlimit="10" d="M-1175.2,137c-0.3,0.1-0.6,0.2-0.9,0.3
			c-1.7,0.5-3.4,1.1-5.1,1.6"/>
		<path fill="none" stroke="#FF7429" stroke-width="0.75" stroke-miterlimit="10" d="M-1237.9,127.1c-0.4,0.3-0.9,0.3-1.4,0
			c-0.6-0.3-1.1-1-1.4-1.6c-1.8-4-2.7-8.8-0.4-12.5c2.3-3.7,8.7-4.7,10.8-0.9c-1.6-4.5,3.2-9.7,7.8-8.7c2-4.2,7.8-6.2,11.9-4
			c3.2-2.1,6.5-4.1,10.3-4.9c3.7-0.8,8-0.1,10.6,2.7c0.1,0.1,0.2,0.2,0.3,0.3c0.8,0.9,1.3,2,1.6,3.2c0.1,0.3,0.1,0.5,0.2,0.8"/>
		<path fill="none" stroke="#FF7429" stroke-width="0.6722" stroke-miterlimit="10" d="M-1306.1,161.9c-0.2-1.7,1.4-3.6,3-3.1
			c-1.5-1.1-4-0.3-5.2-1.7c-1.3-1.5,0.2-3.7,1.9-4.9"/>
		<path fill="none" stroke="#FF7429" stroke-width="0.6722" stroke-miterlimit="10" d="M-1287.3,167c-0.4-0.2-0.9-0.4-1.3-0.6
			c-3.3,1.3-7,1.5-10.4,0.7"/>
		<path fill="none" stroke="#FF7429" stroke-width="0.6722" stroke-miterlimit="10" d="M-1270.3,168.7c-3.8,0.7-7.7,0.7-11.5,0"/>
		<path fill="none" stroke="#FF7429" stroke-width="0.6722" stroke-miterlimit="10" d="M-1242.4,151.9c-0.9,0.9-2,1.6-3.1,2.1
			c1.7,0.8,1.7,3.3,0.6,4.7c-0.9,1.2-2.3,1.8-3.8,2.3c-0.3,0.1-0.6,0.2-1,0.3c-0.9,0.3-1.9,0.6-2.8,0.9c-1.4,0.4-2.7,0.9-4.1,1.3
			c-1.5,0.5-3.3,0.8-4.8,0.5"/>
		<path fill="none" stroke="#FF7429" stroke-width="0.6722" stroke-miterlimit="10" d="M-1306.4,152.3c-0.5-0.3-1-0.9-1.2-1.5
			c-1.6-3.6-2.4-7.9-0.3-11.2c2-3.3,7.8-4.2,9.7-0.8c-1.4-4,2.8-8.7,6.9-7.8c1.8-3.8,7-5.5,10.7-3.6c2.8-1.9,5.8-3.7,9.2-4.4
			c3.3-0.7,7.1,0,9.5,2.4s2.7,6.9,0.1,9.2c3.6-1.5,7.9-1.4,11.4,0.3c0,0,0,0,0,0"/>
		<path fill="none" stroke="#FF7429" stroke-width="0.4405" stroke-miterlimit="10" d="M-1342.2,193.1c-2.6,0.6-5.4,0.3-7.7-0.9
			c-1-0.5-2-1.3-2.3-2.5c-0.2-1.1,0.8-2.5,1.9-2.1c-1-0.7-2.6-0.2-3.4-1.1c-0.8-1,0.1-2.5,1.3-3.2"/>
		<path fill="none" stroke="#FF7429" stroke-width="0.4405" stroke-miterlimit="10" d="M-1325.9,193.4c-3.6,1.3-7.6,1.4-11.3,0.5"/>
		<path fill="none" stroke="#FF7429" stroke-width="0.4405" stroke-miterlimit="10" d="M-1316.2,189.7c-1.2,0.4-2.3,0.7-3.5,1.1
			c-0.5,0.2-1.1,0.3-1.7,0.4"/>
		<path fill="none" stroke="#FF7429" stroke-width="0.4405" stroke-miterlimit="10" d="M-1312.1,175.4c1.5,0.4,2.9,1.8,3.2,3.4
			c0.3,1.3-0.2,2.7-1,3.8"/>
		<path fill="none" stroke="#FF7429" stroke-width="0.4405" stroke-miterlimit="10" d="M-1351.5,183.4c-0.3,0.2-0.5,0.1-0.8,0
			c-0.3-0.2-0.6-0.6-0.8-1c-1.1-2.3-1.6-5.2-0.2-7.4c1.3-2.2,5.1-2.7,6.3-0.5c-0.9-2.6,1.9-5.7,4.6-5.1c1.2-2.5,4.6-3.6,7-2.4
			c1.9-1.2,3.8-2.4,6-2.9c2.2-0.4,4.7,0,6.2,1.6c1.5,1.6,1.8,4.5,0.1,6c1.9-0.8,4.1-0.9,6.1-0.4"/>
		<path fill="none" stroke="#FF7429" stroke-width="0.4405" stroke-miterlimit="10" d="M-1361.4,230c-0.7-0.2-1.3-0.5-2-0.8
			c-2.9,1.2-6.3,1-9.1-0.5c-1-0.5-2-1.3-2.2-2.4c-0.2-1.1,0.9-2.5,1.9-2.1c-1-0.7-2.6-0.2-3.4-1.1c-0.9-1,0.1-2.4,1.2-3.2"/>
		<path fill="none" stroke="#FF7429" stroke-width="0.4405" stroke-miterlimit="10" d="M-1346,227.5c-0.4-0.2-0.7-0.4-0.9-0.9
			C-1346.4,226.6-1346.1,227-1346,227.5z"/>
		<path fill="none" stroke="#FF7429" stroke-width="0.4405" stroke-miterlimit="10" d="M-1345.1,203.4c0.8,1.6,0.7,3.8-0.7,5
			c2.4-1,5.2-0.9,7.5,0.2c0.7,0.3,1.4,0.8,1.7,1.5c0.3,0.7,0.2,1.7-0.6,2c2.3-0.9,5.1,0.9,5.5,3.3c0.3,1.4-0.2,2.8-1.1,4
			c-0.6,0.8-1.5,1.4-2.4,1.8c1.1,0.5,1.1,2.2,0.4,3.1c-0.7,0.9-1.9,1.4-3.1,1.7c-1.5,0.5-3,1-4.5,1.4c-1.1,0.4-2.6,0.6-3.6,0.2"/>
		<path fill="none" stroke="#FF7429" stroke-width="0.4405" stroke-miterlimit="10" d="M-1374.2,219.9c-0.3,0.2-0.5,0.1-0.8,0
			c-0.3-0.2-0.6-0.6-0.8-1c-1.1-2.3-1.6-5.2-0.2-7.4c1.3-2.2,5.1-2.7,6.4-0.5c-0.9-2.6,1.8-5.7,4.5-5.1c1.2-2.5,4.6-3.6,7-2.3
			c1.9-1.2,3.8-2.4,6-2.9c1.3-0.3,2.8-0.2,4,0.2"/>
		<path fill="none" stroke="#FF7429" stroke-width="0.4405" stroke-miterlimit="10" d="M-1342.2,193.1c-0.5,1.6-0.5,3.4-1.4,4.8
			c-1,1.5-2.9,2.1-4.5,3"/>
		<path fill="none" stroke="#FF7429" stroke-width="0.4405" stroke-miterlimit="10" d="M-1306.1,161.9c-4.4,2.1-8.3,5.5-11,9.5"/>
		<path fill="none" stroke="#FF7429" stroke-width="0.4405" stroke-miterlimit="10" d="M-1241.8,131.9c-3,0.3-6,1.3-8.6,3"/>
		<path fill="none" stroke="#FF7429" stroke-width="0.4405" stroke-miterlimit="10" d="M-1316.2,189.7c9.7,1.3,18.8,8.1,21.5,17.6
			c-0.5,0.5-1.4,0.6-2.2,0.6c-9.4-0.3-17.3-7.1-23.2-14.5c-0.5-0.7-1.1-1.4-1.3-2.2"/>
		<path fill="none" stroke="#FF7429" stroke-width="0.4405" stroke-miterlimit="10" d="M-1309.9,182.5L-1309.9,182.5
			c0.1,0.7,0.3,1.4,0.6,2c1.9,4.9,6.7,8,11.4,10.2c3.6,1.7,7.3,3.1,11.1,4.2c1.3-10.6,2.5-21.7-0.4-31.9"/>
		<path fill="none" stroke="#FF7429" stroke-width="0.4405" stroke-miterlimit="10" d="M-1312.1,175.4c0.4-0.8,1-1.5,1.8-2
			c1.8-1,4.6-0.2,5.1,1.8c0.5-0.8,0-1.7-0.2-2.6c-0.2-1.3,0.8-2.7,2.1-3.1c1.3-0.3,2.8,0.4,3.3,1.7c-0.2-1.4,0.2-2.9,0.9-4.1"/>
		<path fill="none" stroke="#FF7429" stroke-width="0.4405" stroke-miterlimit="10" d="M-1281.8,168.7c0,4.3-0.5,8.5-0.4,12.8
			c0.1,5.8,1.4,12,5.8,15.8c0.7-2,1.4-4,2.2-6c1.7-4.8,3.5-9.6,4.1-14.6c0.3-2.6,0.3-5.4-0.2-8"/>
		<path fill="none" stroke="#FF7429" stroke-width="0.6722" stroke-miterlimit="10" d="M-1261.4,164.1c1.6,7.4,5.1,14.3,10,20
			c0.7-3.3,0.6-6.8,0.4-10.1c-0.2-3.9-0.4-8-1.5-11.7"/>
		<path fill="none" stroke="#FF7429" stroke-width="0.4405" stroke-miterlimit="10" d="M-1325.9,193.4c0.8,0.7,1.6,1.4,2.3,2.1
			c4.7,4.8,6.3,12.4,4,18.7c-0.3,0.8-0.7,1.7-1.2,2.4c-2.1,2.8-6.2,3.3-9.7,3c-0.7-0.1-1.4-0.1-2.2-0.3"/>
		<path fill="none" stroke="#FF7429" stroke-width="0.4405" stroke-miterlimit="10" d="M-1335.7,199c-0.7-0.7-1.3-1.6-1.6-2.5
			c-0.3-0.9-0.3-1.8,0-2.6"/>
		<path fill="none" stroke="#FF7429" stroke-width="0.4405" stroke-miterlimit="10" d="M-1335.7,199c0.4,0.3,0.8,0.7,1.2,1.1
			C-1334.9,199.8-1335.3,199.4-1335.7,199z"/>
		<path fill="none" stroke="#FF7429" stroke-width="0.4405" stroke-miterlimit="10" d="M-1338.5,203.6c-0.7-0.5-1.4-1-2-1.6
			c-0.5-0.4-0.9-0.9-1.1-1.5c-0.4-1.6,1.4-3.1,3.1-2.9c1.1,0.1,2.1,0.7,2.9,1.4"/>
		<path fill="none" stroke="#FF7429" stroke-width="0.4405" stroke-miterlimit="10" d="M-1338.5,203.6c0.7,0.4,1.4,0.8,2.2,1.3
			C-1337.1,204.5-1337.8,204.1-1338.5,203.6z"/>
		<path fill="none" stroke="#FF7429" stroke-width="0.4405" stroke-miterlimit="10" d="M-1338.5,203.6
			C-1338.5,203.6-1338.5,203.6-1338.5,203.6"/>
		<path fill="none" stroke="#FF7429" stroke-width="0.4405" stroke-miterlimit="10" d="M-1345.1,203.4c0.8-0.5,1.8-0.8,2.8-0.8
			c1.3,0,2.6,0.5,3.8,1.1"/>
		<path fill="none" stroke="#FF7429" stroke-width="0.4405" stroke-miterlimit="10" d="M-1248.7,161.1c0.4,2.5,1,5,1.9,7.3
			c1.4,3.9,3.7,7.6,7.1,9.9c3.3-3.9,6.6-7.9,8.5-12.6c1.1-2.7,1.8-5.7,2.2-8.6c0.7-4.3,1-8.7,1-13"/>
		<path fill="none" stroke="#FF7429" stroke-width="0.4405" stroke-miterlimit="10" d="M-1223.2,143.9c-0.4,7.2-1.3,14.4,1.9,20.7
			c2.7-6.4,5.3-13.1,6.4-20"/>
		<path fill="none" stroke="#FF7429" stroke-width="0.4405" stroke-miterlimit="10" d="M-1243.7,152.5c0.3-0.4,0.8-0.6,1.3-0.6
			c0.8,0,1.6,0.4,2.1,1c0.8,1,0.9,2.4,1,3.7c-0.3-3.6,0-7.2,1-10.6c0.1-0.4,0.3-0.9,0.6-1.2c0.6-0.5,1.6-0.3,2.2,0.4
			s0.7,1.4,0.8,2.2c0-1.6,0.7-3.2,1.8-4.4"/>
		<path fill="none" stroke="#FF7429" stroke-width="0.4405" stroke-miterlimit="10" d="M-1129.8,212.8c3.6,5.3,8.7,11.9,12,15
			c4.6,4.3,9.9,7.8,15.1,11.3c7.7,5.2,15.6,10.5,24.2,13.9c-17.7-9.6-29.8-27.2-38-45.6c-4.2,3.6-11.3,2.7-14.5-1.8
			C-1131,208.1-1130.6,210.5-1129.8,212.8z"/>
		<path fill="none" stroke="#FF7429" stroke-width="0.4405" stroke-miterlimit="10" d="M-1110.3,207c6.7,16.5,18.6,30.4,31.4,42.7
			c-9.9-14.5-14-32.1-17.9-49.2c-1.1,0.9-2.4,1.4-3.8,1.4c-0.4,1.7-2.7,2.4-4.3,1.7c-1.6-0.7-2.7-2.2-3.6-3.7
			C-1108.1,202.4-1108.8,205-1110.3,207z"/>
		<path fill="none" stroke="#FF7429" stroke-width="0.4405" stroke-miterlimit="10" d="M-1081.5,232.8c-0.3-1.9-0.8-3.9-1.2-5.8
			c-1.8-9-2.4-18.2-1.8-27.4c0.2,0.9,0.7,1.6,1.5,2.1c0.7-0.9,1.3-1.8,2-2.8c2,7.3,1.2,15.1,1.1,22.7c-0.1,7.6,0.5,15.2,1.9,22.7
			C-1079,240.4-1080.2,236.6-1081.5,232.8z"/>
		<path fill="none" stroke="#FF7429" stroke-width="0.4405" stroke-miterlimit="10" d="M-1006,218.7c0.1,3.8,0.2,7.5,0.4,11.3
			c0,1-0.1,2.3-1,2.7c-0.4,0.2-0.9,0.1-1.4,0.1c-7-0.8-14.1-0.5-21,0.9C-1023.4,231.1-1012.4,223.5-1006,218.7z"/>
		<path fill="none" stroke="#FF7429" stroke-width="0.4405" stroke-miterlimit="10" d="M-1044.4,230.3c0.2-0.2,0.3-0.4,0.5-0.7
			c0.1-0.2,0.2-0.3,0.3-0.5"/>
		<path fill="none" stroke="#FF7429" stroke-width="0.4405" stroke-miterlimit="10" d="M-1045.9,231.2c0.5-0.3,1-0.6,1.6-0.9
			c0,0,0,0,0,0c9.5-5.4,18.9-11.1,27.9-17.2c2-1.4,4.1-2.8,6-4.4c2.2-1.9,4.2-4.1,5.9-6.6c-2-1.8-3.8-3.7-5.5-5.8
			c-7.6,12.3-18,22.9-30.1,30.8c-1.3,0.8-2.5,1.6-3.7,2.4C-1044.6,230.2-1045.3,230.7-1045.9,231.2"/>
		<path fill="none" stroke="#FF7429" stroke-width="1.2135" stroke-miterlimit="10" d="M-1207.8,145.7c0,0.1-0.1,0.1-0.1,0.2
			c-2.4,5.6-4.3,11.4-5.5,17.3c6.2-3.4,10.8-9.6,12.2-16.5c0.1-0.3,0.1-0.7,0.2-1"/>
		<path fill="none" stroke="#FF7429" stroke-width="1.2135" stroke-miterlimit="10" d="M-1197.2,145c-1.9,5.8-1.4,12.4,1.4,17.9
			c4.8-6.6,7.8-14.4,8.8-22.5"/>
		<path fill="none" stroke="#FF7429" stroke-width="1.2135" stroke-miterlimit="10" d="M-1181.1,138.9c-0.2,4,0,8,0.7,11.9
			c3-4,4.8-8.8,5.2-13.8"/>
		<path fill="none" stroke="#FF7429" stroke-width="0.5" stroke-linecap="round" stroke-linejoin="round" d="M-1077.5,145.2
			c0.1,0.6,0.1,1.3-0.2,1.8c-0.7,1.6-2.5,2.5-4.1,3.2c-11.8,4.8-25.6,4.4-37.1-1c-7,2.8-15.1,2.4-21.8-1.1c-2.4-1.3-4.8-3.2-5.3-5.8
			"/>
		<path fill="none" stroke="#FF7429" stroke-width="0.5" stroke-linecap="round" stroke-linejoin="round" d="M-1043.3,116.2
			c1,5.3-2.4,10.9-7.3,13.3c-0.3,0.2-0.7,0.3-1,0.4c0.5,0.3,1,0.6,1.3,1.1c1.3,1.7,1,4.5-0.4,6.3c-1.8,2.2-4.6,3.2-7.4,4.1
			c-3.6,1.2-7.2,2.3-10.8,3.4c-2.7,0.9-6.2,1.5-8.6,0.4c-0.4-0.2-0.7-0.4-1.1-0.6"/>
	</g>
</g>
<polygon fill="#FF7429" stroke="#FF7429" stroke-width="0.25" stroke-miterlimit="10" points="-630.1,79.9 -814.4,79.9 
	-906.6,239.6 -814.4,399.2 -630.1,399.2 -537.9,239.6 "/>
<g id="XMLID_2_">
	<g>
		<path fill="#FF7429" d="M259.2,276.5c2.2-4.6,15.8,10.3,20.4-1.7c3.5-6.9-3.3-10.7-9.1-9.4c-4.1,2.4-9,6.6-11.3,2.7l0.1-27.2v-0.3
			c3.5-0.8,39.2-0.9,37.8-2.4c0.5-0.7,0.6-1.5,0.5-2.5l2.9-0.1c0,8.3,16.8,2.4,25.1,4.4h0.3c0,9.4,0.1,18.7,0.1,27.9h-0.4
			c0,7.8-16.5-8.6-20.4,4.6c-2.9,7.1,4.1,10.4,9.9,8.6c3.8-2.6,8.3-7.2,10.9-3.8c0,11.9,0,23.5,0,34.8c-3.4,0.7-28.1,0.5-30.1,2.5
			c-1,1-1.4,2.1-1.5,3.2l-2.6-0.1c0.7-9.4-22.8-2.1-32.6-4.5h-0.2L259.2,276.5z"/>
		<path fill="#FF7429" d="M258.9,436.7c0-9.2,15.7,9.6,20.8-3.5c3.5-6.9-3.3-10.7-9.1-9.4c-4.3,2.5-9.5,7.1-11.7,2c0,0,0,0,0,0
			l0.1-29.4c4.4-0.9,34.8-1.4,33.5-2.8c0.4-0.6,0.6-1.3,0.6-2.1l2.9-0.1c0.6,9,21,2.4,29.4,4.3h0.6c0,11.3-0.1,21.6-0.1,30.8h-0.2
			c0,7.8-16.5-8.6-20.4,4.6c-2.9,7.1,4.1,10.4,9.9,8.6c3.7-2.6,8-6.9,10.7-4.1c-0.1,17.6-0.2,30.1-0.3,36h-66.8L258.9,436.7
			L258.9,436.7z"/>
		<path fill="#FF7429" d="M305,222.9c0.1,1.1-0.1,2.3-0.9,3.7c-2.5,4.1-3.5,7.1-3.5,9.1l-2.9,0.1c-0.3-3.2-3-7.4-4-9.4
			C288.7,216.8,304.1,216.6,305,222.9z"/>
		<path fill="#FF7429" d="M299.4,381.9c-2.6,4.3-3.6,7.3-3.4,9.4l-2.9,0.1c0-1.1-0.4-2.3-0.9-3.5c-0.9-2.4-2.4-4.8-3.1-6.2
			C283.3,370.5,305.3,372.2,299.4,381.9z"/>
		<path fill="#FF7429" d="M287.7,326.4c2.8-3.9,4.1-6.7,4.2-8.8l2.6,0.1c-0.2,3.2,2.6,6.7,3.5,8.8c0.7,1.7,1,3,0.8,4.2
			c-0.7,6.5-13.5,4.3-12.4-1.9C286.7,328.1,287,327.3,287.7,326.4z"/>
		<path fill="#FF7429" d="M288.4,128.4c0,0.2,0,0.3,0,0.5l-2.5,0.3c-0.6-3-5.3-2.6-7.6-5.4C267.2,110.2,288.8,105.8,288.4,128.4z"/>
		<path fill="#FF7429" d="M259.6,172.1c0-7.4,16.9,8,20.2-5.2c2.7-7.2-4.5-10.3-10.2-8.2c-3.9,2.9-8.2,7.8-11,3.9
			c-0.5-3.3-1.2-7.5-2.3-12.2c5.6-4.8,28.8-11.1,29.6-20.1c0-0.4,0-0.8,0-1.1l2.5-0.3c0.9,6.3,23.6-13.1,30.7-11.8
			c2.3,8.8,4,18.4,5.1,28.7l-0.2,0c0.8,7.8-17.3-6.8-19.8,6.7c-2.2,7.4,5.2,10,10.7,7.5c3.4-2.9,7.2-7.7,10.2-5.2
			c0.3,4.9,0.5,9.9,0.6,15.1c0,1.1,0,2.2,0,3.4h-0.2c-4.1,4.4-32.3,0.9-28.5,10.4c1.8,4.5,6.3,5.4,6.4,10.6c0,6.7-7.6,8.1-10.9,1.8
			c-1.9-8.2,2.5-9.5,0.8-15.4c-5.6-3.9-28.4,5.9-33.5,1.4h-0.1l0-10H259.6z"/>
		<path fill="#FF7429" d="M277.1,45.5c6,6.5-18.3,34.1-19,36.1c-3.6,10.3,31.5,13.6,7.9,20.6c-1.5,0-2.5-0.5-3.2-1.3
			c-1.4-1.6-1.3-4.3-1.5-4.8c-8.7-20.2-15.1,11.2-23.8,11.6l-0.1,0.1c-3.2-4.2-6.9-8.2-11.2-11.7c0,0,0,0,0,0
			c-0.3-0.3-0.7-0.6-1-0.8c-4.6-4.8,18.1-4.6,11.3-16.7c-3-7.1-10.4-4.3-13,1.1c-0.9,5-0.6,12.1-6.2,10.2c-2.9-1.7-6-3.2-9.3-4.5
			l0.1-0.2c-1.5-9.7,15.1-42.1-10-29.5c-6.3-1.3-8.5-4.3-7.8-6.9c1.1-4,9.2-6.6,19.5,1.4c7.6,5.9,6.2-30.2,12.9-35.3l0-0.1
			c7.2,2.2,14.9,5.2,22.7,9l0,0c1.3,0.6,2.6,1.3,3.8,1.9l0,0c8.6,4.6-16.1,8.8-7.2,19.8c4.2,6.5,10.9,2.6,12.7-3.2
			c0-5-1.4-11.8,4.2-11.1c6.3,3.9,12.4,8.6,18.4,13.9L277.1,45.5z"/>
		<path fill="#FF7429" d="M276.3,124.1c4,2.4,10.1,4.5,8,8.4l-28.4,15.7c-1.1-4.4-2.5-9.3-4.4-14.3v0c-3.9-4.2-7.1,2-10.3,6
			c-5,3.4-12.7,2.3-11.9-5.4c0-13.2,18.9-3.5,18.4-9.4v0c-2.2-4.7-4.8-9.4-7.9-13.9l13.8-20.1l0,0c3.4-2.9,4.7,5.7,8.5,10.1
			c2,2.4,4.7,3.6,8.8,1.4c7.1-2.9,4.5-10.3-0.9-13c-5-1-12.2-2.2-10-8L282,49.9c7,7,13.6,15.2,19.5,24.7l0.2-0.1
			c4.2,4.5,7.2-2,10.3-6.1c4.8-3.6,12.6-2.7,12.1,5c0.4,12.4-16.5,5.2-18,9.1c4.9,9.2,9,19.6,12.2,31.2l-26.6,14.7
			c-5.2,0.6,1.1-18.8-11.7-16.9C272.2,111.8,272.2,119.7,276.3,124.1z"/>
		<path fill="#FF7429" d="M259.4,185.5l30.4-4.5v0c7.9-0.8-7,17.3,6.5,19.9c7.4,2.3,10-5.1,7.6-10.6c-3.1-3.7-8.1-7.7-4.6-10.7
			l26.2-3.8c0.1,8.8,0.1,17.6,0.2,26.3h0.2h0c2.2,5.8,7.4,0.8,11.8-1.9c5.8-1.6,12.7,2.1,9.4,9.1c-4.5,12.5-19.9-3.3-21.3,2.8
			c-0.2,0.6-0.2,1.4,0,2.6c0.1,7.8,0.1,15.5,0.1,23.1h-23.4c-2.1-2.1,4.1-9.5,3.2-15c-0.3-2.1-1.7-3.9-4.8-5.1
			c-6.9-3.4-10.7,3.4-9.2,9.3c2.3,3.8,6.3,8.3,3.5,10.8h-35.9l0-19.5H259c-1.7-5.9-7.3-1.4-11.9,0.9c-5.9,1.1-12.5-3.2-8.6-9.8
			c5.9-13,20.9,7.5,20.9-2.8v0L259.4,185.5z"/>
		<path fill="#FF7429" d="M287.1,315.3c7.2,0-0.3,7.1-1.5,13.4c-0.5,2.9,0.2,5.6,4.3,7.5c5.5,3.3,9.3-0.6,10-5.4
			c0.1-1,0.1-2.1-0.1-3.1c-2.3-4.6-6.8-10.7-0.8-12.4h27.2c0,10.6,0,21,0,30.8c2.3,5,7.4,0.3,11.6-2.3c5.8-1.5,12.7,2.1,9.4,9.1
			c-4.3,11.9-18.4-1.9-21,2.1c0,13.7-0.1,26.6-0.1,38.4h0h-24.6h-2.6c-6-1.5,10.2-16.5-2.3-21.1c-6.9-3.4-10.7,3.4-9.2,9.3
			c1.3,2.2,3.2,4.6,4,6.7c0.9,2.2,0.7,4-2.3,5.1H259l0.1-31.5H259c-1.7-5.9-7.3-1.4-11.9,0.9c-5.9,1.1-12.5-3.2-8.6-9.8
			c5.4-11.9,18.4,4.2,20.6-0.8v0l0.1-36.8H287.1z"/>
		<path fill="#FF7429" d="M198.6,56.9c4.8-1.7,11-5.5,11.9,0.6l0.5,0.1l-5.3,26.9c-5.7-2-12-3.3-19-3.8c-5,1.9-1.3,8,0.8,12.5
			c0.7,4.8-2,9.9-6.5,9.6c-4.4,0.3-7.1-4.8-6.4-9.6c2.1-4.5,5.8-10.6,0.8-12.5c-7,0.5-13.3,1.8-19,3.8L151,57.6l0.5-0.1
			c1-6.1,7.1-2.3,11.9-0.6c5.1,0.2,10.1-3.3,8.7-8.1c-0.3-0.9-0.7-1.8-1.5-2.8c-7.5-12-20.2,10.1-21.8,0.5h0l0,0L142.4,14
			C164.3,7.6,181,7.6,181,7.6s16.7,0,38.6,6.4l-6.4,32.5l0,0h0c-1.6,9.6-14.3-12.5-21.8-0.5c-0.8,1-1.2,1.9-1.5,2.8
			C188.5,53.6,193.5,57.1,198.6,56.9z"/>
		<path fill="#FF7429" d="M123.5,352.9c3.9,6.7-2.7,10.9-8.6,9.8c-4.6-2.3-10.2-6.8-11.9-0.9H103l0.1,31.5H73
			c-5.8-2.1-0.9-7.4,1.8-11.8c1.5-5.8-2.3-12.7-9.2-9.3c-4.4,1.6-5.2,4.6-4.7,7.7c0.9,5.8,6.3,12.4,2.4,13.4h-2.6H36h0
			c0-11.8-0.1-24.7-0.1-38.4c-2.5-4-16.7,9.9-21-2.1c-3.3-7,3.5-10.6,9.4-9.1c4.3,2.6,9.3,7.4,11.6,2.3c0-9.9,0-20.2,0-30.8h27.2
			c5.9,1.7,1.5,7.8-0.8,12.4c-1,5.9,3.3,12.5,9.9,8.5c3.9-1.8,4.8-4.3,4.3-7.1c-0.9-6.5-9-13.8-1.6-13.9h0h27.9l0.1,36.8v0
			C105.2,357.1,118.2,341,123.5,352.9z"/>
		<path fill="#FF7429" d="M112.8,25.9c1.3-0.7,2.6-1.3,3.8-1.9l0,0c7.7-3.8,15.3-6.7,22.4-8.9c6.7,5.1,5.3,41.2,12.9,35.3
			c10.2-7.9,18.4-5.3,19.5-1.4c0.7,2.5-1.5,5.6-7.8,6.9c-25.1-12.7-8.4,19.7-10,29.5l0.1,0.2c-3.2,1.3-6.2,2.7-9,4.4
			c-5.6,1.9-5.3-5.2-6.2-10.2c-2.7-5.4-10-8.2-13-1.1c-6.9,12.2,16.2,11.9,11.2,16.8c-0.3,0.2-0.5,0.4-0.8,0.6
			c-4.3,3.6-8.1,7.6-11.4,11.9l-0.3-0.2c-8.7-0.5-15.2-31.8-23.8-11.6c-0.3,0.7,0.2,6.1-4.7,6.1c-23.6-7,11.4-10.3,7.9-20.6
			c-0.7-2.1-25.3-30-18.9-36.2c0,0,0,0,0,0c5.9-5.4,12.1-10,18.4-13.9c5.6-0.8,4.2,6.1,4.2,11.1c1.7,5.8,8.5,9.7,12.7,3.2
			C128.8,34.7,104.2,30.6,112.8,25.9L112.8,25.9z"/>
		<path fill="#FF7429" d="M73.6,128.9c0-0.1,0-0.3,0-0.5c-0.4-22.6,21.2-18.3,10.1-4.6c-2.3,2.8-7,2.3-7.6,5.4L73.6,128.9z"/>
		<path fill="#FF7429" d="M58.1,190.4c-2.4,5.5,0.2,12.9,7.6,10.6c13.5-2.7-1.4-20.7,6.5-19.9v0l30.4,4.5l0,21h0
			c0,10.3,15.1-10.2,20.9,2.8c3.9,6.7-2.7,10.9-8.6,9.8c-4.6-2.3-10.2-6.8-11.9-0.9h0h-0.4l0,19.5H66.8c-2.8-2.5,1.2-7,3.5-10.8
			c1.5-5.8-2.3-12.7-9.2-9.3c-11.6,4.3,1.3,17.1-1.6,20.1H36.1c0-7.6,0.1-15.3,0.1-23c1.8-12.2-16.3,8.4-21.3-5.4
			c-3.3-7,3.6-10.7,9.4-9.1c4.4,2.7,9.6,7.6,11.8,1.9h0.2c0.1-8.7,0.1-17.4,0.2-26.3l26.2,3.8C66.2,182.7,61.1,186.8,58.1,190.4z"/>
		<path fill="#FF7429" d="M66.1,391.7c0.1-2.1-0.9-5.2-3.4-9.4c-0.5-0.9-0.8-1.7-1-2.4c-1.2-7.5,16.6-8,11.4,2.3
			c-1.1,2.1-4.4,6.5-4.6,9.7L66.1,391.7z"/>
		<path fill="#FF7429" d="M106.2,148.2l-28.4-15.7c-2.2-3.9,3.9-6,8-8.4c4.1-4.4,4.1-12.2-3.6-12.6c-12.8-1.9-6.5,17.5-11.7,16.9
			l-26.6-14.7c3.2-11.6,7.4-22,12.2-31.2c-1.5-3.9-18.4,3.3-18-9.1c-0.5-7.7,7.2-8.6,12.1-5c3.1,4.1,6.1,10.6,10.3,6.1l0.2,0.1
			C66.4,65,73,56.9,80,49.9l21.8,31.7c2.2,5.8-5,7-10,8c-5.4,2.8-8,10.1-0.8,13c11.9,6.4,12.1-15.9,17.3-11.5l13.8,20.1
			c-3.1,4.5-5.7,9.2-7.9,13.9c0,0,0,0,0,0c-0.5,5.9,18.4-3.8,18.5,9.4c0.8,7.7-6.9,8.8-11.9,5.4c-3.2-3.9-6.3-10.2-10.3-6v0
			C108.7,138.9,107.3,143.8,106.2,148.2z"/>
		<path fill="#FF7429" d="M82.3,274.8c4.7,12,18.3-2.8,20.5,1.7l0,0l0.1,34.2h-0.1c-9.2,8.5-43.7-8.8-27.6,17.1
			c0.3,0.5,0.5,1,0.6,1.5c0.8,5.6-13.5,9.1-12.1-1.6c1.1-0.8,6.4-11.9,3.4-12.7c-7.9-4.3-27.5,2.7-31-5h0c0-10.6,0-21.5,0-32.8
			c2.7-3.5,7.1,1.1,10.9,3.8c5.7,1.9,12.8-1.4,9.9-8.6c-3.9-13.2-20.4,3.2-20.4-4.6H36c0-8.5,0-17.1,0.1-25.8h0.6
			c8.7-8.6,33.9,8.4,21-16.9c-2.4-7.1,13.5-11,11.6,0.5c-1.1,0.7-6.9,11.6-3.8,12.5c7.7,4.6,34-2.9,37.3,4.8l0.1,25
			c-2.3,4-7.2-0.3-11.3-2.7C85.6,264,78.8,267.9,82.3,274.8z"/>
		<path fill="#FF7429" d="M36.3,396.3c8.4-2,29.2,4.5,29.8-4.6l2.3,0.1c-0.1,0.8,0.1,1.5,0.5,2c-1.3,1.4,29.3,2.1,34.1,3l0.1,29
			c0,0,0,0,0,0c-2.2,5.2-7.3,0.5-11.7-2c-5.9-1.4-12.7,2.5-9.1,9.4c5.1,13.1,20.8-5.7,20.8,3.5h0.1l0.1,34.8H36.5
			c-0.1-5.9-0.2-18.4-0.3-36c2.7-2.9,7,1.5,10.7,4.1c5.7,1.9,12.8-1.4,9.9-8.6c-3.9-13.2-20.4,3.2-20.4-4.6h-0.2
			c0-9-0.1-19.1-0.1-30.1H36.3z"/>
		<path fill="#FF7429" d="M42.9,117.1c7.1-1.4,29.8,18.1,30.7,11.8l2.5,0.3c-0.1,0.3-0.1,0.7,0,1.1c0.9,9,24,15.4,29.6,20.1
			c-1.1,4.7-1.8,8.9-2.3,12.2c-2.8,3.9-7.2-1-11-3.9c-5.7-2.1-12.9,1-10.2,8.2c3.4,13.2,20.2-2.2,20.2,5.2h0.1l0,10h-0.2
			c-5,4.5-27.8-5.2-33.5-1.4c-1.7,5.9,2.7,7.2,0.8,15.4c-3.3,6.4-10.9,4.9-10.9-1.8c0.1-5.2,4.7-6.1,6.4-10.6
			c3.7-9.5-24.4-5.9-28.5-10.4h-0.2c0-1.1,0-2.2,0-3.4c0-5.2,0.2-10.3,0.6-15.1c3-2.5,6.8,2.2,10.2,5.2c5.5,2.4,12.9-0.1,10.7-7.5
			c-2.5-13.5-20.7,1.2-19.9-6.7l-0.2,0C38.9,135.5,40.7,126,42.9,117.1z"/>
	</g>
	<g>
		<path fill="none" stroke="#FF7429" stroke-width="0.25" stroke-miterlimit="10" d="M36.7,242.1c8.7-8.6,33.9,8.4,21-16.9
			c-2.4-7.1,13.5-11,11.6,0.5c-1.1,0.7-6.9,11.6-3.8,12.5c7.7,4.6,34-2.9,37.3,4.8c0,0,0,0.1,0.1,0.1"/>
		<path fill="none" stroke="#FF7429" stroke-width="0.25" stroke-miterlimit="10" d="M102.8,310.8c-9.2,8.5-43.7-8.8-27.6,17.1
			c0.3,0.5,0.5,1,0.6,1.5c0.8,5.6-13.5,9.1-12.1-1.6c1.1-0.8,6.4-11.9,3.4-12.7c-7.9-4.3-27.5,2.7-31-5"/>
		<line fill="none" stroke="#FF7429" stroke-width="1.3259" stroke-miterlimit="10" x1="102.6" y1="218.3" x2="103" y2="218.3"/>
		<line fill="none" stroke="#FF7429" stroke-width="1.0334" stroke-miterlimit="10" x1="148.8" y1="46.5" x2="148.9" y2="46.5"/>
		<line fill="none" stroke="#FF7429" stroke-width="1.3259" stroke-miterlimit="10" x1="103.2" y1="471.5" x2="36.5" y2="471.5"/>
		<polyline fill="none" stroke="#FF7429" stroke-width="1.3259" stroke-miterlimit="10" points="74.9,315.3 102.9,315.3 
			102.9,315.3 		"/>
		<line fill="none" stroke="#FF7429" stroke-width="1.3259" stroke-miterlimit="10" x1="35.9" y1="315.3" x2="63.1" y2="315.3"/>
		<polyline fill="none" stroke="#FF7429" stroke-width="1.3259" stroke-miterlimit="10" points="63.2,393.4 60.6,393.4 36,393.4 		
			"/>
		<line fill="none" stroke="#FF7429" stroke-width="1.3259" stroke-miterlimit="10" x1="103" y1="393.4" x2="73" y2="393.4"/>
		<line fill="none" stroke="#FF7429" stroke-width="1.3259" stroke-miterlimit="10" x1="102.9" y1="314.9" x2="102.9" y2="314.9"/>
		<line fill="none" stroke="#FF7429" stroke-width="1.3259" stroke-miterlimit="10" x1="62.7" y1="179.7" x2="36.5" y2="175.9"/>
		<line fill="none" stroke="#FF7429" stroke-width="1.3259" stroke-miterlimit="10" x1="102.6" y1="185.5" x2="72.2" y2="181.1"/>
		<line fill="none" stroke="#FF7429" stroke-width="0.25" stroke-miterlimit="10" x1="84.7" y1="45.4" x2="85" y2="45.7"/>
		<line fill="none" stroke="#FF7429" stroke-width="1.3259" stroke-miterlimit="10" x1="83.2" y1="46.9" x2="83.6" y2="46.4"/>
		<line fill="none" stroke="#FF7429" stroke-width="1.3259" stroke-miterlimit="10" x1="70.4" y1="128.4" x2="43.8" y2="113.8"/>
		<line fill="none" stroke="#FF7429" stroke-width="1.3259" stroke-miterlimit="10" x1="106.2" y1="148.2" x2="77.7" y2="132.5"/>
		<line fill="none" stroke="#FF7429" stroke-width="1.3259" stroke-miterlimit="10" x1="59.5" y1="237.8" x2="36.1" y2="237.8"/>
		<polyline fill="none" stroke="#FF7429" stroke-width="1.3259" stroke-miterlimit="10" points="102.7,237.8 102.7,237.8 
			66.8,237.8 		"/>
		<line fill="none" stroke="#FF7429" stroke-width="1.3259" stroke-miterlimit="10" x1="116.6" y1="24" x2="116.6" y2="24"/>
		<line fill="none" stroke="#FF7429" stroke-width="1.3259" stroke-miterlimit="10" x1="82.8" y1="47.2" x2="83.2" y2="46.9"/>
		<line fill="none" stroke="#FF7429" stroke-width="1.3259" stroke-miterlimit="10" x1="101.8" y1="81.6" x2="80" y2="49.9"/>
		<line fill="none" stroke="#FF7429" stroke-width="1.3259" stroke-miterlimit="10" x1="122.1" y1="111.2" x2="108.3" y2="91.1"/>
		<polyline fill="none" stroke="#FF7429" stroke-width="1.3259" stroke-miterlimit="10" points="148.8,46.5 142.4,14 142.4,14 		"/>
		<line fill="none" stroke="#FF7429" stroke-width="1.3259" stroke-miterlimit="10" x1="156.3" y1="84.5" x2="151" y2="57.6"/>
		<path fill="none" stroke="#FF7429" stroke-width="1.3259" stroke-miterlimit="10" d="M156.3,84.5c5.7-2,12-3.3,19-3.8"/>
		<path fill="none" stroke="#FF7429" stroke-width="1.0334" stroke-miterlimit="10" d="M144.7,89.8c2.8-1.7,5.8-3.1,9-4.4
			c0.8-0.3,1.7-0.7,2.6-0.9"/>
		<path fill="none" stroke="#FF7429" stroke-width="1.3259" stroke-miterlimit="10" d="M114.2,125.1c2.2-4.7,4.8-9.4,7.9-13.9
			c0.8-1.1,1.5-2.2,2.4-3.2c3.3-4.3,7.1-8.3,11.4-11.9c0.3-0.2,0.5-0.4,0.8-0.6c0.2-0.2,0.4-0.4,0.7-0.5"/>
		<path fill="none" stroke="#FF7429" stroke-width="1.3259" stroke-miterlimit="10" d="M113.7,126.3L113.7,126.3
			c0.2-0.4,0.4-0.8,0.6-1.2"/>
		<path fill="none" stroke="#FF7429" stroke-width="1.0334" stroke-miterlimit="10" d="M106.2,148.2c1.1-4.4,2.5-9.3,4.4-14.3"/>
		<path fill="none" stroke="#FF7429" stroke-width="1.3259" stroke-miterlimit="10" d="M103.4,162.6c0.5-3.3,1.2-7.5,2.3-12.2
			c0.2-0.7,0.3-1.4,0.5-2.2"/>
		<polyline fill="none" stroke="#FF7429" stroke-width="1.3259" stroke-miterlimit="10" points="102.6,206.6 102.6,185.5 
			102.6,182.1 102.5,172.1 		"/>
		<polyline fill="none" stroke="#FF7429" stroke-width="1.3259" stroke-miterlimit="10" points="102.8,268.1 102.7,243.1 
			102.7,237.8 102.6,218.3 		"/>
		<polyline fill="none" stroke="#FF7429" stroke-width="1.3259" stroke-miterlimit="10" points="102.9,352.1 102.9,315.3 
			102.9,314.9 102.9,310.8 102.8,276.5 		"/>
		<polyline fill="none" stroke="#FF7429" stroke-width="1.3259" stroke-miterlimit="10" points="103.1,425.8 103.1,396.8 103,393.4 
			103,361.8 		"/>
		<line fill="none" stroke="#FF7429" stroke-width="1.3259" stroke-miterlimit="10" x1="103.2" y1="471.5" x2="103.1" y2="436.7"/>
		<path fill="none" stroke="#FF7429" stroke-width="1.3259" stroke-miterlimit="10" d="M36.2,435.5c0.1,17.6,0.2,30.1,0.3,36"/>
		<path fill="none" stroke="#FF7429" stroke-width="1.3259" stroke-miterlimit="10" d="M35.9,355c0,13.7,0.1,26.6,0.1,38.4
			c0,1,0,1.9,0,2.9c0,11,0.1,21.1,0.1,30.1"/>
		<path fill="none" stroke="#FF7429" stroke-width="1.3259" stroke-miterlimit="10" d="M35.9,277.3c0,11.2,0,22.1,0,32.8
			c0,1.8,0,3.5,0,5.2c0,10.6,0,21,0,30.8"/>
		<path fill="none" stroke="#FF7429" stroke-width="1.3259" stroke-miterlimit="10" d="M36.2,212.2c0,0.9,0,1.7,0,2.6
			c0,7.8-0.1,15.4-0.1,23c0,1.4,0,2.9,0,4.3c0,8.7-0.1,17.3-0.1,25.8"/>
		<path fill="none" stroke="#FF7429" stroke-width="1.3259" stroke-miterlimit="10" d="M37.1,154.9c-0.3,4.9-0.5,9.9-0.6,15.1
			c0,1.1,0,2.2,0,3.4c0,0.9,0,1.7,0,2.5c-0.1,8.8-0.1,17.6-0.2,26.3"/>
		<path fill="none" stroke="#FF7429" stroke-width="1.3259" stroke-miterlimit="10" d="M56,82.5c-4.9,9.2-9,19.6-12.2,31.2
			c-0.3,1.1-0.6,2.2-0.9,3.4c-2.3,8.8-4,18.4-5.1,28.7"/>
		<path fill="none" stroke="#FF7429" stroke-width="1.3259" stroke-miterlimit="10" d="M84.7,45.4c-0.4,0.3-0.7,0.6-1.1,1
			c-0.3,0.2-0.5,0.5-0.8,0.7C81.9,48,81,49,80,49.9c-7,7-13.6,15.1-19.5,24.7"/>
		<path fill="none" stroke="#FF7429" stroke-width="1.3259" stroke-miterlimit="10" d="M103.1,31.5c-6.3,3.9-12.4,8.6-18.4,13.9"/>
		<path fill="none" stroke="#FF7429" stroke-width="1.3259" stroke-miterlimit="10" d="M181,7.6c0,0-16.6,0-38.5,6.4
			c-1.1,0.3-2.2,0.7-3.4,1c-7.1,2.2-14.7,5.1-22.4,8.9l0,0c-1.3,0.6-2.6,1.3-3.8,1.9"/>
		<path fill="none" stroke="#FF7429" stroke-width="1.0334" stroke-miterlimit="10" d="M67.7,127.1c1.2,0.8,2,1.3,2.7,1.3
			c5.2,0.6-1.1-18.8,11.7-16.9c7.7,0.3,7.7,8.1,3.6,12.6c-4.1,2.4-10.1,4.5-8,8.4"/>
		<path fill="none" stroke="#FF7429" stroke-width="1.0334" stroke-miterlimit="10" d="M59.5,237.8c2.9-2.9-10-15.8,1.6-20.1
			c6.9-3.4,10.7,3.4,9.2,9.3c-2.3,3.8-6.3,8.3-3.5,10.8"/>
		<path fill="none" stroke="#FF7429" stroke-width="1.0334" stroke-miterlimit="10" d="M148.7,45.3c0,0.4,0.1,0.8,0.1,1.1h0
			c1.6,9.6,14.3-12.5,21.8-0.5c0.8,1,1.2,1.9,1.5,2.8c1.4,4.8-3.7,8.3-8.7,8.1c-4.8-1.7-11-5.5-11.9,0.6v0"/>
		<path fill="none" stroke="#FF7429" stroke-width="1.0334" stroke-miterlimit="10" d="M113.8,25.5c-0.4,0.2-0.7,0.3-1,0.5
			c-8.5,4.6,16.1,8.8,7.2,19.8c-4.2,6.5-10.9,2.6-12.7-3.2c0-5,1.4-11.8-4.2-11.1c-0.1,0-0.3,0-0.4,0.1"/>
		<path fill="none" stroke="#FF7429" stroke-width="1.0334" stroke-miterlimit="10" d="M38.5,143.9c-0.2,0.7-0.4,1.4-0.4,1.9
			c-0.8,7.8,17.3-6.8,19.9,6.7c2.2,7.4-5.2,10-10.7,7.5c-3.4-2.9-7.2-7.7-10.2-5.2"/>
		<path fill="none" stroke="#FF7429" stroke-width="1.0334" stroke-miterlimit="10" d="M36.6,266c-0.2,0.8-0.2,1.4-0.2,1.9
			c0,7.8,16.5-8.6,20.4,4.6c3,7.1-4.1,10.4-9.9,8.6c-3.8-2.6-8.3-7.2-10.9-3.8"/>
		<path fill="none" stroke="#FF7429" stroke-width="1.0334" stroke-miterlimit="10" d="M135.8,96.1c0.1,0,0.1-0.1,0.1-0.1
			c0.3-0.2,0.6-0.4,0.8-0.6c5.1-4.9-18-4.6-11.2-16.8c3.1-7.1,10.4-4.3,13,1.1c0.8,5,0.6,12.1,6.2,10.2c0.1,0,0.1,0,0.2-0.1"/>
		<path fill="none" stroke="#FF7429" stroke-width="1.0334" stroke-miterlimit="10" d="M102.1,174.2c0.2-0.9,0.3-1.6,0.3-2.1
			c0-7.4-16.9,8-20.2-5.2c-2.7-7.2,4.5-10.3,10.2-8.2c3.8,2.9,8.2,7.8,11,3.9c0.2-0.3,0.4-0.6,0.6-0.9"/>
		<path fill="none" stroke="#FF7429" stroke-width="1.0334" stroke-miterlimit="10" d="M103,279.6c0.2-1.5,0.1-2.5-0.2-3.1
			c-2.2-4.6-15.8,10.3-20.5-1.7c-3.5-6.9,3.3-10.7,9.1-9.4c4.1,2.4,9,6.6,11.3,2.7c0.2-0.3,0.4-0.7,0.5-1.1"/>
		<path fill="none" stroke="#FF7429" stroke-width="1.0334" stroke-miterlimit="10" d="M36.3,426.4c0,7.8,16.5-8.6,20.4,4.6
			c3,7.1-4.1,10.4-9.9,8.6c-3.7-2.6-8-6.9-10.7-4.1"/>
		<path fill="none" stroke="#FF7429" stroke-width="1.3259" stroke-miterlimit="10" d="M103.1,425.8
			C103.1,425.8,103.1,425.8,103.1,425.8c0.1-0.1,0.1-0.3,0.2-0.4"/>
		<path fill="none" stroke="#FF7429" stroke-width="1.0334" stroke-miterlimit="10" d="M103,438.1c0.1-0.5,0.1-1,0.1-1.4
			c0-9.2-15.7,9.6-20.8-3.5c-3.5-6.9,3.3-10.7,9.1-9.4c4.3,2.5,9.5,7.1,11.7,2"/>
		<path fill="none" stroke="#FF7429" stroke-width="1.0334" stroke-miterlimit="10" d="M56,82.5c-1.5-3.9-18.4,3.3-18-9.1
			c-0.5-7.7,7.2-8.6,12.1-5c3.1,4.1,6.1,10.6,10.3,6.1"/>
		<path fill="none" stroke="#FF7429" stroke-width="1.0334" stroke-miterlimit="10" d="M36.2,214.8c1.8-12.2-16.3,8.4-21.3-5.4
			c-3.3-7,3.6-10.7,9.4-9.1c4.4,2.7,9.6,7.6,11.8,1.9"/>
		<path fill="none" stroke="#FF7429" stroke-width="1.0334" stroke-miterlimit="10" d="M74.1,181.5c-0.7-0.2-1.3-0.4-1.9-0.4
			c-7.9-0.8,7,17.3-6.5,19.9c-7.4,2.3-10-5.1-7.6-10.6c3-3.7,8.1-7.7,4.6-10.7"/>
		<path fill="none" stroke="#FF7429" stroke-width="1.0334" stroke-miterlimit="10" d="M60.6,393.4c1.2,0.2,2,0.2,2.6,0
			c3.9-1-1.5-7.6-2.4-13.4c-0.5-3.2,0.3-6.1,4.7-7.7c6.9-3.4,10.7,3.4,9.2,9.3c-2.6,4.4-7.5,9.7-1.8,11.8"/>
		<path fill="none" stroke="#FF7429" stroke-width="1.0334" stroke-miterlimit="10" d="M74.9,315.3c-7.4,0,0.7,7.4,1.6,13.9
			c0.4,2.7-0.5,5.3-4.3,7.1c-6.6,4-10.9-2.6-9.9-8.5c2.3-4.6,6.8-10.7,0.8-12.4"/>
		<line fill="none" stroke="#FF7429" stroke-width="1.3259" stroke-miterlimit="10" x1="74.9" y1="315.3" x2="74.9" y2="315.3"/>
		<path fill="none" stroke="#FF7429" stroke-width="1.0334" stroke-miterlimit="10" d="M75.8,315.3c-0.3,0-0.6,0-0.8,0"/>
		<path fill="none" stroke="#FF7429" stroke-width="1.0334" stroke-miterlimit="10" d="M109.8,92.9c-0.6-0.8-1-1.4-1.5-1.8
			c-5.3-4.4-5.5,17.9-17.3,11.5c-7.2-2.9-4.5-10.3,0.8-13c5-1,12.2-2.2,10-8"/>
		<path fill="none" stroke="#FF7429" stroke-width="1.0334" stroke-miterlimit="10" d="M114.2,125.1
			C114.2,125.1,114.2,125.1,114.2,125.1c-0.5,5.9,18.4-3.8,18.5,9.4c0.8,7.7-6.9,8.8-11.9,5.4c-3.2-3.9-6.3-10.2-10.3-6v0
			c-0.1,0.1-0.1,0.1-0.2,0.2"/>
		<path fill="none" stroke="#FF7429" stroke-width="1.0334" stroke-miterlimit="10" d="M102.7,205.6c0,0.3,0,0.6,0,0.9
			c0,10.3,15.1-10.2,20.9,2.8c3.9,6.7-2.7,10.9-8.6,9.8c-4.6-2.3-10.2-6.8-11.9-0.9"/>
		<path fill="none" stroke="#FF7429" stroke-width="1.0334" stroke-miterlimit="10" d="M35.9,355c-2.5-4-16.7,9.9-21-2.1
			c-3.3-7,3.5-10.6,9.4-9.1c4.3,2.6,9.3,7.4,11.6,2.3c0.1-0.1,0.1-0.3,0.2-0.5"/>
		<path fill="none" stroke="#FF7429" stroke-width="1.0334" stroke-miterlimit="10" d="M102.9,352.1c2.2,5,15.2-11.1,20.6,0.8
			c3.9,6.7-2.7,10.9-8.6,9.8c-4.6-2.3-10.2-6.8-11.9-0.9"/>
		<line fill="none" stroke="#FF7429" stroke-width="1.3259" stroke-miterlimit="10" x1="102.9" y1="352.1" x2="102.9" y2="352.1"/>
		<path fill="none" stroke="#FF7429" stroke-width="1.0334" stroke-miterlimit="10" d="M181.1,102.8c-0.1,0-0.1,0-0.2,0
			c-4.4,0.3-7.1-4.8-6.4-9.6c2.1-4.5,5.8-10.6,0.8-12.5c-0.2-0.1-0.4-0.1-0.7-0.2"/>
		<line fill="none" stroke="#FF7429" stroke-width="1.0334" stroke-miterlimit="10" x1="213.2" y1="46.5" x2="213.1" y2="46.5"/>
		<line fill="none" stroke="#FF7429" stroke-width="1.3259" stroke-miterlimit="10" x1="258.8" y1="471.5" x2="325.5" y2="471.5"/>
		<polyline fill="none" stroke="#FF7429" stroke-width="1.3259" stroke-miterlimit="10" points="287.1,315.3 259.1,315.3 
			259.1,315.3 		"/>
		<polyline fill="none" stroke="#FF7429" stroke-width="1.3259" stroke-miterlimit="10" points="326.1,315.3 326.1,315.3 
			298.9,315.3 		"/>
		<polyline fill="none" stroke="#FF7429" stroke-width="1.3259" stroke-miterlimit="10" points="298.8,393.4 301.4,393.4 326,393.4 
					"/>
		<line fill="none" stroke="#FF7429" stroke-width="1.3259" stroke-miterlimit="10" x1="259" y1="393.4" x2="289" y2="393.4"/>
		<line fill="none" stroke="#FF7429" stroke-width="1.3259" stroke-miterlimit="10" x1="259.1" y1="314.9" x2="259.1" y2="314.9"/>
		<line fill="none" stroke="#FF7429" stroke-width="1.3259" stroke-miterlimit="10" x1="299.3" y1="179.7" x2="325.5" y2="175.9"/>
		<line fill="none" stroke="#FF7429" stroke-width="1.3259" stroke-miterlimit="10" x1="259.4" y1="185.5" x2="289.8" y2="181.1"/>
		<polyline fill="none" stroke="#FF7429" stroke-width="1.3259" stroke-miterlimit="10" points="277.3,45.4 277.1,45.5 277,45.7 		
			"/>
		<line fill="none" stroke="#FF7429" stroke-width="1.3259" stroke-miterlimit="10" x1="278.8" y1="46.9" x2="278.4" y2="46.4"/>
		<line fill="none" stroke="#FF7429" stroke-width="1.3259" stroke-miterlimit="10" x1="291.6" y1="128.4" x2="318.2" y2="113.8"/>
		<line fill="none" stroke="#FF7429" stroke-width="1.3259" stroke-miterlimit="10" x1="255.8" y1="148.2" x2="284.3" y2="132.5"/>
		<line fill="none" stroke="#FF7429" stroke-width="1.3259" stroke-miterlimit="10" x1="302.5" y1="237.8" x2="325.9" y2="237.8"/>
		<polyline fill="none" stroke="#FF7429" stroke-width="1.3259" stroke-miterlimit="10" points="259.3,237.8 259.3,237.8 
			295.2,237.8 		"/>
		<line fill="none" stroke="#FF7429" stroke-width="1.3259" stroke-miterlimit="10" x1="245.4" y1="24" x2="245.4" y2="24"/>
		<line fill="none" stroke="#FF7429" stroke-width="1.3259" stroke-miterlimit="10" x1="279.2" y1="47.2" x2="278.8" y2="46.9"/>
		<line fill="none" stroke="#FF7429" stroke-width="1.3259" stroke-miterlimit="10" x1="260.2" y1="81.6" x2="282" y2="49.9"/>
		<line fill="none" stroke="#FF7429" stroke-width="1.0334" stroke-miterlimit="10" x1="239.9" y1="111.2" x2="253.7" y2="91.1"/>
		<polyline fill="none" stroke="#FF7429" stroke-width="1.3259" stroke-miterlimit="10" points="213.2,46.5 219.6,14 219.6,14 		"/>
		<line fill="none" stroke="#FF7429" stroke-width="1.3259" stroke-miterlimit="10" x1="205.7" y1="84.5" x2="211" y2="57.6"/>
		<path fill="none" stroke="#FF7429" stroke-width="1.3259" stroke-miterlimit="10" d="M205.7,84.5c-5.7-2-12-3.3-19-3.8"/>
		<path fill="none" stroke="#FF7429" stroke-width="1.0334" stroke-miterlimit="10" d="M217.3,89.8c-2.9-1.7-6-3.2-9.3-4.5
			c-0.8-0.3-1.5-0.6-2.3-0.8"/>
		<path fill="none" stroke="#FF7429" stroke-width="1.3259" stroke-miterlimit="10" d="M226.2,96.1c-0.3-0.3-0.7-0.6-1-0.8
			c-0.2-0.1-0.4-0.3-0.5-0.4"/>
		<path fill="none" stroke="#FF7429" stroke-width="1.3259" stroke-miterlimit="10" d="M247.8,125.1c-2.2-4.7-4.8-9.4-7.9-13.9
			c-0.8-1.1-1.6-2.3-2.5-3.4c-3.2-4.2-6.9-8.2-11.2-11.7"/>
		<path fill="none" stroke="#FF7429" stroke-width="1.3259" stroke-miterlimit="10" d="M248.3,126.3L248.3,126.3
			c-0.2-0.4-0.4-0.8-0.6-1.2"/>
		<path fill="none" stroke="#FF7429" stroke-width="1.0334" stroke-miterlimit="10" d="M255.8,148.2c-1.1-4.4-2.5-9.3-4.4-14.3"/>
		<path fill="none" stroke="#FF7429" stroke-width="1.3259" stroke-miterlimit="10" d="M258.6,162.6c-0.5-3.3-1.2-7.5-2.3-12.2
			c-0.2-0.7-0.3-1.4-0.5-2.2"/>
		<polyline fill="none" stroke="#FF7429" stroke-width="1.3259" stroke-miterlimit="10" points="259.4,206.5 259.4,185.5 
			259.4,182.1 259.5,172.1 		"/>
		<polyline fill="none" stroke="#FF7429" stroke-width="1.3259" stroke-miterlimit="10" points="259.2,268.1 259.3,240.9 
			259.3,240.7 259.3,237.8 259.4,218.3 		"/>
		<polyline fill="none" stroke="#FF7429" stroke-width="1.3259" stroke-miterlimit="10" points="259.1,352.1 259.1,315.3 
			259.1,314.9 259.1,313.2 259.2,276.5 		"/>
		<polyline fill="none" stroke="#FF7429" stroke-width="1.3259" stroke-miterlimit="10" points="258.9,425.8 258.9,396.4 259,393.4 
			259,361.8 		"/>
		<polyline fill="none" stroke="#FF7429" stroke-width="1.3259" stroke-miterlimit="10" points="258.8,471.5 258.9,436.7 
			258.9,436.7 		"/>
		<path fill="none" stroke="#FF7429" stroke-width="1.3259" stroke-miterlimit="10" d="M325.8,435.5c-0.1,17.6-0.2,30.1-0.3,36"/>
		<path fill="none" stroke="#FF7429" stroke-width="1.3259" stroke-miterlimit="10" d="M326.1,355c0,13.7-0.1,26.6-0.1,38.4
			c0,0.8,0,1.5,0,2.2c0,11.3-0.1,21.6-0.1,30.8"/>
		<path fill="none" stroke="#FF7429" stroke-width="1.3259" stroke-miterlimit="10" d="M326.1,277.3c0,11.9,0,23.5,0,34.8
			c0,1.1,0,2.2,0,3.2c0,10.6,0,21,0,30.8"/>
		<path fill="none" stroke="#FF7429" stroke-width="1.3259" stroke-miterlimit="10" d="M325.8,212.2c0,0.9,0,1.7,0,2.6
			c0.1,7.8,0.1,15.5,0.1,23.1c0,0.8,0,1.5,0,2.2c0,9.4,0.1,18.7,0.1,27.9"/>
		<path fill="none" stroke="#FF7429" stroke-width="1.3259" stroke-miterlimit="10" d="M324.9,154.9c0.3,4.9,0.5,9.9,0.6,15.1
			c0,1.1,0,2.2,0,3.4c0,0.9,0,1.7,0,2.5c0.1,8.8,0.1,17.6,0.2,26.3"/>
		<path fill="none" stroke="#FF7429" stroke-width="1.3259" stroke-miterlimit="10" d="M306,82.5c4.9,9.2,9,19.6,12.2,31.2
			c0.3,1.1,0.6,2.2,0.9,3.4c2.3,8.8,4,18.4,5.1,28.7"/>
		<path fill="none" stroke="#FF7429" stroke-width="1.3259" stroke-miterlimit="10" d="M258.9,31.5c6.3,3.9,12.4,8.6,18.4,13.9
			c0.4,0.3,0.7,0.7,1.1,1c0.3,0.2,0.5,0.5,0.8,0.7c0.9,0.9,1.9,1.8,2.8,2.7c7,7,13.6,15.2,19.5,24.7"/>
		<path fill="none" stroke="#FF7429" stroke-width="1.3259" stroke-miterlimit="10" d="M181,7.6c0,0,16.7,0,38.6,6.4
			c1,0.3,2.1,0.6,3.2,1c7.2,2.2,14.9,5.2,22.7,9l0,0c1.3,0.6,2.6,1.3,3.8,1.9"/>
		<path fill="none" stroke="#FF7429" stroke-width="1.0334" stroke-miterlimit="10" d="M294.3,127.1c-1.1,0.8-2,1.3-2.7,1.3
			c-5.2,0.6,1.1-18.8-11.7-16.9c-7.7,0.3-7.7,8.1-3.6,12.6c4,2.4,10.1,4.5,8,8.4"/>
		<path fill="none" stroke="#FF7429" stroke-width="1.0334" stroke-miterlimit="10" d="M302.5,237.8c-2.1-2.1,4.1-9.5,3.2-15
			c-0.3-2.1-1.7-3.9-4.8-5.1c-6.9-3.4-10.7,3.4-9.2,9.3c2.3,3.8,6.3,8.3,3.5,10.8"/>
		<path fill="none" stroke="#FF7429" stroke-width="1.0334" stroke-miterlimit="10" d="M213.3,45.3c0,0.4-0.1,0.8-0.1,1.1h0
			c-1.6,9.6-14.3-12.5-21.8-0.5c-0.8,1-1.2,1.9-1.5,2.8c-1.3,4.8,3.7,8.3,8.7,8.1c4.8-1.7,11-5.5,11.9,0.6v0"/>
		<path fill="none" stroke="#FF7429" stroke-width="1.0334" stroke-miterlimit="10" d="M248.2,25.5c0.4,0.2,0.7,0.3,1,0.5
			c8.6,4.6-16.1,8.8-7.2,19.8c4.2,6.5,10.9,2.6,12.7-3.2c0-5-1.4-11.8,4.2-11.1c0.1,0,0.3,0,0.4,0.1"/>
		<path fill="none" stroke="#FF7429" stroke-width="1.0334" stroke-miterlimit="10" d="M323.5,143.9c0.2,0.7,0.4,1.4,0.4,1.9
			c0.8,7.8-17.3-6.8-19.8,6.7c-2.2,7.4,5.2,10,10.7,7.5c3.4-2.9,7.2-7.7,10.2-5.2"/>
		<path fill="none" stroke="#FF7429" stroke-width="1.0334" stroke-miterlimit="10" d="M325.4,266c0.2,0.8,0.2,1.4,0.2,1.9
			c0,7.8-16.5-8.6-20.4,4.6c-2.9,7.1,4.1,10.4,9.9,8.6c3.8-2.6,8.3-7.2,10.9-3.8"/>
		<path fill="none" stroke="#FF7429" stroke-width="1.0334" stroke-miterlimit="10" d="M225.2,95.3c-4.6-4.8,18.1-4.6,11.3-16.7
			c-3-7.1-10.4-4.3-13,1.1c-0.9,5-0.6,12.1-6.2,10.2c-0.1,0-0.1,0-0.1-0.1"/>
		<path fill="none" stroke="#FF7429" stroke-width="1.3259" stroke-miterlimit="10" d="M226.2,96.1
			C226.2,96.1,226.2,96.1,226.2,96.1c-0.4-0.3-0.8-0.6-1-0.8"/>
		<path fill="none" stroke="#FF7429" stroke-width="1.0334" stroke-miterlimit="10" d="M259.9,174.2c-0.2-0.9-0.3-1.6-0.3-2.1
			c0-7.4,16.9,8,20.2-5.2c2.7-7.2-4.5-10.3-10.2-8.2c-3.9,2.9-8.2,7.8-11,3.9c-0.2-0.3-0.4-0.6-0.5-0.9"/>
		<path fill="none" stroke="#FF7429" stroke-width="1.0334" stroke-miterlimit="10" d="M259,279.6c-0.2-1.5-0.1-2.5,0.2-3.1
			c2.2-4.6,15.8,10.3,20.4-1.7c3.5-6.9-3.3-10.7-9.1-9.4c-4.1,2.4-9,6.6-11.3,2.7c-0.2-0.3-0.4-0.7-0.5-1.1"/>
		<path fill="none" stroke="#FF7429" stroke-width="1.0334" stroke-miterlimit="10" d="M325.7,426.4c0,7.8-16.5-8.6-20.4,4.6
			c-2.9,7.1,4.1,10.4,9.9,8.6c3.7-2.6,8-6.9,10.7-4.1"/>
		<path fill="none" stroke="#FF7429" stroke-width="1.3259" stroke-miterlimit="10" d="M258.9,425.8
			C258.9,425.8,258.9,425.8,258.9,425.8c-0.1-0.1-0.1-0.3-0.2-0.4"/>
		<path fill="none" stroke="#FF7429" stroke-width="1.0334" stroke-miterlimit="10" d="M259,438.1c-0.1-0.5-0.1-1-0.1-1.4
			c0-9.2,15.7,9.6,20.8-3.5c3.5-6.9-3.3-10.7-9.1-9.4c-4.3,2.5-9.5,7.1-11.7,2"/>
		<path fill="none" stroke="#FF7429" stroke-width="1.0334" stroke-miterlimit="10" d="M306,82.5c1.5-3.9,18.4,3.3,18-9.1
			c0.5-7.7-7.2-8.6-12.1-5c-3.1,4.1-6.1,10.6-10.3,6.1"/>
		<path fill="none" stroke="#FF7429" stroke-width="1.0334" stroke-miterlimit="10" d="M325.8,214.8
			C325.8,214.8,325.8,214.8,325.8,214.8c-0.2-1.2-0.2-2,0-2.6c1.4-6.1,16.8,9.7,21.3-2.8c3.4-7-3.5-10.7-9.4-9.1
			c-4.4,2.7-9.6,7.6-11.8,1.9"/>
		<path fill="none" stroke="#FF7429" stroke-width="1.0334" stroke-miterlimit="10" d="M287.9,181.5c0.7-0.2,1.3-0.4,1.9-0.4
			c7.9-0.8-7,17.3,6.5,19.9c7.4,2.3,10-5.1,7.6-10.6c-3.1-3.7-8.1-7.7-4.6-10.7"/>
		<path fill="none" stroke="#FF7429" stroke-width="1.0334" stroke-miterlimit="10" d="M301.4,393.4c-1.1,0.2-2,0.2-2.6,0
			c-6-1.5,10.2-16.5-2.3-21.1c-6.9-3.4-10.7,3.4-9.2,9.3c1.3,2.2,3.2,4.6,4,6.7c0.9,2.2,0.7,4-2.3,5.1"/>
		<path fill="none" stroke="#FF7429" stroke-width="1.0334" stroke-miterlimit="10" d="M286.2,315.3c0.3,0,0.6,0,0.8,0
			c7.2,0-0.3,7.1-1.5,13.4c-0.5,2.9,0.2,5.6,4.3,7.5c5.5,3.3,9.3-0.6,10-5.4c0.1-1,0.1-2.1-0.1-3.1c-2.3-4.6-6.8-10.7-0.8-12.4"/>
		<path fill="none" stroke="#FF7429" stroke-width="1.0334" stroke-miterlimit="10" d="M252.2,92.9c0.5-0.8,1-1.4,1.5-1.8l0,0
			c3.4-2.9,4.7,5.7,8.5,10.1c2,2.4,4.7,3.6,8.8,1.4c7.1-2.9,4.5-10.3-0.9-13c-5-1-12.2-2.2-10-8"/>
		<path fill="none" stroke="#FF7429" stroke-width="1.0334" stroke-miterlimit="10" d="M247.8,125.1c0.5,5.9-18.4-3.8-18.4,9.4
			c-0.8,7.7,6.9,8.8,11.9,5.4c3.2-3.9,6.4-10.2,10.3-6v0c0.1,0.1,0.1,0.1,0.2,0.2"/>
		<line fill="none" stroke="#FF7429" stroke-width="1.3259" stroke-miterlimit="10" x1="247.8" y1="125.1" x2="247.8" y2="125.1"/>
		<path fill="none" stroke="#FF7429" stroke-width="1.0334" stroke-miterlimit="10" d="M259.4,206.6c0,10.3-15.1-10.2-20.9,2.8
			c-3.9,6.7,2.7,10.9,8.6,9.8c4.6-2.3,10.2-6.8,11.9-0.9"/>
		<line fill="none" stroke="#FF7429" stroke-width="1.3259" stroke-miterlimit="10" x1="259.4" y1="206.5" x2="259.4" y2="206.6"/>
		<path fill="none" stroke="#FF7429" stroke-width="1.0334" stroke-miterlimit="10" d="M259.3,205.6c0,0.3,0,0.6,0,0.9"/>
		<path fill="none" stroke="#FF7429" stroke-width="1.0334" stroke-miterlimit="10" d="M326.1,355c2.6-4,16.7,9.9,21-2.1
			c3.4-7-3.5-10.6-9.4-9.1c-4.3,2.6-9.3,7.4-11.6,2.3c-0.1-0.1-0.1-0.3-0.2-0.5"/>
		<path fill="none" stroke="#FF7429" stroke-width="1.0334" stroke-miterlimit="10" d="M259.1,352.1c-2.2,5-15.2-11.1-20.6,0.8
			c-3.9,6.7,2.7,10.9,8.6,9.8c4.6-2.3,10.2-6.8,11.9-0.9"/>
		<line fill="none" stroke="#FF7429" stroke-width="1.3259" stroke-miterlimit="10" x1="259.1" y1="352.1" x2="259.1" y2="352.1"/>
		<path fill="none" stroke="#FF7429" stroke-width="1.0334" stroke-miterlimit="10" d="M180.8,102.8c0.1,0,0.1,0,0.2,0
			c4.5,0.3,7.2-4.8,6.5-9.6c-2.1-4.5-5.8-10.6-0.8-12.5c0.2-0.1,0.4-0.1,0.7-0.2"/>
		<path fill="none" stroke="#FF7429" stroke-width="0.25" stroke-miterlimit="10" d="M259.3,240.9c-0.4-0.1-0.4-0.2,0-0.3
			c3.5-0.8,39.2-0.9,37.8-2.4c0.5-0.7,0.6-1.5,0.5-2.5c-0.3-3.2-3-7.4-4-9.4c-4.9-9.6,10.5-9.8,11.3-3.6c0.1,1.1-0.1,2.3-0.9,3.7
			c-2.5,4.1-3.5,7.1-3.5,9.1c0,8.3,16.8,2.4,25.1,4.4"/>
		<path fill="none" stroke="#FF7429" stroke-width="0.25" stroke-miterlimit="10" d="M258.7,396.8c-0.5-0.1-0.4-0.3,0.2-0.4
			c4.4-0.9,34.8-1.4,33.5-2.8c0.4-0.6,0.6-1.3,0.6-2.1c0-1.1-0.4-2.3-0.9-3.5c-0.9-2.4-2.4-4.8-3.1-6.2c-5.7-11.3,16.3-9.6,10.4,0.2
			c-2.6,4.3-3.6,7.3-3.4,9.4c0.6,9,21,2.4,29.4,4.3"/>
		<path fill="none" stroke="#FF7429" stroke-width="0.25" stroke-miterlimit="10" d="M103.4,397.2c0.5-0.1,0.3-0.3-0.3-0.4
			c-4.8-0.9-35.4-1.6-34.1-3c-0.4-0.6-0.5-1.3-0.5-2c0.2-3.1,3.5-7.5,4.6-9.7c5.2-10.2-12.5-9.8-11.4-2.3c0.1,0.7,0.4,1.5,1,2.4
			c2.5,4.2,3.5,7.2,3.4,9.4c-0.6,9.1-21.4,2.6-29.8,4.6"/>
		<path fill="none" stroke="#FF7429" stroke-width="0.25" stroke-miterlimit="10" d="M326.1,311.7c0.5,0.1,0.5,0.2,0,0.3
			c-3.4,0.7-28.1,0.5-30.1,2.5c-1,1-1.4,2.1-1.5,3.2c-0.2,3.2,2.6,6.7,3.5,8.8c0.7,1.7,1,3,0.8,4.2c-0.7,6.5-13.5,4.3-12.4-1.9
			c0.1-0.8,0.5-1.6,1.1-2.5c2.8-3.9,4.1-6.7,4.2-8.8c0.7-9.4-22.8-2.1-32.6-4.5"/>
		<path fill="none" stroke="#FF7429" stroke-width="0.25" stroke-miterlimit="10" d="M42.9,117.1c7.1-1.4,29.8,18.1,30.7,11.8
			c0-0.1,0-0.3,0-0.5c-0.4-22.6,21.2-18.3,10.1-4.6c-2.3,2.8-7,2.3-7.6,5.4c-0.1,0.3-0.1,0.7,0,1.1c0.9,9,24,15.4,29.6,20.1"/>
		<path fill="none" stroke="#FF7429" stroke-width="0.25" stroke-miterlimit="10" d="M36.7,173.3c4.1,4.4,32.3,0.9,28.5,10.4
			c-1.8,4.5-6.3,5.4-6.4,10.6c0,6.7,7.6,8.1,10.9,1.8c1.9-8.2-2.5-9.5-0.8-15.4c5.7-3.9,28.5,5.9,33.5,1.4"/>
		<path fill="none" stroke="#FF7429" stroke-width="0.25" stroke-miterlimit="10" d="M319.1,117.1c-7.1-1.4-29.8,18.1-30.7,11.8
			c0-0.1,0-0.3,0-0.5c0.4-22.6-21.2-18.3-10.1-4.6c2.3,2.8,7,2.3,7.6,5.4c0.1,0.3,0.1,0.7,0,1.1c-0.9,9-24,15.4-29.6,20.1"/>
		<path fill="none" stroke="#FF7429" stroke-width="0.25" stroke-miterlimit="10" d="M325.3,173.3c-4.1,4.4-32.3,0.9-28.5,10.4
			c1.8,4.5,6.3,5.4,6.4,10.6c0,6.7-7.6,8.1-10.9,1.8c-1.9-8.2,2.5-9.5,0.8-15.4c-5.6-3.9-28.4,5.9-33.5,1.4"/>
		<path fill="none" stroke="#FF7429" stroke-width="0.25" stroke-miterlimit="10" d="M84.7,45.4C84.7,45.4,84.7,45.4,84.7,45.4
			c-6.4,6.3,18.2,34.2,18.9,36.2c3.6,10.3-31.5,13.6-7.9,20.6c4.8,0,4.4-5.4,4.7-6.1c8.7-20.2,15.1,11.2,23.8,11.6"/>
		<path fill="none" stroke="#FF7429" stroke-width="0.25" stroke-miterlimit="10" d="M139,15L139,15c6.7,5.1,5.3,41.2,12.9,35.3
			c10.2-7.9,18.4-5.3,19.5-1.4c0.7,2.5-1.5,5.6-7.8,6.9c-25.1-12.7-8.4,19.7-10,29.5"/>
		<path fill="none" stroke="#FF7429" stroke-width="0.25" stroke-miterlimit="10" d="M277,45.4c0,0,0.1,0.1,0.1,0.1
			c6,6.5-18.3,34.1-19,36.1c-3.6,10.3,31.5,13.6,7.9,20.6c-1.5,0-2.5-0.5-3.2-1.3c-1.4-1.6-1.3-4.3-1.5-4.8
			c-8.7-20.2-15.1,11.2-23.8,11.6"/>
		<path fill="none" stroke="#FF7429" stroke-width="0.25" stroke-miterlimit="10" d="M222.7,15c-6.7,5-5.3,41.2-12.9,35.3
			c-10.2-7.9-18.4-5.3-19.5-1.4c-0.7,2.5,1.5,5.6,7.8,6.9c25.1-12.7,8.4,19.7,10,29.5"/>
	</g>
</g>
</svg>
