<?xml version="1.0" encoding="utf-8"?>
<!-- Generator: Adobe Illustrator 24.1.3, SVG Export Plug-In . SVG Version: 6.00 Build 0)  -->
<svg version="1.1" id="Layer_1" xmlns="http://www.w3.org/2000/svg" xmlns:xlink="http://www.w3.org/1999/xlink" x="0px" y="0px"
	 viewBox="0 0 360 480" enable-background="new 0 0 360 480" xml:space="preserve">
<g id="XMLID_3_">
	<g>
		<path fill="#FF7429" d="M293.3,421.3c9.9,0,17.9,8,17.9,17.9V451h-275v-11.6c0-10,8.1-18,18.1-18h23.6h75.5H293.3z"/>
		<polygon fill="#FF7429" points="308.6,300.9 308.6,316.2 250,316.2 210.7,316.2 173.9,316.2 151.6,316.2 151.6,315 151.6,300.9 
			174.7,300.9 177.7,300.9 		"/>
		<path fill="#FF7429" d="M285.5,196.9l1.7,9.1l-1.3,0.3L217,223.1c0,0-1.8-8.1-1.9-8.9l22.9-5.6L285.5,196.9z"/>
		<path fill="#FF7429" d="M276.3,221.3l7.7,30.6c0,0-3.7,7.2-4,8.3c-0.2,0.7-7.5,2.2-12.7,3.1l-3.9-6.3l-5.9-31.4L276.3,221.3z"/>
		<polygon fill="#FF7429" points="276.3,221.3 257.4,225.7 255.2,226.2 253.6,217.4 275,212.4 276,216.7 277.1,221.1 		"/>
		<path fill="#FF7429" d="M259.9,257.8c0.4,0.2,5.4,5.9,5.4,5.9c-1.7,0.3-2.9,0.5-2.9,0.5l-8.5-4.8c0,0-6.4-27.3-7.2-31.2l4.9-1.1v0
			l2-0.5C253.9,228.4,259.9,257.8,259.9,257.8z"/>
		<rect x="210.7" y="316.2" fill="#FF7429" width="39.3" height="19.5"/>
		<polygon fill="#FF7429" points="245.1,225.7 243.7,219.7 249.9,218.3 251.6,227 251.6,227 246.7,228.2 245.7,228.4 		"/>
		<path fill="#FF7429" d="M198.8,190h3.4v27.5l4.5-1.1l-8.7,2.1l-0.1-28c0,0-7.6-0.8-8.4-2.3c-0.1-0.1-0.1-1.9-0.2-4.9
			c-0.5-15.4-1.2-63.6-1.6-87.6c-0.1-8.5-0.2-14-0.2-14l3.5-1.2l-1.1-56.8c0,0,22.1-10.1,44.7-1.4l2,57c0,0,4.4,0,5.1,2.4l0.2,107.1
			c0,0-2.2,0.4-3.9,0.7v0.4h-1.1c0,0-0.1,0-0.2,0.1c0,0,0,0,0,0c-2,0.4-26.5,1.1-29.2,1.2V190v-29.1V79h-7.5V24.3l-5.2,1v54.3h4.1
			V190z"/>
		<polygon fill="#FF7429" points="239.9,227.3 239.9,235 239.2,235 217.9,235 215.5,235 215.5,226.1 239.9,226.1 		"/>
		<path fill="#FF7429" d="M236.9,189.9h1.1v18.7l-22.9,5.6l-6,1.5l-1.7,0.4v-23.5l15.3-0.5l12.3-1c0,0,1.2-0.9,1.6-1.2c0,0,0,0,0,0
			C236.7,190,236.8,190,236.9,189.9C236.8,189.9,236.9,189.9,236.9,189.9z"/>
		<path fill="#FF7429" d="M196.8,367.6c1.2-5.8,16.2-7.6,33.5-4c17.3,3.6,30.3,11.3,29.1,17.1c0,0,0,0.2-0.1,0.4
			c-0.1,0.2-0.1,0.4-0.2,0.5c-2.6,5-16.9,6.4-33.1,3c-16.3-3.4-28.8-10.4-29.1-16.1C196.7,368.2,196.7,367.9,196.8,367.6z"/>
		<path fill="#FF7429" d="M220,274.2l-2.1-6.6V235h21.3l0.7,31.8c0,0-5.2,6.2-5.7,7.3c-0.4,0.8-10.8,0.4-15.6,0.1H220z"/>
		<path fill="#FF7429" d="M213.6,235v32.6l4.9,6.6c-1.5-0.1-2.4-0.1-2.4-0.1l-7.2-6.6c0,0-0.2-31.7,0-32.5h2.8H213.6z"/>
		<polygon fill="#FF7429" points="211.7,226.1 211.7,235 208.9,235 207.2,235 207.2,229 207.2,226.1 		"/>
		<polygon fill="#FF7429" points="243.7,219.7 245.1,225.7 239.9,227.3 239.9,226.1 215.5,226.1 211.7,226.1 207.2,226.1 
			207.1,225.5 211,224.6 217,223.1 285.9,206.3 278,215.8 276,216.7 275,212.4 253.6,217.4 249.9,218.3 		"/>
		<path fill="#FF7429" d="M207.4,216.1l1.7-0.4c0.1,0.4,1.8,8.8,1.8,8.8l-3.9,0.9l-8.5,2.1l-2-8.8l1.4-0.4l8.7-2.1L207.4,216.1z"/>
		<polygon fill="#FF7429" points="207.2,229 198.6,227.6 207.1,225.5 207.2,226.1 		"/>
		<path fill="#FF7429" d="M195,374.1c0.8-2.9,1.8-6.5,1.8-6.5c-0.1,0.3-0.1,0.7-0.1,1c-0.2,0.3-0.3,0.6-0.3,1
			c-1.2,5.8,11.8,13.5,29.1,17.1c16.2,3.4,30.4,2,33.1-3c-0.6,2.3-1.4,5.4-1.9,7c-0.2,0.6-0.3,0.9-0.3,1c-2.3,5.2-16.7,6.7-33.2,3.3
			c-14.6-3.1-26.2-9-28.6-14.3c-0.5-1-0.6-1.9-0.4-2.8C194.1,377.6,194.5,376,195,374.1z"/>
		<path fill="#FF7429" d="M175.2,374.1H195c-0.5,1.9-0.9,3.5-0.9,3.7c-0.2,0.9,0,1.8,0.4,2.8h-19.2L175.2,374.1z"/>
		<path fill="#FF7429" d="M172.6,177.7c6.6,0,11.9-5.3,11.9-11.9c0-6.6-5.3-11.9-11.9-11.9c-6.6,0-11.9,5.3-11.9,11.9
			C160.7,172.4,166,177.7,172.6,177.7z M150.2,118.3c0,9,7.3,16.3,16.3,16.3c9,0,16.3-7.3,16.3-16.3s-7.3-16.3-16.3-16.3
			C157.5,102,150.2,109.3,150.2,118.3z M139.3,100.7c0,0,38.6-5.6,48.4-5c0.4,24.1,1.1,72.2,1.6,87.6l-47.4,1.8
			c0,0-38.4,7.4-40.9,54.5s19.2,74.7,50.5,75.3h0.2v1.2h22.3l1.3,57.9l0.2,6.5l0.4,16.3c-0.7-0.4-9-1.5-20.8-5.3
			c-0.6-17.9-1.4-38.6-0.9-48.3c1.1-19.7-0.7-22.9-13.2-25.7c-12.5-2.8-19.7,11.3-19.7,11.3s-8.3,15.5-17.8,33.9
			c-22.3-19.8-41.6-51-44-100.3C54.8,171.7,122,119.2,124.5,116C127.1,112.8,139.3,100.7,139.3,100.7z"/>
		<polygon fill="#FF7429" points="179.1,289.6 179.1,298.3 177.7,298.3 174.7,298.3 173.2,298.3 173.2,289.6 		"/>
		<rect x="174.7" y="298.3" fill="#FF7429" width="3" height="2.5"/>
		<path fill="#FF7429" d="M166.5,123.7c-3.4,0-6.2-2.8-6.2-6.2c0-3.4,2.8-6.2,6.2-6.2c3.4,0,6.2,2.8,6.2,6.2
			C172.7,120.9,169.9,123.7,166.5,123.7z"/>
		<path fill="#FF7429" d="M137.6,345.9c5.6,0,10.2-4.5,10.2-10.1c0-5.6-4.5-10.2-10.2-10.2c-5.6,0-10.1,4.5-10.1,10.2
			C127.4,341.3,132,345.9,137.6,345.9z M139.9,320.2c11.8,2.7,12.8,4.7,11.8,23.9c-0.9,16.8,1.1,65.1,1.6,77.1H77.8
			c7.2-15.4,44.6-90.3,44.6-90.3S128.2,317.6,139.9,320.2z"/>
	</g>
	<g>
		<path fill="none" stroke="#FF7429" stroke-width="1.1022" stroke-miterlimit="10" d="M173.9,316.2l1.3,57.9l0.2,6.5l0.4,16.3
			c-0.7-0.4-9-1.5-20.8-5.3"/>
		<path fill="none" stroke="#FF7429" stroke-width="1.1022" stroke-miterlimit="10" d="M189.2,183.3l-47.4,1.8
			c0,0-38.4,7.4-40.9,54.5s19.2,74.7,50.5,75.3h0.2"/>
		<path fill="none" stroke="#FF7429" stroke-width="1.1022" stroke-miterlimit="10" d="M103.3,362.9c-22.3-19.8-41.6-51-44-100.3
			C54.8,171.7,122,119.2,124.5,116c2.6-3.2,14.7-15.4,14.7-15.4s38.6-5.6,48.4-5"/>
		<path fill="none" stroke="#FF7429" stroke-width="1.021" stroke-miterlimit="10" d="M182.8,118.3c0,9-7.3,16.3-16.3,16.3
			c-9,0-16.3-7.3-16.3-16.3s7.3-16.3,16.3-16.3C175.5,102,182.8,109.3,182.8,118.3z"/>
		<path fill="none" stroke="#FF7429" stroke-width="0.3869" stroke-miterlimit="10" d="M172.7,117.5c0,3.4-2.8,6.2-6.2,6.2
			c-3.4,0-6.2-2.8-6.2-6.2c0-3.4,2.8-6.2,6.2-6.2C169.9,111.3,172.7,114.1,172.7,117.5z"/>
		<circle fill="none" stroke="#FF7429" stroke-width="0.7437" stroke-miterlimit="10" cx="172.6" cy="165.8" r="11.9"/>
		<path fill="none" stroke="#FF7429" stroke-width="0.6353" stroke-miterlimit="10" d="M137.6,325.6c5.6,0,10.2,4.5,10.2,10.2
			c0,5.6-4.5,10.1-10.2,10.1c-5.6,0-10.1-4.5-10.1-10.1C127.4,330.1,132,325.6,137.6,325.6z"/>
		<path fill="none" stroke="#FF7429" stroke-width="0.3869" stroke-miterlimit="10" d="M77.8,421.3c7.2-15.4,44.6-90.3,44.6-90.3
			s5.7-13.5,17.5-10.8c11.8,2.7,12.8,4.7,11.8,23.9c-0.9,16.8,1.1,65.1,1.6,77.1"/>
		<path fill="none" stroke="#FF7429" stroke-width="0.6353" stroke-miterlimit="10" d="M198,218.5l-0.1-28c0,0-7.6-0.8-8.4-2.3
			c-0.1-0.1-0.1-1.9-0.2-4.9c-0.5-15.4-1.2-63.6-1.6-87.6c-0.1-8.5-0.2-14-0.2-14l3.5-1.2l-1.1-56.8c0,0,22.1-10.1,44.7-1.4l2,57
			c0,0,4.4,0,5.1,2.4l0.2,107.1c0,0-2.2,0.4-3.9,0.7v0.4v18.7"/>
		<polyline fill="none" stroke="#FF7429" stroke-width="0.6353" stroke-miterlimit="10" points="207.4,216.1 209.1,215.7 
			215.1,214.2 238,208.6 285.5,196.9 287.2,206 285.9,206.3 217,223.1 211,224.6 207.1,225.5 198.6,227.6 196.6,218.8 198,218.5 
			206.7,216.3 		"/>
		<polyline fill="none" stroke="#FF7429" stroke-width="0.6353" stroke-miterlimit="10" points="276,216.7 278,215.8 285.9,206.3 		
			"/>
		<line fill="none" stroke="#FF7429" stroke-width="0.6353" stroke-miterlimit="10" x1="239.9" y1="227.3" x2="245.1" y2="225.7"/>
		<line fill="none" stroke="#FF7429" stroke-width="0.6353" stroke-miterlimit="10" x1="198.6" y1="227.6" x2="207.2" y2="229"/>
		<polyline fill="none" stroke="#FF7429" stroke-width="0.6628" stroke-miterlimit="10" points="215.5,226.1 239.9,226.1 
			239.9,227.3 239.9,235 239.2,235 217.9,235 		"/>
		<polyline fill="none" stroke="#FF7429" stroke-width="0.6628" stroke-miterlimit="10" points="211.7,235 208.9,235 207.2,235 
			207.2,229 207.2,226.1 211.7,226.1 		"/>
		<polyline fill="none" stroke="#FF7429" stroke-width="0.6576" stroke-miterlimit="10" points="251.6,227 246.7,228.2 245.7,228.4 
			245.1,225.7 243.7,219.7 249.9,218.3 253.6,217.4 275,212.4 276,216.7 277.1,221.1 276.3,221.3 257.4,225.7 255.2,226.2 		"/>
		<polyline fill="none" stroke="#FF7429" stroke-width="0.6576" stroke-miterlimit="10" points="255.2,226.2 253.6,226.6 251.6,227 
					"/>
		<path fill="none" stroke="#FF7429" stroke-width="0.6353" stroke-miterlimit="10" d="M208.9,235c-0.2,0.9,0,32.5,0,32.5l7.2,6.6
			c0,0,1,0.1,2.4,0.1c4.8,0.2,15.2,0.7,15.6-0.1c0.5-1,5.7-7.3,5.7-7.3l-0.7-31.8"/>
		<path fill="none" stroke="#FF7429" stroke-width="0.6353" stroke-miterlimit="10" d="M267.3,263.4c5.1-0.9,12.5-2.4,12.7-3.1
			c0.3-1.1,4-8.3,4-8.3l-7.7-30.6l-0.1-0.3"/>
		<path fill="none" stroke="#FF7429" stroke-width="0.6353" stroke-miterlimit="10" d="M265.7,263.6c0.2,0,0.4-0.1,0.7-0.1"/>
		<path fill="none" stroke="#FF7429" stroke-width="0.6353" stroke-miterlimit="10" d="M246.7,227.7c0,0.1,0,0.2,0.1,0.5
			c0.8,4,7.2,31.2,7.2,31.2l8.5,4.8c0,0,1.2-0.2,2.9-0.5"/>
		<polygon fill="none" stroke="#FF7429" stroke-width="0.6353" stroke-miterlimit="10" points="177.7,300.9 308.6,300.9 
			308.6,316.2 250,316.2 210.7,316.2 173.9,316.2 151.6,316.2 151.6,315 151.6,300.9 174.7,300.9 		"/>
		<polyline fill="none" stroke="#FF7429" stroke-width="0.6353" stroke-miterlimit="10" points="250,316.2 250,335.7 210.7,335.7 
			210.7,316.2 		"/>
		<line fill="none" stroke="#FF7429" stroke-width="0.6353" stroke-miterlimit="10" x1="174.7" y1="298.3" x2="174.7" y2="300.9"/>
		<line fill="none" stroke="#FF7429" stroke-width="0.6353" stroke-miterlimit="10" x1="177.7" y1="300.9" x2="177.7" y2="298.3"/>
		<polygon fill="none" stroke="#FF7429" stroke-width="0.6353" stroke-miterlimit="10" points="174.7,298.3 173.2,298.3 
			173.2,289.6 179.1,289.6 179.1,298.3 177.7,298.3 		"/>
		<path fill="none" stroke="#FF7429" stroke-width="0.6344" stroke-miterlimit="10" d="M259.2,381.1c-0.1,0.2-0.1,0.4-0.2,0.5
			c-2.6,5-16.9,6.4-33.1,3c-16.3-3.4-28.8-10.4-29.1-16.1c0-0.4,0-0.7,0.1-1c1.2-5.8,16.2-7.6,33.5-4c17.3,3.6,30.3,11.3,29.1,17.1"
			/>
		<path fill="none" stroke="#FF7429" stroke-width="0.6344" stroke-miterlimit="10" d="M256.7,390.6c0,0.1,0,0.2,0,0.3
			c-0.1,0.3-0.1,0.5-0.3,0.8c-2.3,5.2-16.7,6.7-33.2,3.3c-14.6-3.1-26.2-9-28.6-14.3c-0.5-1-0.6-1.9-0.4-2.8"/>
		<path fill="none" stroke="#FF7429" stroke-width="0.6344" stroke-miterlimit="10" d="M258.6,383.6c0.2-0.6,0.3-1.2,0.4-1.7
			c0.1-0.4,0.2-0.7,0.2-0.9c0.1-0.3,0.1-0.4,0.1-0.4"/>
		<path fill="none" stroke="#FF7429" stroke-width="0.6344" stroke-miterlimit="10" d="M256.4,391.7c0-0.1,0.1-0.5,0.3-1
			c0.4-1.6,1.2-4.7,1.9-7"/>
		<path fill="none" stroke="#FF7429" stroke-width="0.6344" stroke-miterlimit="10" d="M194.1,377.8c0-0.3,0.4-1.9,0.9-3.7
			c0.8-2.9,1.8-6.5,1.8-6.5"/>
		<path fill="none" stroke="#FF7429" stroke-width="0.6344" stroke-miterlimit="10" d="M153.3,421.3h139.9c9.9,0,17.9,8,17.9,17.9
			V451h-275v-11.6c0-10,8.1-18,18.1-18h23.6H153.3z"/>
		<line fill="none" stroke="#FF7429" stroke-width="0.6344" stroke-miterlimit="10" x1="194.6" y1="380.6" x2="175.4" y2="380.6"/>
		<line fill="none" stroke="#FF7429" stroke-width="0.6344" stroke-miterlimit="10" x1="175.2" y1="374.1" x2="195" y2="374.1"/>
		<path fill="none" stroke="#FF7429" stroke-width="0.4025" stroke-miterlimit="10" d="M103.3,362.9c9.4-18.4,17.8-33.9,17.8-33.9
			s7.3-14,19.7-11.3c12.5,2.8,14.3,6,13.2,25.7c-0.5,9.7,0.3,30.5,0.9,48.3"/>
		<path fill="none" stroke="#FF7429" stroke-width="0.6344" stroke-miterlimit="10" d="M259,381.6c0,0.1,0,0.2,0,0.3
			c0,0.2,0,0.5-0.1,0.7c-0.1,0.4-0.2,0.7-0.4,1c0,0,0,0,0,0c-2.7,5-16.9,6.4-33.1,3c-17.3-3.6-30.3-11.3-29.1-17.1
			c0.1-0.3,0.2-0.7,0.3-1"/>
		<polyline fill="none" stroke="#FF7429" stroke-width="0.6353" stroke-miterlimit="10" points="198.8,79.6 194.7,79.6 194.7,25.4 
			199.9,24.3 199.9,79 		"/>
		<polyline fill="none" stroke="#FF7429" stroke-width="0.6353" stroke-miterlimit="10" points="207.4,192.7 207.4,216.1 
			206.7,216.3 202.2,217.4 202.2,190 		"/>
		<line fill="none" stroke="#FF7429" stroke-width="0.6436" stroke-miterlimit="10" x1="207.4" y1="190" x2="207.4" y2="191.2"/>
		<polyline fill="none" stroke="#FF7429" stroke-width="0.6436" stroke-miterlimit="10" points="198.8,79.6 198.8,190 202.2,190 		
			"/>
		<polyline fill="none" stroke="#FF7429" stroke-width="0.6436" stroke-miterlimit="10" points="207.4,190 207.4,160.8 207.4,79 
			199.9,79 		"/>
		<path fill="none" stroke="#FF7429" stroke-width="0.6353" stroke-miterlimit="10" d="M236.7,190c-0.5,0.3-1.6,1.2-1.6,1.2l-12.3,1
			l-15.3,0.5"/>
		<path fill="none" stroke="#FF7429" stroke-width="0.6353" stroke-miterlimit="10" d="M236.7,190c0.1,0,0.1,0,0.1,0
			c0.1,0,0.1-0.1,0.1-0.1S236.8,189.9,236.7,190"/>
		<path fill="none" stroke="#FF7429" stroke-width="0.6353" stroke-miterlimit="10" d="M236.7,190C236.7,190,236.7,190,236.7,190"/>
		<path fill="none" stroke="#FF7429" stroke-width="0.6353" stroke-miterlimit="10" d="M207.4,191.2c2.8-0.1,27.2-0.8,29.2-1.2"/>
		<polyline fill="none" stroke="#FF7429" stroke-width="0.6353" stroke-miterlimit="10" points="213.6,235 211.7,235 211.7,226.1 
			215.5,226.1 215.5,235 		"/>
		<polyline fill="none" stroke="#FF7429" stroke-width="0.6353" stroke-miterlimit="10" points="217.9,267.6 217.9,235 215.5,235 
			213.6,235 213.6,267.6 		"/>
		<path fill="none" stroke="#FF7429" stroke-width="0.6353" stroke-miterlimit="10" d="M209.1,215.7c0.1,0.4,1.8,8.8,1.8,8.8"/>
		<path fill="none" stroke="#FF7429" stroke-width="0.6353" stroke-miterlimit="10" d="M215.1,214.2c0.1,0.7,1.9,8.9,1.9,8.9"/>
		<line fill="none" stroke="#FF7429" stroke-width="0.6576" stroke-miterlimit="10" x1="251.6" y1="227" x2="251.6" y2="227"/>
		<line fill="none" stroke="#FF7429" stroke-width="0.6353" stroke-miterlimit="10" x1="249.9" y1="218.3" x2="251.6" y2="227"/>
		<line fill="none" stroke="#FF7429" stroke-width="0.6576" stroke-miterlimit="10" x1="255.2" y1="226.2" x2="255.2" y2="226.2"/>
		<line fill="none" stroke="#FF7429" stroke-width="0.6353" stroke-miterlimit="10" x1="253.6" y1="217.4" x2="255.2" y2="226.2"/>
		<polyline fill="none" stroke="#FF7429" stroke-width="0.6353" stroke-miterlimit="10" points="213.6,267.6 218.5,274.2 220,274.2 
			217.9,267.6 		"/>
		<line fill="none" stroke="#FF7429" stroke-width="0.6353" stroke-miterlimit="10" x1="263.4" y1="257.1" x2="257.4" y2="225.7"/>
		<path fill="none" stroke="#FF7429" stroke-width="0.6353" stroke-miterlimit="10" d="M253.6,226.5
			C253.6,226.5,253.6,226.6,253.6,226.5c0.3,1.9,6.4,31.3,6.4,31.3"/>
		<path fill="none" stroke="#FF7429" stroke-width="0.6353" stroke-miterlimit="10" d="M259.9,257.8c0.4,0.2,5.4,5.9,5.4,5.9
			c0.1,0,0.3-0.1,0.4-0.1l0.7-0.1c0.3-0.1,0.6-0.1,0.9-0.2l-3.9-6.3"/>
	</g>
</g>
</svg>
