<?xml version="1.0" encoding="utf-8"?>
<!-- Generator: Adobe Illustrator 24.1.3, SVG Export Plug-In . SVG Version: 6.00 Build 0)  -->
<svg version="1.1" id="Layer_1" xmlns="http://www.w3.org/2000/svg" xmlns:xlink="http://www.w3.org/1999/xlink" x="0px" y="0px"
	 viewBox="0 0 480 360" enable-background="new 0 0 480 360" xml:space="preserve">
<g id="XMLID_3_">
	<g>
		<path fill="#FF7429" d="M-1011.5,361.3c9.9,0,17.9,8,17.9,17.9V391h-275v-11.6c0-10,8.1-18,18.1-18h23.6h75.5H-1011.5z"/>
		<polygon fill="#FF7429" points="-996.2,240.9 -996.2,256.2 -1054.8,256.2 -1094.1,256.2 -1130.9,256.2 -1153.2,256.2 -1153.2,255 
			-1153.2,240.9 -1130.1,240.9 -1127.1,240.9 		"/>
		<path fill="#FF7429" d="M-1019.3,136.9l1.7,9.1l-1.3,0.3l-68.9,16.8c0,0-1.8-8.1-1.9-8.9l22.9-5.6L-1019.3,136.9z"/>
		<path fill="#FF7429" d="M-1028.5,161.3l7.7,30.6c0,0-3.7,7.2-4,8.3c-0.2,0.7-7.5,2.2-12.7,3.1l-3.9-6.3l-5.9-31.4L-1028.5,161.3z"
			/>
		<polygon fill="#FF7429" points="-1028.5,161.3 -1047.3,165.7 -1049.5,166.2 -1051.2,157.4 -1029.8,152.4 -1028.8,156.7 
			-1027.7,161.1 		"/>
		<path fill="#FF7429" d="M-1044.9,197.8c0.4,0.2,5.4,5.9,5.4,5.9c-1.7,0.3-2.9,0.5-2.9,0.5l-8.5-4.8c0,0-6.4-27.3-7.2-31.2l4.9-1.1
			v0l2-0.5C-1050.9,168.4-1044.9,197.8-1044.9,197.8z"/>
		<rect x="-1094.1" y="256.2" fill="#FF7429" width="39.3" height="19.5"/>
		<polygon fill="#FF7429" points="-1059.7,165.7 -1061.1,159.7 -1054.9,158.3 -1053.2,167 -1053.2,167 -1058.1,168.2 -1059.1,168.4 
					"/>
		<path fill="#FF7429" d="M-1106,130h3.4v27.5l4.5-1.1l-8.7,2.1l-0.1-28c0,0-7.6-0.8-8.4-2.3c-0.1-0.1-0.1-1.9-0.2-4.9
			c-0.5-15.4-1.2-63.6-1.6-87.6c-0.1-8.5-0.2-14-0.2-14l3.5-1.2l-1.1-56.8c0,0,22.1-10.1,44.7-1.4l2,57c0,0,4.4,0,5.1,2.4l0.2,107.1
			c0,0-2.2,0.4-3.9,0.7v0.4h-1.1c0,0-0.1,0-0.2,0.1c0,0,0,0,0,0c-2,0.4-26.5,1.1-29.2,1.2V130v-29.1V19h-7.5v-54.6l-5.2,1v54.3h4.1
			V130z"/>
		<polygon fill="#FF7429" points="-1064.9,167.3 -1064.9,175 -1065.6,175 -1086.9,175 -1089.3,175 -1089.3,166.1 -1064.9,166.1 		
			"/>
		<path fill="#FF7429" d="M-1067.9,129.9h1.1v18.7l-22.9,5.6l-6,1.5l-1.7,0.4v-23.5l15.3-0.5l12.3-1c0,0,1.2-0.9,1.6-1.2
			c0,0,0,0,0,0C-1068.1,130-1068,130-1067.9,129.9C-1067.9,129.9-1067.9,129.9-1067.9,129.9z"/>
		<path fill="#FF7429" d="M-1108,307.6c1.2-5.8,16.2-7.6,33.5-4c17.3,3.6,30.3,11.3,29.1,17.1c0,0,0,0.2-0.1,0.4
			c-0.1,0.2-0.1,0.4-0.2,0.5c-2.6,5-16.9,6.4-33.1,3c-16.3-3.4-28.8-10.4-29.1-16.1C-1108.1,308.2-1108,307.9-1108,307.6z"/>
		<path fill="#FF7429" d="M-1084.8,214.2l-2.1-6.6V175h21.3l0.7,31.8c0,0-5.2,6.2-5.7,7.3c-0.4,0.8-10.8,0.4-15.6,0.1H-1084.8z"/>
		<path fill="#FF7429" d="M-1091.2,175v32.6l4.9,6.6c-1.5-0.1-2.4-0.1-2.4-0.1l-7.2-6.6c0,0-0.2-31.7,0-32.5h2.8H-1091.2z"/>
		<polygon fill="#FF7429" points="-1093.1,166.1 -1093.1,175 -1095.9,175 -1097.6,175 -1097.6,169 -1097.6,166.1 		"/>
		<polygon fill="#FF7429" points="-1061.1,159.7 -1059.7,165.7 -1064.9,167.3 -1064.9,166.1 -1089.3,166.1 -1093.1,166.1 
			-1097.6,166.1 -1097.7,165.5 -1093.8,164.6 -1087.8,163.1 -1018.9,146.3 -1026.8,155.8 -1028.8,156.7 -1029.8,152.4 
			-1051.2,157.4 -1054.9,158.3 		"/>
		<path fill="#FF7429" d="M-1097.4,156.1l1.7-0.4c0.1,0.4,1.8,8.8,1.8,8.8l-3.9,0.9l-8.5,2.1l-2-8.8l1.4-0.4l8.7-2.1L-1097.4,156.1z
			"/>
		<polygon fill="#FF7429" points="-1097.6,169 -1106.2,167.6 -1097.7,165.5 -1097.6,166.1 		"/>
		<path fill="#FF7429" d="M-1109.8,314.1c0.8-2.9,1.8-6.5,1.8-6.5c-0.1,0.3-0.1,0.7-0.1,1c-0.2,0.3-0.3,0.6-0.3,1
			c-1.2,5.8,11.8,13.5,29.1,17.1c16.2,3.4,30.4,2,33.1-3c-0.6,2.3-1.4,5.4-1.9,7c-0.2,0.6-0.3,0.9-0.3,1c-2.3,5.2-16.7,6.7-33.2,3.3
			c-14.6-3.1-26.2-9-28.6-14.3c-0.5-1-0.6-1.9-0.4-2.8C-1110.7,317.6-1110.2,316-1109.8,314.1z"/>
		<path fill="#FF7429" d="M-1129.6,314.1h19.8c-0.5,1.9-0.9,3.5-0.9,3.7c-0.2,0.9,0,1.8,0.4,2.8h-19.2L-1129.6,314.1z"/>
		<path fill="#FF7429" d="M-1132.2,117.7c6.6,0,11.9-5.3,11.9-11.9s-5.3-11.9-11.9-11.9c-6.6,0-11.9,5.3-11.9,11.9
			S-1138.8,117.7-1132.2,117.7z M-1154.6,58.3c0,9,7.3,16.3,16.3,16.3c9,0,16.3-7.3,16.3-16.3s-7.3-16.3-16.3-16.3
			C-1147.3,42-1154.6,49.3-1154.6,58.3z M-1165.5,40.7c0,0,38.6-5.6,48.4-5c0.4,24.1,1.1,72.2,1.6,87.6l-47.4,1.8
			c0,0-38.4,7.4-40.9,54.5c-2.6,47.2,19.2,74.7,50.5,75.3h0.2v1.2h22.3l1.3,57.9l0.2,6.5l0.4,16.3c-0.7-0.4-9-1.5-20.8-5.3
			c-0.6-17.9-1.4-38.6-0.9-48.3c1.1-19.7-0.7-22.9-13.2-25.7c-12.5-2.8-19.7,11.3-19.7,11.3s-8.3,15.5-17.8,33.9
			c-22.3-19.8-41.6-51-44-100.3c-4.5-90.9,62.7-143.4,65.3-146.6C-1177.7,52.8-1165.5,40.7-1165.5,40.7z"/>
		<polygon fill="#FF7429" points="-1125.7,229.6 -1125.7,238.3 -1127.1,238.3 -1130.1,238.3 -1131.6,238.3 -1131.6,229.6 		"/>
		<rect x="-1130.1" y="238.3" fill="#FF7429" width="3" height="2.5"/>
		<path fill="#FF7429" d="M-1138.3,63.7c-3.4,0-6.2-2.8-6.2-6.2c0-3.4,2.8-6.2,6.2-6.2c3.4,0,6.2,2.8,6.2,6.2
			C-1132.1,60.9-1134.9,63.7-1138.3,63.7z"/>
		<path fill="#FF7429" d="M-1167.2,285.9c5.6,0,10.2-4.5,10.2-10.1c0-5.6-4.5-10.2-10.2-10.2c-5.6,0-10.1,4.5-10.1,10.2
			C-1177.3,281.3-1172.8,285.9-1167.2,285.9z M-1164.8,260.2c11.8,2.7,12.8,4.7,11.8,23.9c-0.9,16.8,1.1,65.1,1.6,77.1h-75.5
			c7.2-15.4,44.6-90.3,44.6-90.3S-1176.6,257.6-1164.8,260.2z"/>
	</g>
	<g>
		<path fill="none" stroke="#FF7429" stroke-width="1.1022" stroke-miterlimit="10" d="M-1130.9,256.2l1.3,57.9l0.2,6.5l0.4,16.3
			c-0.7-0.4-9-1.5-20.8-5.3"/>
		<path fill="none" stroke="#FF7429" stroke-width="1.1022" stroke-miterlimit="10" d="M-1115.5,123.3l-47.4,1.8
			c0,0-38.4,7.4-40.9,54.5c-2.6,47.2,19.2,74.7,50.5,75.3h0.2"/>
		<path fill="none" stroke="#FF7429" stroke-width="1.1022" stroke-miterlimit="10" d="M-1201.5,302.9c-22.3-19.8-41.6-51-44-100.3
			c-4.5-90.9,62.7-143.4,65.3-146.6c2.6-3.2,14.7-15.4,14.7-15.4s38.6-5.6,48.4-5"/>
		<path fill="none" stroke="#FF7429" stroke-width="1.021" stroke-miterlimit="10" d="M-1122,58.3c0,9-7.3,16.3-16.3,16.3
			c-9,0-16.3-7.3-16.3-16.3s7.3-16.3,16.3-16.3C-1129.3,42-1122,49.3-1122,58.3z"/>
		<path fill="none" stroke="#FF7429" stroke-width="0.3869" stroke-miterlimit="10" d="M-1132.1,57.5c0,3.4-2.8,6.2-6.2,6.2
			c-3.4,0-6.2-2.8-6.2-6.2c0-3.4,2.8-6.2,6.2-6.2C-1134.9,51.3-1132.1,54.1-1132.1,57.5z"/>
		<circle fill="none" stroke="#FF7429" stroke-width="0.7437" stroke-miterlimit="10" cx="-1132.2" cy="105.8" r="11.9"/>
		<path fill="none" stroke="#FF7429" stroke-width="0.6353" stroke-miterlimit="10" d="M-1167.2,265.6c5.6,0,10.2,4.5,10.2,10.2
			c0,5.6-4.5,10.1-10.2,10.1c-5.6,0-10.1-4.5-10.1-10.1C-1177.3,270.1-1172.8,265.6-1167.2,265.6z"/>
		<path fill="none" stroke="#FF7429" stroke-width="0.3869" stroke-miterlimit="10" d="M-1227,361.3c7.2-15.4,44.6-90.3,44.6-90.3
			s5.7-13.5,17.5-10.8c11.8,2.7,12.8,4.7,11.8,23.9c-0.9,16.8,1.1,65.1,1.6,77.1"/>
		<path fill="none" stroke="#FF7429" stroke-width="0.6353" stroke-miterlimit="10" d="M-1106.8,158.5l-0.1-28c0,0-7.6-0.8-8.4-2.3
			c-0.1-0.1-0.1-1.9-0.2-4.9c-0.5-15.4-1.2-63.6-1.6-87.6c-0.1-8.5-0.2-14-0.2-14l3.5-1.2l-1.1-56.8c0,0,22.1-10.1,44.7-1.4l2,57
			c0,0,4.4,0,5.1,2.4l0.2,107.1c0,0-2.2,0.4-3.9,0.7v0.4v18.7"/>
		<polyline fill="none" stroke="#FF7429" stroke-width="0.6353" stroke-miterlimit="10" points="-1097.4,156.1 -1095.7,155.7 
			-1089.7,154.2 -1066.8,148.6 -1019.3,136.9 -1017.6,146 -1018.9,146.3 -1087.8,163.1 -1093.8,164.6 -1097.7,165.5 -1106.2,167.6 
			-1108.2,158.8 -1106.8,158.5 -1098.1,156.3 		"/>
		<polyline fill="none" stroke="#FF7429" stroke-width="0.6353" stroke-miterlimit="10" points="-1028.8,156.7 -1026.8,155.8 
			-1018.9,146.3 		"/>
		
			<line fill="none" stroke="#FF7429" stroke-width="0.6353" stroke-miterlimit="10" x1="-1064.9" y1="167.3" x2="-1059.7" y2="165.7"/>
		
			<line fill="none" stroke="#FF7429" stroke-width="0.6353" stroke-miterlimit="10" x1="-1106.2" y1="167.6" x2="-1097.6" y2="169"/>
		<polyline fill="none" stroke="#FF7429" stroke-width="0.6628" stroke-miterlimit="10" points="-1089.3,166.1 -1064.9,166.1 
			-1064.9,167.3 -1064.9,175 -1065.6,175 -1086.9,175 		"/>
		<polyline fill="none" stroke="#FF7429" stroke-width="0.6628" stroke-miterlimit="10" points="-1093.1,175 -1095.9,175 
			-1097.6,175 -1097.6,169 -1097.6,166.1 -1093.1,166.1 		"/>
		<polyline fill="none" stroke="#FF7429" stroke-width="0.6576" stroke-miterlimit="10" points="-1053.2,167 -1058.1,168.2 
			-1059.1,168.4 -1059.7,165.7 -1061.1,159.7 -1054.9,158.3 -1051.2,157.4 -1029.8,152.4 -1028.8,156.7 -1027.7,161.1 
			-1028.5,161.3 -1047.3,165.7 -1049.5,166.2 		"/>
		<polyline fill="none" stroke="#FF7429" stroke-width="0.6576" stroke-miterlimit="10" points="-1049.5,166.2 -1051.2,166.6 
			-1053.2,167 		"/>
		<path fill="none" stroke="#FF7429" stroke-width="0.6353" stroke-miterlimit="10" d="M-1095.9,175c-0.2,0.9,0,32.5,0,32.5l7.2,6.6
			c0,0,1,0.1,2.4,0.1c4.8,0.2,15.2,0.7,15.6-0.1c0.5-1,5.7-7.3,5.7-7.3l-0.7-31.8"/>
		<path fill="none" stroke="#FF7429" stroke-width="0.6353" stroke-miterlimit="10" d="M-1037.5,203.4c5.1-0.9,12.5-2.4,12.7-3.1
			c0.3-1.1,4-8.3,4-8.3l-7.7-30.6l-0.1-0.3"/>
		<path fill="none" stroke="#FF7429" stroke-width="0.6353" stroke-miterlimit="10" d="M-1039,203.6c0.2,0,0.4-0.1,0.7-0.1"/>
		<path fill="none" stroke="#FF7429" stroke-width="0.6353" stroke-miterlimit="10" d="M-1058.1,167.7c0,0.1,0,0.2,0.1,0.5
			c0.8,4,7.2,31.2,7.2,31.2l8.5,4.8c0,0,1.2-0.2,2.9-0.5"/>
		<polygon fill="none" stroke="#FF7429" stroke-width="0.6353" stroke-miterlimit="10" points="-1127.1,240.9 -996.2,240.9 
			-996.2,256.2 -1054.8,256.2 -1094.1,256.2 -1130.9,256.2 -1153.2,256.2 -1153.2,255 -1153.2,240.9 -1130.1,240.9 		"/>
		<polyline fill="none" stroke="#FF7429" stroke-width="0.6353" stroke-miterlimit="10" points="-1054.8,256.2 -1054.8,275.7 
			-1094.1,275.7 -1094.1,256.2 		"/>
		
			<line fill="none" stroke="#FF7429" stroke-width="0.6353" stroke-miterlimit="10" x1="-1130.1" y1="238.3" x2="-1130.1" y2="240.9"/>
		
			<line fill="none" stroke="#FF7429" stroke-width="0.6353" stroke-miterlimit="10" x1="-1127.1" y1="240.9" x2="-1127.1" y2="238.3"/>
		<polygon fill="none" stroke="#FF7429" stroke-width="0.6353" stroke-miterlimit="10" points="-1130.1,238.3 -1131.6,238.3 
			-1131.6,229.6 -1125.7,229.6 -1125.7,238.3 -1127.1,238.3 		"/>
		<path fill="none" stroke="#FF7429" stroke-width="0.6344" stroke-miterlimit="10" d="M-1045.6,321.1c-0.1,0.2-0.1,0.4-0.2,0.5
			c-2.6,5-16.9,6.4-33.1,3c-16.3-3.4-28.8-10.4-29.1-16.1c0-0.4,0-0.7,0.1-1c1.2-5.8,16.2-7.6,33.5-4c17.3,3.6,30.3,11.3,29.1,17.1"
			/>
		<path fill="none" stroke="#FF7429" stroke-width="0.6344" stroke-miterlimit="10" d="M-1048.1,330.6c0,0.1,0,0.2,0,0.3
			c-0.1,0.3-0.1,0.5-0.3,0.8c-2.3,5.2-16.7,6.7-33.2,3.3c-14.6-3.1-26.2-9-28.6-14.3c-0.5-1-0.6-1.9-0.4-2.8"/>
		<path fill="none" stroke="#FF7429" stroke-width="0.6344" stroke-miterlimit="10" d="M-1046.2,323.6c0.2-0.6,0.3-1.2,0.4-1.7
			c0.1-0.4,0.2-0.7,0.2-0.9c0.1-0.3,0.1-0.4,0.1-0.4"/>
		<path fill="none" stroke="#FF7429" stroke-width="0.6344" stroke-miterlimit="10" d="M-1048.4,331.7c0-0.1,0.1-0.5,0.3-1
			c0.4-1.6,1.2-4.7,1.9-7"/>
		<path fill="none" stroke="#FF7429" stroke-width="0.6344" stroke-miterlimit="10" d="M-1110.7,317.8c0-0.3,0.4-1.9,0.9-3.7
			c0.8-2.9,1.8-6.5,1.8-6.5"/>
		<path fill="none" stroke="#FF7429" stroke-width="0.6344" stroke-miterlimit="10" d="M-1151.5,361.3h139.9c9.9,0,17.9,8,17.9,17.9
			V391h-275v-11.6c0-10,8.1-18,18.1-18h23.6H-1151.5z"/>
		
			<line fill="none" stroke="#FF7429" stroke-width="0.6344" stroke-miterlimit="10" x1="-1110.2" y1="320.6" x2="-1129.4" y2="320.6"/>
		
			<line fill="none" stroke="#FF7429" stroke-width="0.6344" stroke-miterlimit="10" x1="-1129.6" y1="314.1" x2="-1109.8" y2="314.1"/>
		<path fill="none" stroke="#FF7429" stroke-width="0.4025" stroke-miterlimit="10" d="M-1201.5,302.9c9.4-18.4,17.8-33.9,17.8-33.9
			s7.3-14,19.7-11.3c12.5,2.8,14.3,6,13.2,25.7c-0.5,9.7,0.3,30.5,0.9,48.3"/>
		<path fill="none" stroke="#FF7429" stroke-width="0.6344" stroke-miterlimit="10" d="M-1045.8,321.6c0,0.1,0,0.2,0,0.3
			c0,0.2,0,0.5-0.1,0.7c-0.1,0.4-0.2,0.7-0.4,1c0,0,0,0,0,0c-2.7,5-16.9,6.4-33.1,3c-17.3-3.6-30.3-11.3-29.1-17.1
			c0.1-0.3,0.2-0.7,0.3-1"/>
		<polyline fill="none" stroke="#FF7429" stroke-width="0.6353" stroke-miterlimit="10" points="-1106,19.6 -1110.1,19.6 
			-1110.1,-34.6 -1104.9,-35.7 -1104.9,19 		"/>
		<polyline fill="none" stroke="#FF7429" stroke-width="0.6353" stroke-miterlimit="10" points="-1097.4,132.7 -1097.4,156.1 
			-1098.1,156.3 -1102.6,157.4 -1102.6,130 		"/>
		
			<line fill="none" stroke="#FF7429" stroke-width="0.6436" stroke-miterlimit="10" x1="-1097.4" y1="130" x2="-1097.4" y2="131.2"/>
		<polyline fill="none" stroke="#FF7429" stroke-width="0.6436" stroke-miterlimit="10" points="-1106,19.6 -1106,130 -1102.6,130 
					"/>
		<polyline fill="none" stroke="#FF7429" stroke-width="0.6436" stroke-miterlimit="10" points="-1097.4,130 -1097.4,100.8 
			-1097.4,19 -1104.9,19 		"/>
		<path fill="none" stroke="#FF7429" stroke-width="0.6353" stroke-miterlimit="10" d="M-1068.1,130c-0.5,0.3-1.6,1.2-1.6,1.2
			l-12.3,1l-15.3,0.5"/>
		<path fill="none" stroke="#FF7429" stroke-width="0.6353" stroke-miterlimit="10" d="M-1068.1,130c0.1,0,0.1,0,0.1,0
			c0.1,0,0.1-0.1,0.1-0.1S-1068,129.9-1068.1,130"/>
		<path fill="none" stroke="#FF7429" stroke-width="0.6353" stroke-miterlimit="10" d="M-1068.1,130
			C-1068.1,130-1068.1,130-1068.1,130"/>
		<path fill="none" stroke="#FF7429" stroke-width="0.6353" stroke-miterlimit="10" d="M-1097.4,131.2c2.8-0.1,27.2-0.8,29.2-1.2"/>
		<polyline fill="none" stroke="#FF7429" stroke-width="0.6353" stroke-miterlimit="10" points="-1091.2,175 -1093.1,175 
			-1093.1,166.1 -1089.3,166.1 -1089.3,175 		"/>
		<polyline fill="none" stroke="#FF7429" stroke-width="0.6353" stroke-miterlimit="10" points="-1086.9,207.6 -1086.9,175 
			-1089.3,175 -1091.2,175 -1091.2,207.6 		"/>
		<path fill="none" stroke="#FF7429" stroke-width="0.6353" stroke-miterlimit="10" d="M-1095.7,155.7c0.1,0.4,1.8,8.8,1.8,8.8"/>
		<path fill="none" stroke="#FF7429" stroke-width="0.6353" stroke-miterlimit="10" d="M-1089.7,154.2c0.1,0.7,1.9,8.9,1.9,8.9"/>
		<line fill="none" stroke="#FF7429" stroke-width="0.6576" stroke-miterlimit="10" x1="-1053.2" y1="167" x2="-1053.2" y2="167"/>
		
			<line fill="none" stroke="#FF7429" stroke-width="0.6353" stroke-miterlimit="10" x1="-1054.9" y1="158.3" x2="-1053.2" y2="167"/>
		
			<line fill="none" stroke="#FF7429" stroke-width="0.6576" stroke-miterlimit="10" x1="-1049.5" y1="166.2" x2="-1049.5" y2="166.2"/>
		
			<line fill="none" stroke="#FF7429" stroke-width="0.6353" stroke-miterlimit="10" x1="-1051.2" y1="157.4" x2="-1049.5" y2="166.2"/>
		<polyline fill="none" stroke="#FF7429" stroke-width="0.6353" stroke-miterlimit="10" points="-1091.2,207.6 -1086.3,214.2 
			-1084.8,214.2 -1086.9,207.6 		"/>
		
			<line fill="none" stroke="#FF7429" stroke-width="0.6353" stroke-miterlimit="10" x1="-1041.4" y1="197.1" x2="-1047.3" y2="165.7"/>
		<path fill="none" stroke="#FF7429" stroke-width="0.6353" stroke-miterlimit="10" d="M-1051.2,166.5
			C-1051.2,166.5-1051.2,166.6-1051.2,166.5c0.3,1.9,6.4,31.3,6.4,31.3"/>
		<path fill="none" stroke="#FF7429" stroke-width="0.6353" stroke-miterlimit="10" d="M-1044.9,197.8c0.4,0.2,5.4,5.9,5.4,5.9
			c0.1,0,0.3-0.1,0.4-0.1l0.7-0.1c0.3-0.1,0.6-0.1,0.9-0.2l-3.9-6.3"/>
	</g>
</g>
<g id="XMLID_1_">
	<g>
		<path fill="#FF7429" d="M148.5,102.3c-1.4,0.4-2.7,0.9-4.1,1.3c-1.5,0.5-3.3,0.8-4.8,0.5c1.6,7.4,5.1,14.3,10,20
			c0.7-3.3,0.6-6.8,0.4-10.1C149.9,110.1,149.6,106,148.5,102.3z M55.1,167.5c-0.1-0.5-0.5-0.9-1-0.9
			C54.3,167,54.7,167.3,55.1,167.5z M357.1,169.7c-0.7,0.5-1.4,1-2,1.5c0.5-0.3,1-0.6,1.6-0.9c0,0,0,0,0,0
			c9.5-5.4,18.9-11.1,27.9-17.2c2-1.4,4.1-2.8,6-4.4c2.2-1.9,4.2-4.1,5.9-6.6c-2-1.8-3.8-3.7-5.5-5.8c-7.6,12.3-18,22.9-30.2,30.8
			C359.6,168.1,358.3,168.8,357.1,169.7z M186.2,84.6c-1.6-0.5-3.1-1-4.6-1.8c-1.2,0.5-2.4,0.8-3.7,1c-0.4,7.2-1.3,14.4,1.9,20.7
			C182.4,98.2,185,91.5,186.2,84.6z M158.6,91.9c-0.9,0.9-2,1.6-3.1,2.1c1.7,0.8,1.7,3.3,0.6,4.7c-0.9,1.2-2.3,1.8-3.8,2.3
			c0.4,2.5,1,5,1.9,7.3c1.4,3.9,3.7,7.5,7.1,9.9c3.3-3.9,6.6-7.9,8.5-12.6c1.1-2.7,1.8-5.7,2.2-8.6c0.7-4.3,1-8.7,1-13
			c-1.7-0.2-3.4-0.5-5-1.1c-1.1,1.2-1.8,2.8-1.8,4.4c-0.1-0.8-0.3-1.6-0.8-2.2c-0.5-0.6-1.5-0.9-2.2-0.4c-0.3,0.3-0.5,0.7-0.6,1.2
			c-0.9,3.4-1.3,7-0.9,10.6c-0.1-1.3-0.2-2.7-1-3.7C160.2,92.3,159.4,91.9,158.6,91.9z M320.4,80.5c0.5,1,1.3,1.7,2.3,2.1
			c0.1,0.6,0.1,1.3-0.2,1.8c0,0.1-0.1,0.1-0.1,0.2c-0.8,1.5-2.4,2.4-4,3c-11.8,4.8-25.6,4.4-37.1-1c-7,2.8-15.1,2.4-21.8-1.1
			c-1.6-0.8-3.2-2-4.3-3.4l-0.3,0.2c0.5,2.7,2.9,4.6,5.3,5.8c6.7,3.4,14.8,3.8,21.8,1.1c11.5,5.4,25.3,5.8,37.1,1
			c1.7-0.7,3.4-1.6,4.1-3.2c0.3-0.6,0.3-1.2,0.2-1.8c2.4,1,5.9,0.5,8.6-0.4c3.6-1.2,7.2-2.3,10.8-3.4c2.7-0.9,5.6-1.9,7.4-4.1
			c1.4-1.8,1.6-4.6,0.4-6.3c0-0.5-0.1-1-0.3-1.5c4.9-2.4,8.3-7.9,7.3-13.3l-0.7,0c-0.3,4.8-3.9,9.4-8.5,11.1
			c0.9,0.4,1.5,1.2,1.9,2.2c-0.3,0.2-0.7,0.3-1,0.4c0.5,0.3,1,0.6,1.3,1.1c0,1.3-0.4,2.7-1.2,3.7c-1.8,2.2-4.6,3.2-7.4,4.1
			c-3.6,1.1-7.2,2.3-10.8,3.4c-2.7,0.9-6.2,1.5-8.6,0.4C322.4,81.4,321.6,80.4,320.4,80.5z M203.8,85c-1.9,5.8-1.4,12.4,1.4,17.9
			c4.8-6.6,7.8-14.4,8.8-22.5c-1,0.1-2.1,0-2.9-0.4c0.1,0.4,0.1,0.9-0.1,1.3c-0.5,1.2-1.8,1.8-3,2.3C206.7,84.2,205.2,84.7,203.8,85
			z M95.8,115.2c-0.5-2-3.3-2.8-5.1-1.8c-0.8,0.5-1.4,1.2-1.8,2c1.5,0.4,2.9,1.8,3.2,3.4c0.3,1.3-0.2,2.7-1,3.8v0
			c0.1,0.7,0.3,1.3,0.6,2c1.9,4.9,6.7,8,11.4,10.2c3.6,1.7,7.3,3.1,11.1,4.2c1.3-10.6,2.6-21.7-0.4-31.9c-0.5-0.2-0.9-0.4-1.3-0.6
			c-3.3,1.3-7,1.5-10.4,0.7c-0.7,1.2-1.1,2.7-0.9,4.1c-0.5-1.3-2-2-3.3-1.7c-1.3,0.4-2.3,1.7-2.1,3.1
			C95.8,113.5,96.3,114.4,95.8,115.2z M438.1,145.2c0.5-0.3,8.3-5.4,10.4-9c0,0,4.4,9-1,17.6c0,0,4.2,2,10.3-1.5
			c0,0-20.2,32-51.4,25.2c0,0-1.3,6.9-17.1,10.6c0.5-0.3,7.7-4.8,7.7-6.7c0,0-29.5-6.5-42.3,2.5c-12.7,9-14.5,22.8-14.5,22.8
			s-4.5,50-1.2,56.1c3.3,6.1,9.8,9.2,11.2,22c1.4,12.8,10.8,7.1,11.3,21.1c0.1,2.4,0.5,4.7,1,6.8h41.7c-2.2,7.1-23.7,34.2-25.4,34.2
			H255.9v0H99.3c-1.8,0-23.2-27.1-25.4-34.2h148.4h22.8l0,0c2-2.1,3.8-4.2,5.2-5.8c2.7-3.2,5.2-8.6,13.1-9c7.8-0.4,19.4,1.1,22.7,0
			c3.3-1.1,8.4-3.1,12.7-9.5c4.3-6.4,7.8-8.2,19.1-9.1c11.4-0.9,8.3-69.6,6.2-77.2c-2.1-7.6-55.3-23-58.3-48.5
			c0.2,1.6,1.5,14.5-13.6,9.7c-16.1-5.1,1.9-4.4,3.7-6.6c1.8-2.2-1-1.9-3.7-3.2c-2.7-1.3,4.7-1.5,5.6-4c0.9-2.5,1.3-9.8-8.1-12.3
			c-9.4-2.5-16.9-8.3-22.2-4s-4.5,2.8-6.8,6.8c0,0-0.6-6.1,1.5-9.2c2-3.1-4.3-0.8-8.1,7.5c-3.8,8.3-11.9,1.4-11.9,1.4
			s4.4,11.6-7,4.6c-11.4-7.1-28.1,4.4-28.1,4.4s-1.1,11.4-13.8,10.6c0,0,4.9-3,4.9-7.8c0,0-15.7-3.8-33.7,12.3
			c-18,16.1-29.6,5-32.6,1.2c0,0-10.8,15.7-20.6,21.3s-23.3,5.9-31-8.4c0,0,4,3.3,5.5,2.5c0,0-3.8-4.1-5.9-10.5
			c-0.7-0.2-1.3-0.5-2-0.8c-2.9,1.2-6.3,1-9.1-0.5c-1-0.5-2-1.3-2.2-2.4c-0.2-1.1,0.9-2.5,1.9-2.1c-1-0.7-2.6-0.2-3.4-1.1
			c-0.9-1,0.1-2.4,1.2-3.2c-0.3-0.2-0.6-0.6-0.8-1c-1.1-2.3-1.6-5.2-0.2-7.4c1.3-2.2,5.1-2.7,6.4-0.5c-0.9-2.6,1.8-5.7,4.5-5.1
			c1.2-2.5,4.6-3.6,7-2.3c1.9-1.2,3.8-2.4,6-2.9c1.3-0.3,2.8-0.2,4,0.2c1.6-0.9,3.4-1.5,4.5-3c1-1.4,1-3.2,1.4-4.8
			c-2.6,0.6-5.4,0.3-7.7-0.9c-1-0.5-2-1.3-2.3-2.5c-0.2-1.1,0.8-2.5,1.9-2.1c-1-0.7-2.6-0.2-3.4-1.1c-0.8-1,0.1-2.5,1.3-3.2
			c-0.3-0.2-0.6-0.6-0.8-1c-1.1-2.3-1.6-5.2-0.2-7.4c1.3-2.2,5.1-2.7,6.3-0.5c-0.9-2.6,1.8-5.7,4.5-5.1c1.2-2.5,4.6-3.6,7-2.3
			c1.9-1.2,3.8-2.4,6-2.9c2.2-0.4,4.7,0,6.2,1.6c1.5,1.6,1.8,4.5,0.1,6c1.9-0.8,4.1-0.9,6.1-0.4c2.7-4.1,6.6-7.4,11-9.5
			c-0.2-1.7,1.4-3.6,3-3.1c-1.5-1.1-4-0.3-5.2-1.7c-1.3-1.5,0.2-3.7,1.9-4.9c-0.5-0.3-1-0.9-1.2-1.5c-1.6-3.5-2.4-7.9-0.3-11.2
			c2-3.3,7.8-4.2,9.7-0.8c-1.4-4,2.8-8.7,6.9-7.8c1.8-3.8,7-5.5,10.7-3.6c2.8-1.9,5.8-3.7,9.2-4.4c3.3-0.7,7.1-0.1,9.5,2.4
			c2.4,2.5,2.7,6.9,0.1,9.2c3.6-1.5,7.9-1.4,11.4,0.3c0,0,0,0,0,0c2.6-1.7,5.5-2.7,8.6-3c-0.7-1.6,0.8-3.7,2.5-4.8
			c-0.6-0.3-1.1-1-1.4-1.6c-1.8-4-2.7-8.8-0.4-12.5c2.3-3.7,8.7-4.6,10.8-0.9c-1.6-4.5,3.1-9.7,7.8-8.7c2-4.2,7.8-6.2,11.9-4
			c3.2-2.1,6.5-4.1,10.3-4.9c3.7-0.8,8,0,10.6,2.7c0.1,0.1,0.2,0.2,0.3,0.3c0.2,0.7,0.5,1.4,0.8,2c0.2,0.4,0.5,0.8,0.8,1.2
			c0.1,0.3,0.1,0.5,0.2,0.8c0.1-0.1,0.3-0.2,0.4-0.3c-0.2-0.1-0.4-0.3-0.6-0.5c-0.3-1.2-0.8-2.3-1.6-3.2c-1.2-3.5-1.5-7.4,0.4-10.5
			c2.3-3.7,8.6-4.6,10.8-0.9c-1.6-4.4,3.2-9.7,7.8-8.7c2-4.2,7.8-6.2,11.9-4c3.2-2.1,6.5-4.1,10.2-4.9c3.7-0.8,8-0.1,10.6,2.7
			c2.6,2.7,3,7.7,0.1,10.2c4.1-1.7,8.8-1.6,12.8,0.3c1.2,0.6,2.4,1.3,2.9,2.5c0.6,1.2,0.3,2.9-0.9,3.4c0.7-0.3,1.4-0.4,2.1-0.4
			c3.7-2.9,9.1-3.7,13.4-1.5c4.4-2.9,9.1-5.8,14.3-6.8c5.2-1.1,11.1-0.1,14.8,3.8c3.7,3.8,4.2,10.8,0.1,14.3
			c5.7-2.3,12.3-2.2,17.8,0.4c1.7,0.8,3.3,1.9,4.1,3.5c0.8,1.7,0.4,4-1.3,4.8c0.5-0.2,1.1-0.3,1.6-0.4c2.6-0.9,5.4-1.2,8.4-0.1
			c9.9,3.6,9.2,9.2,18.2,7.9c9-1.3,12.6-6.3,12.6-6.3s1.8,5.6-5,10.8c0,0,5.9,4.5,12.8-1.6c0,0,0.7,4.5-5.2,10.1c0,0,5.5,3,9.6-2.5
			c0,0-0.9,5.6-9.6,8.3c0,0,4.6-0.2,8,4.3c3.4,4.5,7.8,5.8,9.2,5.4c1.4-0.4,5.7-4.7,9.3-4.3c0,0-5.4,2.8-4.9,6.7
			c0.4,3.9-2.3,6.2,2,8.5c4.3,2.3,4.1,5.7,4.1,5.7s-5.6-3.1-8,5.3c-2.4,8.4-6.3,6-6.3,6s7.8,12.2,17,5.1c9.2-7,10-12.8,9.1-14.4
			c0,0,11.9,6.8,4,22.1c0,0-1.5,5.8-11.5,7.1c0,0,2.3,3.9,7.1,2.3l-1.6,2.8c0,0,11.3-2.6,16.4-12.1
			C441,122.4,449.5,129.9,438.1,145.2z M62.4,137.6c-1.6-0.2-3.5,1.3-3.1,2.9c0.2,0.6,0.6,1.1,1.1,1.5c0.6,0.6,1.3,1.1,2,1.6
			c-1.2-0.6-2.5-1.1-3.8-1.1c-1,0-1.9,0.3-2.8,0.8c0.8,1.6,0.7,3.8-0.7,5c2.4-1,5.2-0.9,7.5,0.2c0.7,0.3,1.4,0.8,1.7,1.5
			c0.3,0.7,0.1,1.7-0.6,2c2.3-0.9,5.1,0.9,5.5,3.3c0.3,1.4-0.2,2.8-1.1,4c0.7,0.1,1.4,0.2,2.2,0.3c3.5,0.3,7.5-0.2,9.6-3
			c0.5-0.7,0.9-1.5,1.2-2.4c2.3-6.3,0.7-13.8-4-18.7c-0.7-0.8-1.5-1.4-2.3-2.1c-3.6,1.3-7.6,1.4-11.3,0.5c-0.3,0.8-0.3,1.8,0,2.6
			c0.3,1,0.9,1.8,1.6,2.5C64.5,138.3,63.5,137.7,62.4,137.6z M394.3,172.7c0.9-0.4,1.1-1.7,1-2.7c-0.1-3.8-0.3-7.5-0.4-11.3
			c-6.4,4.8-17.4,12.4-23.1,14.9c6.9-1.4,14-1.7,21-0.9C393.4,172.9,393.9,172.9,394.3,172.7z M321.1,161.6
			c0.1-7.6,0.9-15.4-1.1-22.7c-0.7,0.9-1.3,1.8-2,2.8c-0.8-0.4-1.3-1.2-1.5-2.1c-0.7,9.2-0.1,18.4,1.8,27.4c0.4,1.9,0.8,3.9,1.2,5.8
			c1.4,3.8,2.5,7.6,3.5,11.5C321.6,176.8,321,169.2,321.1,161.6z M298.4,179.1c7.7,5.2,15.6,10.5,24.2,13.9
			c-17.7-9.6-29.8-27.2-38-45.6c-4.2,3.6-11.4,2.7-14.5-1.8c0,2.4,0.4,4.8,1.2,7.1c3.6,5.3,8.7,11.9,12,15
			C287.9,172,293.1,175.6,298.4,179.1z M322.1,189.7c-9.9-14.5-14-32.1-17.9-49.2c-1.1,0.9-2.4,1.4-3.8,1.4
			c-0.4,1.7-2.6,2.4-4.3,1.7c-1.6-0.7-2.7-2.2-3.6-3.7c0.4,2.5-0.3,5.1-1.8,7.1C297.4,163.5,309.3,177.4,322.1,189.7z M225.9,77
			c-0.3,0.1-0.6,0.2-0.9,0.3c-1.7,0.5-3.4,1.1-5.1,1.6c-0.2,4,0,8,0.7,11.9C223.7,86.8,225.4,81.9,225.9,77z M130.9,116.7
			c0.3-2.6,0.3-5.4-0.1-8c-3.8,0.7-7.7,0.7-11.5,0c0,4.3-0.5,8.5-0.4,12.8c0.1,5.8,1.4,12,5.8,15.8c0.7-2,1.5-4,2.2-6
			C128.5,126.5,130.2,121.7,130.9,116.7z M104.1,147.8c0.8,0,1.6,0,2.2-0.6c-2.7-9.5-11.7-16.3-21.5-17.6c-1.2,0.4-2.3,0.7-3.5,1.1
			c-0.5,0.2-1.1,0.3-1.7,0.4c0.2,0.8,0.8,1.5,1.3,2.2C86.8,140.7,94.7,147.5,104.1,147.8z"/>
	</g>
	<g>
		<path fill="none" stroke="#FF7429" stroke-width="1.2135" stroke-miterlimit="10" d="M255.9,346.9L255.9,346.9l-156.6,0
			c-1.8,0-23.2-27.1-25.4-34.2h148.4h22.8"/>
		<polyline fill="none" stroke="#FF7429" stroke-width="1.2135" stroke-miterlimit="10" points="245.1,312.7 222.2,312.7 
			222.2,312.7 		"/>
		<path fill="none" stroke="#FF7429" stroke-width="1.2135" stroke-miterlimit="10" d="M255.9,346.9h122.9
			c1.8,0,23.3-27.1,25.4-34.2h-41.7"/>
		<path fill="none" stroke="#FF7429" stroke-width="0.75" stroke-miterlimit="10" d="M389.3,188.1c0.5-0.3,7.7-4.8,7.7-6.7
			c0,0-29.5-6.5-42.3,2.5c-12.7,9-14.5,22.8-14.5,22.8s-4.5,50-1.2,56.1c3.3,6.1,9.8,9.2,11.2,22c1.4,12.8,10.8,7.1,11.3,21.1
			c0.1,2.4,0.5,4.7,1,6.8"/>
		<path fill="none" stroke="#FF7429" stroke-width="0.75" stroke-miterlimit="10" d="M438.1,145.2
			C438.1,145.2,438.1,145.2,438.1,145.2c0.5-0.3,8.3-5.4,10.4-9.1c0,0,4.4,9-1,17.6c0,0,4.2,2,10.3-1.5c0,0-20.2,32-51.4,25.2
			c0,0-1.3,6.9-17.1,10.6c0,0,0,0,0,0"/>
		<path fill="none" stroke="#FF7429" stroke-width="0.75" stroke-miterlimit="10" d="M334,54.2c0.4-0.9,5.1-6.8,11.4-9
			c2.6-0.9,5.4-1.2,8.4-0.1c9.9,3.6,9.2,9.2,18.2,7.9c9-1.3,12.6-6.3,12.6-6.3s1.8,5.6-5,10.8c0,0,5.9,4.5,12.8-1.6
			c0,0,0.7,4.5-5.2,10.1c0,0,5.5,3,9.6-2.5c0,0-0.9,5.6-9.6,8.3c0,0,4.6-0.2,8,4.3c3.4,4.5,7.8,5.8,9.2,5.4c1.4-0.4,5.7-4.7,9.3-4.3
			c0,0-5.4,2.8-4.9,6.7c0.4,3.9-2.3,6.2,2,8.5c4.3,2.3,4.1,5.7,4.1,5.7s-5.6-3.1-8,5.3c-2.4,8.4-6.3,6-6.3,6s7.8,12.2,17,5.1
			c9.2-7,10-12.8,9.1-14.4c0,0,11.9,6.8,4,22.1c0,0-1.5,5.8-11.5,7.1c0,0,2.3,3.9,7.1,2.3l-1.6,2.8c0,0,11.3-2.6,16.4-12.1
			c0,0,8.5,7.5-2.8,22.8"/>
		<path fill="none" stroke="#FF7429" stroke-width="0.75" stroke-miterlimit="10" d="M265.8,153.4
			C265.8,153.4,265.8,153.5,265.8,153.4c0,0.1,0,0.1,0,0.2c0.2,1.6,1.5,14.5-13.6,9.7c-16.1-5.1,1.9-4.4,3.7-6.6
			c1.8-2.2-1-1.9-3.7-3.2c-2.7-1.3,4.7-1.5,5.6-4c0.9-2.5,1.3-9.8-8.1-12.3c-9.4-2.5-16.9-8.3-22.2-4s-4.5,2.8-6.8,6.8
			c0,0-0.6-6.1,1.5-9.2c2-3.1-4.3-0.8-8.1,7.5c-3.8,8.3-11.9,1.4-11.9,1.4s4.4,11.6-7,4.6c-11.4-7.1-28.1,4.4-28.1,4.4
			s-1.1,11.4-13.8,10.6c0,0,4.9-3,4.9-7.8c0,0-15.7-3.8-33.7,12.3c-18,16.1-29.6,5-32.6,1.2c0,0-10.8,15.7-20.6,21.3
			s-23.3,5.9-31-8.4c0,0,4,3.3,5.5,2.5c0,0-3.8-4.1-5.9-10.5"/>
		<path fill="none" stroke="#FF7429" stroke-width="0.75" stroke-miterlimit="10" d="M245.1,312.7L245.1,312.7
			c2-2.1,3.8-4.2,5.2-5.8c2.7-3.2,5.2-8.6,13.1-9c7.8-0.4,19.4,1.1,22.7,0c3.3-1.1,8.4-3.1,12.7-9.5c4.3-6.4,7.8-8.2,19.1-9.1
			c11.4-0.9,8.3-69.6,6.2-77.2c-2.1-7.6-55.3-23-58.3-48.5"/>
		<path fill="none" stroke="#FF7429" stroke-width="0.75" stroke-miterlimit="10" d="M213.4,41.4c0.1-0.1,0.3-0.2,0.4-0.3"/>
		<path fill="none" stroke="#FF7429" stroke-width="0.75" stroke-miterlimit="10" d="M215.2,41.2c-0.4,0.3-0.9,0.3-1.4,0
			c-0.2-0.1-0.4-0.3-0.6-0.5c-0.3-0.3-0.6-0.8-0.8-1.2c-0.3-0.6-0.6-1.3-0.8-2c-1.2-3.5-1.5-7.4,0.4-10.5c2.3-3.7,8.6-4.6,10.8-0.9
			c-1.6-4.4,3.2-9.7,7.8-8.7c2-4.2,7.8-6.2,11.9-4c3.2-2.1,6.5-4.1,10.2-4.9c3.7-0.8,8-0.1,10.6,2.7c2.6,2.7,3,7.7,0.1,10.2
			c4.1-1.7,8.8-1.6,12.8,0.3c1.2,0.6,2.4,1.3,2.9,2.5c0.6,1.2,0.3,2.9-0.9,3.4c0.7-0.3,1.4-0.4,2.1-0.4"/>
		<path fill="none" stroke="#FF7429" stroke-width="1.0483" stroke-miterlimit="10" d="M322.7,82.6c0.1,0.6,0.1,1.3-0.2,1.8
			c0,0.1-0.1,0.1-0.1,0.2c-0.8,1.5-2.4,2.4-4,3c-11.8,4.8-25.6,4.4-37.1-1c-7,2.8-15.1,2.4-21.8-1.1c-1.6-0.8-3.2-2-4.3-3.4"/>
		<path fill="none" stroke="#FF7429" stroke-width="1.0483" stroke-miterlimit="10" d="M322.7,82.6c-1-0.4-1.8-1.1-2.3-2.1
			C321.6,80.4,322.4,81.4,322.7,82.6z"/>
		<path fill="none" stroke="#FF7429" stroke-width="1.0483" stroke-miterlimit="10" d="M280.5,27.3c3.7-2.9,9.1-3.7,13.4-1.5
			c4.4-2.9,9.1-5.8,14.3-6.8c5.2-1.1,11.1-0.1,14.8,3.8c3.7,3.8,4.2,10.8,0.1,14.3c5.7-2.3,12.3-2.2,17.8,0.4
			c1.7,0.8,3.3,1.9,4.1,3.5c0.8,1.7,0.4,4-1.3,4.8c0.5-0.2,1.1-0.3,1.6-0.4c5-0.8,10.5,3.1,11.5,8.3c0.2,0.9,0.2,1.7,0.1,2.6
			c-0.3,4.8-3.9,9.4-8.5,11.1c0.9,0.4,1.5,1.2,1.9,2.2c0.2,0.5,0.3,1,0.3,1.5c0,1.3-0.4,2.7-1.2,3.7c-1.8,2.2-4.6,3.2-7.4,4.1
			c-3.6,1.1-7.2,2.3-10.8,3.4c-2.7,0.9-6.2,1.5-8.6,0.4"/>
		<path fill="none" stroke="#FF7429" stroke-width="0.75" stroke-miterlimit="10" d="M159.3,71.9c-0.7-1.6,0.8-3.7,2.5-4.8"/>
		<path fill="none" stroke="#FF7429" stroke-width="0.75" stroke-miterlimit="10" d="M173,84.1c-1.7-0.2-3.4-0.5-5-1.1"/>
		<path fill="none" stroke="#FF7429" stroke-width="0.75" stroke-miterlimit="10" d="M193.1,85.9c-2.4-0.2-4.7-0.6-6.9-1.3
			c-1.6-0.5-3.1-1-4.6-1.8c-1.2,0.5-2.4,0.8-3.7,1"/>
		<path fill="none" stroke="#FF7429" stroke-width="0.75" stroke-miterlimit="10" d="M211.1,80c0.1,0.4,0.1,0.9-0.1,1.3
			c-0.5,1.2-1.8,1.8-3,2.3c-1.4,0.6-2.8,1-4.3,1.4c-1.3,0.3-2.5,0.6-3.8,0.7"/>
		<path fill="none" stroke="#FF7429" stroke-width="0.75" stroke-miterlimit="10" d="M214,80.4c-1,0.1-2.1,0-2.9-0.4"/>
		<path fill="none" stroke="#FF7429" stroke-width="0.75" stroke-miterlimit="10" d="M225.9,77c-0.3,0.1-0.6,0.2-0.9,0.3
			c-1.7,0.5-3.4,1.1-5.1,1.6"/>
		<path fill="none" stroke="#FF7429" stroke-width="0.75" stroke-miterlimit="10" d="M163.1,67.1c-0.4,0.3-0.9,0.3-1.4,0
			c-0.6-0.3-1.1-1-1.4-1.6c-1.8-4-2.7-8.8-0.4-12.5c2.3-3.7,8.7-4.6,10.8-0.9c-1.6-4.5,3.1-9.7,7.8-8.7c2-4.2,7.8-6.2,11.9-4
			c3.2-2.1,6.5-4.1,10.3-4.9c3.7-0.8,8,0,10.6,2.7c0.1,0.1,0.2,0.2,0.3,0.3c0.8,0.9,1.3,2,1.6,3.2c0.1,0.3,0.1,0.5,0.2,0.8"/>
		<path fill="none" stroke="#FF7429" stroke-width="0.6722" stroke-miterlimit="10" d="M95,101.9c-0.2-1.7,1.4-3.6,3-3.1
			c-1.5-1.1-4-0.3-5.2-1.7c-1.3-1.5,0.2-3.7,1.9-4.9"/>
		<path fill="none" stroke="#FF7429" stroke-width="0.6722" stroke-miterlimit="10" d="M113.7,107c-0.5-0.2-0.9-0.4-1.3-0.6
			c-3.3,1.3-7,1.5-10.4,0.7"/>
		<path fill="none" stroke="#FF7429" stroke-width="0.6722" stroke-miterlimit="10" d="M130.7,108.7c-3.8,0.7-7.7,0.7-11.5,0"/>
		<path fill="none" stroke="#FF7429" stroke-width="0.6722" stroke-miterlimit="10" d="M158.6,91.9c-0.9,0.9-2,1.6-3.1,2.1
			c1.7,0.8,1.7,3.3,0.6,4.7c-0.9,1.2-2.3,1.8-3.8,2.3c-0.3,0.1-0.6,0.2-1,0.3c-0.9,0.3-1.9,0.6-2.8,0.9c-1.4,0.4-2.7,0.9-4.1,1.3
			c-1.5,0.5-3.3,0.8-4.8,0.5"/>
		<path fill="none" stroke="#FF7429" stroke-width="0.6722" stroke-miterlimit="10" d="M94.6,92.3c-0.5-0.3-1-0.9-1.2-1.5
			c-1.6-3.5-2.4-7.9-0.3-11.2c2-3.3,7.8-4.2,9.7-0.8c-1.4-4,2.8-8.7,6.9-7.8c1.8-3.8,7-5.5,10.7-3.6c2.8-1.9,5.8-3.7,9.2-4.4
			c3.3-0.7,7.1-0.1,9.5,2.4c2.4,2.5,2.7,6.9,0.1,9.2c3.6-1.5,7.9-1.4,11.4,0.3c0,0,0,0,0,0"/>
		<path fill="none" stroke="#FF7429" stroke-width="0.4405" stroke-miterlimit="10" d="M58.9,133.1c-2.6,0.6-5.4,0.3-7.7-0.9
			c-1-0.5-2-1.3-2.3-2.5c-0.2-1.1,0.8-2.5,1.9-2.1c-1-0.7-2.6-0.2-3.4-1.1c-0.8-1,0.1-2.5,1.3-3.2"/>
		<path fill="none" stroke="#FF7429" stroke-width="0.4405" stroke-miterlimit="10" d="M75.1,133.4c-3.6,1.3-7.6,1.4-11.3,0.5"/>
		<path fill="none" stroke="#FF7429" stroke-width="0.4405" stroke-miterlimit="10" d="M84.8,129.7c-1.2,0.4-2.3,0.7-3.5,1.1
			c-0.5,0.2-1.1,0.3-1.7,0.4"/>
		<path fill="none" stroke="#FF7429" stroke-width="0.4405" stroke-miterlimit="10" d="M88.9,115.4c1.5,0.4,2.9,1.8,3.2,3.4
			c0.3,1.3-0.2,2.7-1,3.8"/>
		<path fill="none" stroke="#FF7429" stroke-width="0.4405" stroke-miterlimit="10" d="M49.5,123.4c-0.3,0.2-0.5,0.2-0.8,0
			c-0.3-0.2-0.6-0.6-0.8-1c-1.1-2.3-1.6-5.2-0.2-7.4c1.3-2.2,5.1-2.7,6.3-0.5c-0.9-2.6,1.8-5.7,4.5-5.1c1.2-2.5,4.6-3.6,7-2.3
			c1.9-1.2,3.8-2.4,6-2.9c2.2-0.4,4.7,0,6.2,1.6c1.5,1.6,1.8,4.5,0.1,6c1.9-0.8,4.1-0.9,6.1-0.4"/>
		<path fill="none" stroke="#FF7429" stroke-width="0.4405" stroke-miterlimit="10" d="M39.6,170c-0.7-0.2-1.3-0.5-2-0.8
			c-2.9,1.2-6.3,1-9.1-0.5c-1-0.5-2-1.3-2.2-2.4c-0.2-1.1,0.9-2.5,1.9-2.1c-1-0.7-2.6-0.2-3.4-1.1c-0.9-1,0.1-2.4,1.2-3.2"/>
		<path fill="none" stroke="#FF7429" stroke-width="0.4405" stroke-miterlimit="10" d="M55.1,167.5c-0.4-0.2-0.7-0.4-1-0.9
			C54.6,166.6,54.9,167,55.1,167.5z"/>
		<path fill="none" stroke="#FF7429" stroke-width="0.4405" stroke-miterlimit="10" d="M55.9,143.4c0.8,1.6,0.7,3.8-0.7,5
			c2.4-1,5.2-0.9,7.5,0.2c0.7,0.3,1.4,0.8,1.7,1.5c0.3,0.7,0.1,1.7-0.6,2c2.3-0.9,5.1,0.9,5.5,3.3c0.3,1.4-0.2,2.8-1.1,4
			c-0.6,0.8-1.5,1.4-2.4,1.8c1.1,0.5,1.1,2.2,0.4,3.1c-0.7,0.9-2,1.4-3.1,1.7c-1.5,0.5-3,1-4.5,1.4c-1.1,0.4-2.6,0.6-3.6,0.2"/>
		<path fill="none" stroke="#FF7429" stroke-width="0.4405" stroke-miterlimit="10" d="M26.8,159.9c-0.3,0.2-0.5,0.1-0.8,0
			c-0.3-0.2-0.6-0.6-0.8-1c-1.1-2.3-1.6-5.2-0.2-7.4c1.3-2.2,5.1-2.7,6.4-0.5c-0.9-2.6,1.8-5.7,4.5-5.1c1.2-2.5,4.6-3.6,7-2.3
			c1.9-1.2,3.8-2.4,6-2.9c1.3-0.3,2.8-0.2,4,0.2"/>
		<path fill="none" stroke="#FF7429" stroke-width="0.4405" stroke-miterlimit="10" d="M58.9,133.1c-0.5,1.6-0.5,3.4-1.4,4.8
			c-1,1.5-2.9,2.1-4.5,3"/>
		<path fill="none" stroke="#FF7429" stroke-width="0.4405" stroke-miterlimit="10" d="M95,101.9c-4.4,2.1-8.3,5.5-11,9.5"/>
		<path fill="none" stroke="#FF7429" stroke-width="0.4405" stroke-miterlimit="10" d="M159.3,71.9c-3,0.3-6,1.3-8.6,3"/>
		<path fill="none" stroke="#FF7429" stroke-width="0.4405" stroke-miterlimit="10" d="M84.8,129.7c9.7,1.3,18.8,8.1,21.5,17.6
			c-0.5,0.5-1.4,0.6-2.2,0.6c-9.4-0.3-17.3-7.1-23.2-14.5c-0.5-0.7-1.1-1.4-1.3-2.2"/>
		<path fill="none" stroke="#FF7429" stroke-width="0.4405" stroke-miterlimit="10" d="M91.1,122.5L91.1,122.5
			c0.1,0.7,0.3,1.4,0.6,2c1.9,4.9,6.7,8,11.4,10.2c3.6,1.7,7.3,3.1,11.1,4.2c1.3-10.6,2.6-21.7-0.4-31.9"/>
		<path fill="none" stroke="#FF7429" stroke-width="0.4405" stroke-miterlimit="10" d="M88.9,115.4c0.4-0.8,1-1.5,1.8-2
			c1.8-1,4.6-0.2,5.1,1.8c0.5-0.8,0-1.7-0.1-2.6c-0.2-1.3,0.8-2.7,2.1-3.1c1.3-0.3,2.8,0.4,3.3,1.7c-0.2-1.4,0.2-2.9,0.9-4.1"/>
		<path fill="none" stroke="#FF7429" stroke-width="0.4405" stroke-miterlimit="10" d="M119.2,108.7c0,4.3-0.5,8.5-0.4,12.8
			c0.1,5.8,1.4,12,5.8,15.8c0.7-2,1.5-4,2.2-6c1.7-4.8,3.5-9.6,4.1-14.6c0.3-2.6,0.3-5.4-0.1-8"/>
		<path fill="none" stroke="#FF7429" stroke-width="0.6722" stroke-miterlimit="10" d="M139.6,104.1c1.6,7.4,5.1,14.3,10,20
			c0.7-3.3,0.6-6.8,0.4-10.1c-0.2-3.9-0.4-8-1.5-11.7"/>
		<path fill="none" stroke="#FF7429" stroke-width="0.4405" stroke-miterlimit="10" d="M75.1,133.4c0.8,0.7,1.6,1.4,2.3,2.1
			c4.7,4.8,6.3,12.4,4,18.7c-0.3,0.8-0.7,1.7-1.2,2.4c-2.1,2.8-6.1,3.3-9.6,3c-0.7-0.1-1.4-0.1-2.2-0.3"/>
		<path fill="none" stroke="#FF7429" stroke-width="0.4405" stroke-miterlimit="10" d="M65.4,139c-0.7-0.7-1.3-1.6-1.6-2.5
			c-0.3-0.9-0.3-1.8,0-2.6"/>
		<path fill="none" stroke="#FF7429" stroke-width="0.4405" stroke-miterlimit="10" d="M65.4,139c0.4,0.3,0.8,0.7,1.2,1.1
			C66.2,139.8,65.7,139.4,65.4,139z"/>
		<path fill="none" stroke="#FF7429" stroke-width="0.4405" stroke-miterlimit="10" d="M62.5,143.6c-0.7-0.5-1.4-1-2-1.6
			c-0.5-0.4-0.9-0.9-1.1-1.5c-0.4-1.6,1.4-3.1,3.1-2.9c1.1,0.1,2.1,0.7,2.9,1.4"/>
		<path fill="none" stroke="#FF7429" stroke-width="0.4405" stroke-miterlimit="10" d="M62.6,143.6c0.7,0.4,1.5,0.8,2.1,1.3
			C64,144.5,63.2,144.1,62.6,143.6z"/>
		<path fill="none" stroke="#FF7429" stroke-width="0.4405" stroke-miterlimit="10" d="M62.6,143.6
			C62.5,143.6,62.5,143.6,62.6,143.6"/>
		<path fill="none" stroke="#FF7429" stroke-width="0.4405" stroke-miterlimit="10" d="M55.9,143.4c0.8-0.5,1.8-0.8,2.8-0.8
			c1.3,0,2.6,0.5,3.8,1.1"/>
		<path fill="none" stroke="#FF7429" stroke-width="0.4405" stroke-miterlimit="10" d="M152.3,101.1c0.4,2.5,1,5,1.9,7.3
			c1.4,3.9,3.7,7.5,7.1,9.9c3.3-3.9,6.6-7.9,8.5-12.6c1.1-2.7,1.8-5.7,2.2-8.6c0.7-4.3,1-8.7,1-13"/>
		<path fill="none" stroke="#FF7429" stroke-width="0.4405" stroke-miterlimit="10" d="M177.8,83.9c-0.4,7.2-1.3,14.4,1.9,20.7
			c2.7-6.4,5.3-13.1,6.4-20"/>
		<path fill="none" stroke="#FF7429" stroke-width="0.4405" stroke-miterlimit="10" d="M157.3,92.5c0.3-0.4,0.8-0.6,1.3-0.6
			c0.8,0,1.6,0.4,2.1,1c0.8,1,0.9,2.4,1,3.7c-0.3-3.6,0-7.2,0.9-10.6c0.1-0.4,0.3-0.9,0.6-1.2c0.6-0.5,1.6-0.3,2.2,0.4
			c0.5,0.6,0.7,1.4,0.8,2.2c0-1.6,0.7-3.2,1.8-4.4"/>
		<path fill="none" stroke="#FF7429" stroke-width="0.4405" stroke-miterlimit="10" d="M271.2,152.8c3.6,5.3,8.7,11.9,12,15
			c4.6,4.3,9.9,7.8,15.1,11.3c7.7,5.2,15.6,10.5,24.2,13.9c-17.7-9.6-29.8-27.2-38-45.6c-4.2,3.6-11.4,2.7-14.5-1.8
			C270,148.1,270.4,150.5,271.2,152.8z"/>
		<path fill="none" stroke="#FF7429" stroke-width="0.4405" stroke-miterlimit="10" d="M290.7,147c6.7,16.5,18.6,30.4,31.4,42.7
			c-9.9-14.5-14-32.1-17.9-49.2c-1.1,0.9-2.4,1.4-3.8,1.4c-0.4,1.7-2.6,2.4-4.3,1.7c-1.6-0.7-2.7-2.2-3.6-3.7
			C292.9,142.4,292.2,145,290.7,147z"/>
		<path fill="none" stroke="#FF7429" stroke-width="0.4405" stroke-miterlimit="10" d="M319.5,172.8c-0.3-1.9-0.8-3.9-1.2-5.8
			c-1.9-9-2.4-18.2-1.8-27.4c0.2,0.9,0.7,1.6,1.5,2.1c0.6-0.9,1.3-1.8,2-2.8c2,7.3,1.2,15.1,1.1,22.7c-0.1,7.6,0.5,15.2,1.9,22.7
			C322,180.4,320.9,176.6,319.5,172.8z"/>
		<path fill="none" stroke="#FF7429" stroke-width="0.4405" stroke-miterlimit="10" d="M395,158.7c0.1,3.8,0.2,7.5,0.4,11.3
			c0,1-0.1,2.3-1,2.7c-0.4,0.2-0.9,0.1-1.4,0.1c-7-0.8-14.1-0.5-21,0.9C377.6,171.1,388.6,163.5,395,158.7z"/>
		<path fill="none" stroke="#FF7429" stroke-width="0.4405" stroke-miterlimit="10" d="M356.6,170.3c0.2-0.2,0.3-0.4,0.5-0.7
			c0.1-0.2,0.2-0.3,0.3-0.5"/>
		<path fill="none" stroke="#FF7429" stroke-width="0.4405" stroke-miterlimit="10" d="M355.1,171.2c0.5-0.3,1-0.6,1.6-0.9
			c0,0,0,0,0,0c9.5-5.4,18.9-11.1,27.9-17.2c2-1.4,4.1-2.8,6-4.4c2.2-1.9,4.2-4.1,5.9-6.6c-2-1.8-3.8-3.7-5.5-5.8
			c-7.6,12.3-18,22.9-30.2,30.8c-1.3,0.8-2.5,1.6-3.7,2.4C356.4,170.2,355.7,170.7,355.1,171.2"/>
		<path fill="none" stroke="#FF7429" stroke-width="1.2135" stroke-miterlimit="10" d="M193.2,85.7c0,0.1-0.1,0.1-0.1,0.2
			c-2.4,5.6-4.3,11.4-5.5,17.3c6.2-3.4,10.8-9.6,12.2-16.5c0.1-0.3,0.1-0.7,0.2-1"/>
		<path fill="none" stroke="#FF7429" stroke-width="1.2135" stroke-miterlimit="10" d="M203.8,85c-1.9,5.8-1.4,12.4,1.4,17.9
			c4.8-6.6,7.8-14.4,8.8-22.5"/>
		<path fill="none" stroke="#FF7429" stroke-width="1.2135" stroke-miterlimit="10" d="M219.9,78.9c-0.2,4,0,8,0.7,11.9
			c3-4,4.8-8.8,5.2-13.8"/>
		<path fill="none" stroke="#FF7429" stroke-width="0.5" stroke-linecap="round" stroke-linejoin="round" d="M323.5,85.2
			c0.1,0.6,0.1,1.3-0.2,1.8c-0.7,1.6-2.5,2.5-4.1,3.2c-11.8,4.8-25.6,4.4-37.1-1c-6.9,2.8-15.1,2.4-21.8-1.1
			c-2.4-1.3-4.8-3.2-5.3-5.8"/>
		<path fill="none" stroke="#FF7429" stroke-width="0.5" stroke-linecap="round" stroke-linejoin="round" d="M357.7,56.2
			c1,5.3-2.4,10.9-7.3,13.3c-0.3,0.2-0.7,0.3-1,0.4c0.5,0.3,1,0.6,1.3,1.1c1.3,1.7,1,4.5-0.4,6.3c-1.8,2.2-4.6,3.2-7.4,4.1
			c-3.6,1.2-7.2,2.3-10.8,3.4c-2.7,0.9-6.2,1.5-8.6,0.4c-0.4-0.2-0.7-0.4-1.1-0.6"/>
	</g>
</g>
</svg>
